<svg width="107" height="122" viewBox="0 0 107 122" fill="none" xmlns="http://www.w3.org/2000/svg">
<g style="mix-blend-mode:multiply" opacity="0.54">
<g style="mix-blend-mode:multiply" opacity="0.54">
<path d="M54.9642 108.118C80.8995 107.889 101.918 106.944 101.91 106.007C101.901 105.07 80.8702 104.495 54.9349 104.724C28.9996 104.953 7.98141 105.899 7.98949 106.836C7.99758 107.773 29.0289 108.347 54.9642 108.118Z" fill="#4A5557"/>
</g>
</g>
<path d="M74.7872 4.878C74.7851 5.01008 74.7538 5.14003 74.6958 5.25836C74.6378 5.3767 74.5543 5.48045 74.4516 5.56204C74.4276 5.5849 74.4021 5.60605 74.3752 5.62535C73.8177 6.36692 73.1798 7.04289 72.4734 7.64055C70.3874 9.39902 67.9206 10.3275 65.546 11.045C65.0054 11.2085 64.4665 11.3615 63.9397 11.5127C63.2635 11.7044 62.6082 11.889 61.9789 12.0895C59.7068 12.7929 57.7755 13.6405 56.4822 15.3725L56.4561 15.4077C56.089 15.9125 55.7805 16.4583 55.5365 17.0343C55.1949 17.8377 54.9333 18.6736 54.756 19.5296C54.5371 20.5771 54.3914 21.6389 54.3197 22.7071C54.271 23.3965 54.2431 24.1245 54.2379 24.8841C54.2298 26.0306 54.2704 27.2616 54.3596 28.5769C54.4303 29.5933 54.53 30.6595 54.6586 31.7756L46.5805 32.741C46.5353 32.3717 46.4952 32.0042 46.4587 31.6419C45.9059 26.2927 45.9842 21.856 46.716 18.1861C46.8873 17.3117 47.1085 16.448 47.3783 15.5994C47.81 14.2227 48.4042 12.9037 49.148 11.671C49.3926 11.263 49.6544 10.8703 49.9337 10.4928C50.0867 10.2871 50.2432 10.0848 50.4031 9.8914C51.2914 8.80445 52.3246 7.8475 53.4731 7.04795C54.0222 6.66868 54.5928 6.32226 55.1819 6.01045C57.3913 4.827 59.7016 4.17285 61.7373 3.59255C61.7929 3.57673 61.8502 3.55915 61.9111 3.54508C62.2466 3.44836 62.5682 3.35868 62.8759 3.26548C63.3505 3.12304 63.7937 2.98764 64.2075 2.84696C65.852 2.29832 67.0236 1.71978 67.7937 0.787791C68.0458 0.239149 68.3378 0.00175847 68.5134 0C68.7742 0 68.5395 0.761418 68.5238 0.819448C68.5742 0.770211 69.0714 0.283111 69.3322 0.541607C69.3916 0.593325 69.432 0.663856 69.4469 0.741747C69.4617 0.819639 69.4501 0.900315 69.4139 0.970674C69.4948 0.856866 69.6146 0.777378 69.75 0.747511C69.8854 0.717644 70.027 0.739505 70.1474 0.808892C70.2201 0.842843 70.2852 0.891329 70.3388 0.951419C70.3925 1.01151 70.4335 1.08196 70.4595 1.15853C70.4855 1.2351 70.4959 1.31621 70.4901 1.39695C70.4842 1.47769 70.4623 1.5564 70.4256 1.62834C70.4256 1.62834 70.695 1.35226 71.2391 1.62834C71.7832 1.90442 71.2861 2.66584 71.2513 2.72387C71.4778 2.53362 71.7654 2.43413 72.0596 2.44427C72.602 2.44427 72.3378 3.26548 72.3378 3.26548C72.3378 3.26548 72.6072 2.98764 73.1513 3.26548C73.2242 3.29923 73.2894 3.34761 73.3432 3.40767C73.397 3.46773 73.4382 3.53822 73.4642 3.61486C73.4902 3.6915 73.5005 3.77269 73.4946 3.8535C73.4886 3.9343 73.4665 4.01304 73.4295 4.08492C74.7819 3.52397 73.9771 4.63005 73.9771 4.63005C73.9771 4.63005 74.7837 4.33287 74.7872 4.878Z" fill="#E9AB44"/>
<g style="mix-blend-mode:multiply">
<g style="mix-blend-mode:multiply">
<path d="M48.3275 17.1697C47.9796 16.6649 47.6621 16.1393 47.3766 15.5959C47.1068 16.4445 46.8857 17.3082 46.7144 18.1826C48.1294 20.2716 50.457 22.7422 54.2361 24.8875C54.2361 24.1278 54.2692 23.3998 54.3179 22.7105C51.8094 21.1631 49.7912 19.2974 48.3275 17.1697Z" fill="#A46532"/>
</g>
<g style="mix-blend-mode:multiply">
<path d="M50.4013 9.8877C50.2414 10.0811 50.0849 10.2834 49.9319 10.4891C49.6538 10.8666 49.3919 11.2593 49.1462 11.6673C50.8186 14.7992 53.5773 16.3204 55.5347 17.0378C55.7787 16.4618 56.0872 15.916 56.4543 15.4112L56.4804 15.376C54.6899 14.801 51.8129 13.3678 50.4013 9.8877Z" fill="#A46532"/>
</g>
<g style="mix-blend-mode:multiply">
<path d="M55.1803 6.01025C54.5911 6.32207 54.0205 6.66851 53.4714 7.04779C55.2098 8.81687 57.8938 10.7513 61.9772 12.093C62.6065 11.8925 63.2619 11.7079 63.9381 11.5162C64.4596 11.365 65.0037 11.212 65.5443 11.0484C61.155 10.0971 58.2432 8.48979 56.3797 7.04427C55.9626 6.72061 55.5623 6.37548 55.1803 6.01025Z" fill="#A46532"/>
</g>
<g style="mix-blend-mode:multiply">
<path d="M66.7402 4.32035C65.8588 3.89427 65.0104 3.40166 64.2021 2.84668C63.7884 2.98736 63.3451 3.12277 62.8706 3.26521C62.5629 3.35842 62.2413 3.44107 61.9058 3.54483C63.1397 4.51004 64.4691 5.34335 65.8727 6.03144C67.6997 6.91072 69.9631 7.63525 72.4785 7.64404C73.1849 7.04634 73.8228 6.37034 74.3802 5.62872C74.4072 5.60942 74.4327 5.58827 74.4567 5.56542C71.9801 6.0074 69.408 5.59238 66.7402 4.32035Z" fill="#A46532"/>
</g>
</g>
<g style="mix-blend-mode:multiply" opacity="0.5">
<path d="M54.7542 19.5332C54.4487 21.0219 54.2799 22.5359 54.25 24.056C54.2083 25.437 54.2443 26.9428 54.3578 28.5735C53.3009 30.0119 51.6512 30.8595 49.7755 31.2938C48.6858 31.5365 47.5727 31.6544 46.4569 31.6455C46.2252 29.3982 46.1052 27.308 46.0971 25.3748C46.0745 20.0995 46.8915 15.9389 48.5847 12.6699C48.9774 11.9112 49.4279 11.1846 49.9319 10.4965C53.2348 6.01767 57.9476 4.67596 61.7354 3.59978C62.1335 3.48724 62.5108 3.37997 62.8706 3.27271C58.4673 7.4684 53.0558 10.2943 54.7542 19.5332Z" fill="#E9AB44"/>
</g>
<g style="mix-blend-mode:multiply" opacity="0.5">
<path d="M54.3578 28.5733C53.3009 30.0118 51.6512 30.8594 49.7755 31.2937C48.1293 29.2996 46.9107 27.3354 46.0971 25.3676C46.0745 20.0922 46.8915 15.9316 48.5847 12.6626C48.5673 16.7071 49.2905 20.5758 54.2501 24.0558C54.2083 25.4368 54.2443 26.9426 54.3578 28.5733Z" fill="#E9AB44"/>
</g>
<path d="M71.4669 28.5031L71.5538 38.6529L34.6745 38.98L34.5875 28.8301C34.5736 27.1737 35.5871 25.6174 37.355 24.2951C40.1972 22.1638 44.9899 20.6375 50.5665 20.2506C51.343 20.1979 52.1363 20.1668 52.9464 20.1574C63.1384 20.073 71.4251 23.808 71.4669 28.5031Z" fill="#28292B"/>
<path opacity="0.56" d="M71.519 34.5313L71.5538 38.6531L34.6745 38.9802L34.5876 28.8302C34.5493 24.5079 41.5184 20.8731 50.5805 20.2559C54.5648 28.9991 64.2509 32.8378 71.519 34.5313Z" fill="#141516"/>
<path opacity="0.56" d="M57.7129 37.3956L57.7251 38.776L34.6745 38.98L34.5875 28.83C34.5736 27.1735 35.5871 25.6173 37.355 24.2949C41.6522 32.2134 50.7716 35.7866 57.7129 37.3956Z" fill="#141516"/>
<path d="M80.2499 94.8139C95.0235 79.8694 95.0236 55.6396 80.25 40.6951C65.4763 25.7506 41.5236 25.7507 26.75 40.6951C11.9764 55.6396 11.9764 79.8694 26.75 94.8139C41.5236 109.758 65.4763 109.758 80.2499 94.8139Z" fill="#28292B"/>
<path opacity="0.56" d="M89.3302 80.0507C86.8046 87.5679 82.0316 94.1052 75.6717 98.7577C69.3118 103.41 61.6795 105.948 53.8311 106.02C32.9395 106.206 15.8549 89.2211 15.6724 68.0897C15.6054 60.3859 17.8377 52.841 22.0773 46.4409C26.3169 40.0409 32.3666 35.0836 39.4358 32.217C38.0724 36.2838 37.3971 40.5541 37.4384 44.8481C37.6122 65.9813 54.7055 82.9645 75.5971 82.7799C80.303 82.7447 84.9609 81.819 89.3302 80.0507Z" fill="#141516"/>
<path opacity="0.56" d="M78.0377 96.8774C71.2877 102.718 62.7136 105.957 53.8311 106.021C32.9395 106.208 15.8549 89.2228 15.6724 68.0913C15.5866 59.6019 18.3061 51.3267 23.3994 44.5789C22.3898 48.3732 21.8962 52.289 21.9322 56.2181C22.1391 80.0805 41.4279 99.2531 65.0157 99.0438C69.4412 99.0095 73.8344 98.2786 78.0377 96.8774Z" fill="#141516"/>
<path d="M76.0718 78.6543C76.247 79.0475 76.3613 79.4656 76.4108 79.894C76.4807 80.5125 76.411 81.1389 76.207 81.7262C76.0029 82.3134 75.6698 82.8462 75.2327 83.2843C74.7955 83.7225 74.2658 84.0546 73.6834 84.2557C73.1011 84.4568 72.4812 84.5216 71.8705 84.4453C71.2598 84.3689 70.6741 84.1534 70.1576 83.8149C69.6412 83.4765 69.2074 83.0239 68.8889 82.4913C68.5704 81.9587 68.3755 81.3599 68.3189 80.74C68.2623 80.1202 68.3455 79.4954 68.5621 78.9128L53.7982 71.6856L51.0447 73.9188L41.0004 82.0586C41.3553 82.5985 41.5771 83.2166 41.6471 83.8611C41.7139 84.452 41.6533 85.0506 41.4693 85.6156C41.2854 86.1806 40.9826 86.6985 40.5817 87.1337C40.1808 87.5689 39.6915 87.911 39.1473 88.1364C38.6031 88.3618 38.0171 88.4652 37.4297 88.4395C36.8422 88.4138 36.2672 88.2595 35.7443 87.9873C35.2215 87.7151 34.7632 87.3315 34.401 86.8629C34.0389 86.3943 33.7814 85.8518 33.6465 85.2729C33.5115 84.6939 33.5023 84.0923 33.6194 83.5094C32.9975 83.3971 32.4101 83.1398 31.9036 82.7579C31.3972 82.376 30.9856 81.8799 30.7017 81.3092C30.4178 80.7384 30.2692 80.1085 30.2678 79.4695C30.2664 78.8305 30.4122 78.2 30.6936 77.6279C30.9751 77.0559 31.3844 76.558 31.8891 76.1738C32.3939 75.7896 32.9802 75.5297 33.6015 75.4146C34.2229 75.2995 34.8622 75.3325 35.4688 75.5108C36.0754 75.6892 36.6325 76.0081 37.0961 76.4422L46.2225 69.0567L47.0395 68.3938L44.8787 67.3387L35.688 62.8389C35.3495 63.3864 34.8884 63.8455 34.3419 64.1793C33.7953 64.513 33.1788 64.7118 32.5422 64.7597C31.9056 64.8076 31.2668 64.7032 30.6775 64.455C30.0882 64.2067 29.5649 63.8216 29.1501 63.3308C28.7353 62.84 28.4405 62.2573 28.2897 61.6298C28.1389 61.0024 28.1362 60.3478 28.2819 59.7191C28.4277 59.0904 28.7177 58.5053 29.1285 58.011C29.5394 57.5168 30.0595 57.1273 30.6467 56.8742C30.4047 56.333 30.2814 55.7451 30.2854 55.151C30.2893 54.557 30.4204 53.9709 30.6697 53.433C30.919 52.8951 31.2805 52.4182 31.7294 52.0351C32.1783 51.6521 32.7039 51.3719 33.27 51.2139C33.8361 51.0559 34.4294 51.0239 35.0089 51.12C35.5884 51.216 36.1405 51.438 36.6272 51.7705C37.1139 52.103 37.5235 52.5382 37.828 53.0462C38.1326 53.5542 38.3246 54.1228 38.3911 54.7131C38.4584 55.3004 38.3991 55.8955 38.2173 56.4575L39.5176 57.0923L52.903 63.6442L65.6417 53.3081C65.338 52.8038 65.147 52.2384 65.0819 51.6516C65.0151 51.0607 65.0757 50.4621 65.2597 49.8971C65.4436 49.3321 65.7464 48.8142 66.1473 48.379C66.5482 47.9438 67.0375 47.6017 67.5817 47.3763C68.1259 47.1509 68.7119 47.0475 69.2994 47.0732C69.8868 47.0989 70.4618 47.2532 70.9847 47.5254C71.5075 47.7976 71.9658 48.1812 72.328 48.6498C72.6902 49.1184 72.9476 49.6608 73.0825 50.2398C73.2175 50.8187 73.2267 51.4204 73.1097 52.0033C73.739 52.1161 74.3332 52.3774 74.8441 52.766C75.3549 53.1545 75.768 53.6595 76.0498 54.2398C76.3316 54.82 76.4742 55.4594 76.466 56.1058C76.4578 56.7523 76.2991 57.3878 76.0027 57.9606C75.7063 58.5334 75.2806 59.0275 74.7601 59.4027C74.2396 59.7779 73.639 60.0237 73.007 60.1202C72.375 60.2167 71.7295 60.1611 71.1227 59.9579C70.5159 59.7548 69.965 59.4098 69.5147 58.9509L59.6704 66.9272L71.1436 72.5402C71.5004 72.012 71.9741 71.5753 72.527 71.2648C73.08 70.9543 73.6969 70.7785 74.3288 70.7515C74.9606 70.7244 75.59 70.8469 76.1669 71.109C76.7438 71.3712 77.2522 71.7659 77.6519 72.2617C78.0515 72.7575 78.3314 73.3408 78.4691 73.9652C78.6068 74.5896 78.5986 75.2378 78.4452 75.8584C78.2918 76.4791 77.9974 77.055 77.5854 77.5403C77.1734 78.0257 76.6551 78.4071 76.0718 78.6543Z" fill="#FEEDD9"/>
<path opacity="0.56" d="M75.6563 82.7779C75.2459 83.3457 74.6985 83.7976 74.0663 84.0905C73.4341 84.3833 72.7383 84.5074 72.0452 84.4508C71.3522 84.3941 70.6851 84.1587 70.1075 83.7671C69.53 83.3754 69.0614 82.8404 68.7463 82.2134C71.0084 82.6109 73.3014 82.8004 75.5972 82.7796L75.6563 82.7779Z" fill="#141516"/>
<g style="mix-blend-mode:screen" opacity="0.59">
<path d="M61.4069 38.8462C51.4044 46.005 65.1653 70.5322 81.6084 58.346C90.2584 51.5143 71.7936 31.4132 61.4069 38.8462Z" fill="#141516"/>
</g>
<g style="mix-blend-mode:screen">
<path d="M68.6734 40.7401C64.3101 43.8632 70.3126 54.5653 77.4886 49.2476C81.2626 46.267 73.207 37.4958 68.6734 40.7401Z" fill="#141516"/>
</g>
<g opacity="0.56">
<path opacity="0.56" d="M45.3811 43.8697C47.8043 43.8483 49.7539 42.1274 49.7358 40.0258C49.7177 37.9243 47.7386 36.238 45.3155 36.2594C42.8923 36.2808 40.9427 38.0018 40.9608 40.1033C40.9789 42.2048 42.958 43.8911 45.3811 43.8697Z" fill="#141516"/>
<path opacity="0.56" d="M52.5507 46.5919C53.7968 46.5809 54.8001 45.7767 54.7917 44.7957C54.7832 43.8148 53.7662 43.0284 52.52 43.0395C51.2739 43.0505 50.2705 43.8546 50.279 44.8356C50.2875 45.8166 51.3045 46.6029 52.5507 46.5919Z" fill="#141516"/>
<path opacity="0.56" d="M47.161 46.6361C46.118 46.6361 45.2853 47.1638 45.2906 47.7934C45.2958 48.4231 46.1424 48.9279 47.1802 48.9191C48.218 48.9103 49.0576 48.3914 49.0507 47.76C49.0437 47.1286 48.1989 46.6256 47.161 46.6361Z" fill="#141516"/>
</g>
<g opacity="0.75">
<path opacity="0.75" d="M49.7374 40.0175C49.7335 40.5414 49.6151 41.0579 49.3906 41.5301C49.1661 42.0022 48.841 42.4182 48.4388 42.7483C48.9577 42.1281 49.2417 41.3416 49.2402 40.5292C49.2211 38.4296 47.2428 36.7433 44.8195 36.7644C43.7026 36.7604 42.62 37.1545 41.7617 37.8775C42.2019 37.3615 42.748 36.9489 43.362 36.6683C43.9759 36.3877 44.643 36.2458 45.3167 36.2527C47.7365 36.2316 49.7182 37.9179 49.7374 40.0175Z" fill="#141516"/>
<path opacity="0.75" d="M54.7926 44.7953C54.7864 45.0608 54.7156 45.3207 54.5864 45.552C54.4572 45.7832 54.2737 45.9787 54.0521 46.1211C54.2124 45.8807 54.2972 45.5969 54.2954 45.307C54.2867 44.3258 53.2698 43.5486 52.0234 43.5486C51.4875 43.5455 50.9637 43.7094 50.5232 44.0181C50.89 43.4431 51.6462 43.0458 52.5206 43.037C53.767 43.0264 54.7839 43.8106 54.7926 44.7953Z" fill="#141516"/>
<path opacity="0.75" d="M49.0509 47.7601C49.0509 48.0819 48.8371 48.3755 48.4842 48.5847C48.5309 48.4872 48.5547 48.3801 48.5537 48.2718C48.5537 47.6406 47.7019 47.1377 46.6641 47.1465C46.2083 47.1423 45.7592 47.2574 45.3604 47.4806C45.5794 46.9988 46.3008 46.6437 47.1613 46.6366C48.1991 46.6261 49.0457 47.1289 49.0509 47.7601Z" fill="#141516"/>
</g>
<g opacity="0.56">
<path opacity="0.56" d="M82.945 69.7604C83.4849 68.6849 82.917 67.2966 81.6766 66.6595C80.4362 66.0224 78.993 66.3777 78.4531 67.4532C77.9132 68.5287 78.4811 69.917 79.7216 70.5542C80.962 71.1913 82.4052 70.8359 82.945 69.7604Z" fill="#141516"/>
<path opacity="0.56" d="M83.5953 72.0639C82.9573 71.7351 82.2358 71.8775 81.9837 72.3787C81.7317 72.8799 82.0446 73.5534 82.6791 73.8805C83.3136 74.2076 84.0386 74.0669 84.2906 73.5657C84.5427 73.0645 84.242 72.391 83.5953 72.0639Z" fill="#141516"/>
<path opacity="0.56" d="M79.924 72.4629C79.3921 72.1904 78.8305 72.2308 78.6689 72.5526C78.5072 72.8743 78.8062 73.3578 79.3382 73.6303C79.8702 73.9028 80.4317 73.8641 80.5933 73.5406C80.755 73.2171 80.456 72.7354 79.924 72.4629Z" fill="#141516"/>
</g>
<g opacity="0.75">
<path opacity="0.75" d="M82.9662 69.7812C82.8273 70.0469 82.6319 70.2782 82.3942 70.4585C82.1565 70.6388 81.8822 70.7636 81.5911 70.824C82.0176 70.6472 82.3676 70.3223 82.5785 69.9078C83.1192 68.8334 82.5507 67.4459 81.3112 66.8076C80.7435 66.5071 80.0892 66.4187 79.4634 66.5579C79.8221 66.4123 80.2079 66.3479 80.5937 66.3692C80.9796 66.3905 81.3563 66.4969 81.6972 66.681C82.9384 67.3175 83.5051 68.7103 82.9662 69.7812Z" fill="#141516"/>
<path opacity="0.75" d="M84.2943 73.5655C84.2213 73.6989 84.117 73.8122 83.9906 73.8953C83.8642 73.9784 83.7195 74.0288 83.5693 74.042C83.7146 73.9623 83.8323 73.8396 83.9066 73.6903C84.1587 73.1892 83.8458 72.5176 83.2113 72.1888C82.9393 72.0438 82.6296 71.9873 82.3247 72.027C82.524 71.928 82.7441 71.8794 82.9661 71.8855C83.1881 71.8917 83.4053 71.9523 83.5989 72.0622C84.2421 72.391 84.5463 73.0626 84.2943 73.5655Z" fill="#141516"/>
<path opacity="0.75" d="M80.5916 73.5407C80.5385 73.6266 80.4639 73.6968 80.3754 73.7441C80.2868 73.7913 80.1875 73.814 80.0875 73.8098C80.1367 73.7728 80.1765 73.7246 80.2039 73.6691C80.3673 73.3455 80.0666 72.8637 79.5364 72.5911C79.3049 72.4673 79.0454 72.4066 78.7837 72.4153C79.0218 72.2288 79.479 72.2394 79.9223 72.4662C80.456 72.7353 80.755 73.2189 80.5916 73.5407Z" fill="#141516"/>
</g>
<g opacity="0.56">
<path opacity="0.56" d="M33.9791 70.2393C34.5191 69.1639 33.9515 67.7755 32.7112 67.1381C31.4709 66.5008 30.0277 66.8559 29.4876 67.9313C28.9476 69.0067 29.5152 70.3952 30.7555 71.0325C31.9958 71.6699 33.439 71.3147 33.9791 70.2393Z" fill="#141516"/>
<path opacity="0.56" d="M34.586 72.4962C33.948 72.1692 33.2265 72.3098 32.9745 72.811C32.7224 73.3122 33.0353 73.9857 33.6698 74.3146C34.3043 74.6434 35.0293 74.501 35.2813 73.998C35.5334 73.4951 35.2205 72.8251 34.586 72.4962Z" fill="#141516"/>
<path opacity="0.56" d="M30.9144 72.8973C30.3842 72.623 29.821 72.6635 29.6593 72.987C29.4977 73.3105 29.7967 73.7922 30.3286 74.0647C30.8606 74.3372 31.422 74.2968 31.5837 73.975C31.7454 73.6533 31.4463 73.1698 30.9144 72.8973Z" fill="#141516"/>
</g>
<g opacity="0.75">
<path opacity="0.75" d="M33.9564 70.2139C33.818 70.4802 33.6228 70.712 33.385 70.8927C33.1472 71.0733 32.8727 71.1983 32.5814 71.2585C33.0078 71.0817 33.3579 70.7568 33.5687 70.3423C34.1094 69.2678 33.5427 67.8802 32.3015 67.2418C31.7337 66.9416 31.0797 66.8525 30.4536 66.9903C30.8127 66.8452 31.1987 66.7811 31.5848 66.8023C31.9709 66.8236 32.3477 66.9297 32.6891 67.1134C33.9286 67.7518 34.4953 69.1394 33.9564 70.2139Z" fill="#141516"/>
<path opacity="0.75" d="M35.2845 73.9978C35.2121 74.1315 35.1082 74.245 34.982 74.3284C34.8559 74.4118 34.7114 74.4625 34.5613 74.4761C34.7053 74.3953 34.8222 74.2729 34.8968 74.1244C35.1489 73.6216 34.836 72.9499 34.2015 72.6229C33.9295 72.4778 33.6199 72.4213 33.3149 72.4611C33.514 72.3614 33.7341 72.3123 33.9561 72.3181C34.1782 72.3239 34.3955 72.3845 34.5892 72.4945C35.2202 72.8251 35.5366 73.4967 35.2845 73.9978Z" fill="#141516"/>
<path opacity="0.75" d="M31.5836 73.9751C31.531 74.0613 31.4564 74.1316 31.3677 74.1787C31.279 74.2257 31.1794 74.2477 31.0794 74.2424C31.1291 74.2061 31.1696 74.1585 31.1977 74.1035C31.3593 73.78 31.0586 73.2964 30.5284 73.0239C30.2974 72.9001 30.0385 72.8395 29.7773 72.8481C30.0138 72.6617 30.4727 72.6723 30.9143 72.8991C31.4462 73.1698 31.7435 73.6516 31.5836 73.9751Z" fill="#141516"/>
</g>
</svg>
