<svg width="110" height="87" viewBox="0 0 110 87" fill="none" xmlns="http://www.w3.org/2000/svg">
<g style="mix-blend-mode:multiply" opacity="0.54">
<g style="mix-blend-mode:multiply" opacity="0.54">
<path d="M56.5608 86.9946C83.6605 86.9946 105.629 86.2008 105.629 85.2216C105.629 84.2423 83.6605 83.4485 56.5608 83.4485C29.4611 83.4485 7.49243 84.2423 7.49243 85.2216C7.49243 86.2008 29.4611 86.9946 56.5608 86.9946Z" fill="#4A5557"/>
</g>
</g>
<path d="M20.8116 0.00219727L16.1382 3.0116L25.6976 3.22656C25.2725 0.863855 20.8116 0.00219727 20.8116 0.00219727Z" fill="#131918"/>
<path d="M88.9988 0.00219727C88.9988 0.00219727 84.5378 0.862018 84.1146 3.22656L93.6722 3.0116L88.9988 0.00219727Z" fill="#131918"/>
<path d="M101.744 41.4691V41.7025C101.744 42.8931 101.733 44.0745 101.711 45.2467C101.662 48.0193 101.555 50.7275 101.401 53.3549L101.33 54.4738C101.292 55.0893 101.248 55.6993 101.203 56.3112C101.192 56.4692 101.179 56.6253 101.166 56.7797C101.128 57.2905 101.086 57.792 101.045 58.2936C100.783 61.3399 100.449 64.2521 100.055 66.9935C100.055 67.0504 100.038 67.1074 100.031 67.1643C99.9748 67.5502 99.9185 67.9342 99.8495 68.3145C99.8386 68.3788 99.8295 68.445 99.8204 68.5093C99.686 69.3753 99.545 70.2216 99.3972 71.0485C99.3125 71.5384 99.2241 72.0204 99.132 72.4944C98.6107 75.2192 98.0223 77.7143 97.3793 79.9375H11.3612C10.8054 78.0212 10.2895 75.8954 9.82818 73.6079C9.51214 72.0535 9.22032 70.4225 8.95271 68.715C8.52224 65.9884 8.15897 63.0799 7.86291 60.0226C7.79267 59.2876 7.72607 58.5472 7.66311 57.8012C7.62133 57.3052 7.57956 56.8036 7.54142 56.2983C7.53052 56.155 7.52144 56.0117 7.51235 55.8647L7.47966 55.4164C7.45968 55.1298 7.4397 54.845 7.42154 54.5547C7.41064 54.4022 7.40156 54.2497 7.39248 54.0935C7.27865 52.2855 7.18904 50.4384 7.12366 48.5521C7.09096 47.6702 7.06916 46.7772 7.04919 45.8787V45.6087V45.1897C7.04919 44.984 7.04919 44.7763 7.03829 44.5706C7.03829 44.4769 7.03829 44.3868 7.03829 44.2894C7.02618 43.3561 7.01952 42.4184 7.01831 41.4765C7.01831 39.791 7.03829 38.1276 7.07825 36.4863C7.11457 34.9454 7.16846 33.424 7.2399 31.9223C7.24899 31.7202 7.25625 31.5181 7.26715 31.3197C7.26715 31.2719 7.26715 31.2223 7.27623 31.1745C7.29439 30.8071 7.31437 30.4267 7.33435 30.0556C7.33435 30.0041 7.33435 29.9545 7.34344 29.9049C7.37795 29.2986 7.41609 28.6996 7.45423 28.1025C7.54384 26.771 7.64555 25.4622 7.75937 24.1761C7.88046 22.8569 8.01185 21.5634 8.15352 20.2956C8.2062 19.8143 8.26432 19.3402 8.32244 18.8662C8.39873 18.2323 8.48046 17.6076 8.56583 16.9884C8.56495 16.9787 8.56495 16.9688 8.56583 16.959C8.62032 16.5462 8.67784 16.1365 8.73838 15.7299C8.73737 15.7213 8.73737 15.7127 8.73838 15.7041C8.75291 15.5939 8.77107 15.4836 8.78742 15.3752C8.82375 15.1272 8.86008 14.881 8.89822 14.6403C9.46458 10.7923 10.269 6.98396 11.3067 3.23779H97.4501C97.7807 4.39777 98.0961 5.62755 98.3964 6.92716C98.7597 8.51952 99.1006 10.2031 99.419 11.978C99.8223 14.26 100.182 16.6871 100.487 19.2392C100.566 19.8933 100.641 20.5547 100.712 21.2235C100.723 21.319 100.734 21.4164 100.745 21.5156C100.81 22.1403 100.871 22.7724 100.927 23.4118C100.998 24.1773 101.065 24.9508 101.128 25.7323C101.165 26.1751 101.197 26.6198 101.23 27.0681C101.384 29.192 101.506 31.3785 101.593 33.6127C101.649 35.0752 101.689 36.5591 101.713 38.0645C101.722 38.5992 101.728 39.1394 101.733 39.6777C101.733 39.8376 101.733 39.9974 101.733 40.1554C101.74 40.5915 101.744 41.0294 101.744 41.4691Z" fill="#A46532"/>
<g style="mix-blend-mode:multiply" opacity="0.28">
<g style="mix-blend-mode:multiply" opacity="0.32">
<path d="M31.0103 22.9946C30.3728 33.3093 24.6368 33.9543 21.2384 45.557C19.7254 50.7199 13.8804 53.5016 7.4833 55.4143C7.46332 55.1277 7.44334 54.8429 7.42518 54.5526C7.41428 54.4001 7.4052 54.2476 7.39612 54.0914C9.84633 53.2865 12.2075 52.2268 14.4417 50.9294C18.9026 48.3571 16.14 44.0522 21.2384 38.8967C26.3369 33.7411 29.3102 26.8621 27.3994 20.6317C25.4887 14.4014 23.3617 8.16913 16.3525 11.1768C12.6344 12.7735 10.6492 13.7638 8.78198 15.3696C8.81831 15.1216 8.85464 14.8754 8.89278 14.6347C26.039 -0.749298 31.5298 14.5263 31.0103 22.9946Z" fill="#A46532"/>
</g>
<g style="mix-blend-mode:multiply" opacity="0.28">
<path d="M14.6506 28.3669C14.3109 34.4006 11.7807 36.6991 7.06372 36.4841C7.10005 34.9432 7.15393 33.4219 7.22537 31.9203C8.52224 31.9974 10.9162 31.7181 11.6772 28.7968C12.3275 26.2926 9.62839 27.101 7.4397 28.1005C7.52931 26.7691 7.63102 25.4603 7.74485 24.1742C12.7616 21.3043 14.972 22.7025 14.6506 28.3669Z" fill="#A46532"/>
</g>
<g style="mix-blend-mode:multiply" opacity="0.25">
<path d="M54.9678 79.9375H50.1255C49.913 72.2023 27.3976 62.3174 26.7601 51.5744C26.1226 40.8315 29.7334 38.8968 37.5927 29.4418C44.0462 21.6772 39.0458 9.57091 33.0519 3.22656H43.4214C47.6625 9.51763 57.6251 10.2268 53.315 19.3419C48.6415 29.2268 51.6149 39.3248 51.6149 39.3248C47.8006 32.4495 49.4898 24.4993 50.7648 19.3419C52.0254 14.2469 46.2349 10.2011 46.0932 10.1037C46.1513 10.225 48.2092 14.4821 47.7915 20.2091C47.3665 26.0115 40.1447 35.2496 33.7712 38.0442C27.3976 40.8388 26.7619 50.077 30.3728 55.2344C33.9837 60.3918 44.3931 63.1846 50.7648 70.0618C55.2185 74.8609 55.3129 78.3023 54.9678 79.9375Z" fill="#A46532"/>
</g>
<g style="mix-blend-mode:multiply" opacity="0.28">
<path d="M31.646 12.8965C31.646 12.8965 29.3084 6.69362 25.2434 3.22656H26.7546C31.3281 7.14928 31.646 12.8965 31.646 12.8965Z" fill="#A46532"/>
</g>
<g style="mix-blend-mode:multiply" opacity="0.28">
<path d="M23.5723 72.6322C25.1453 74.8591 25.5558 77.4975 25.445 79.9375H20.8824C21.647 78.0248 22.1156 75.6675 21.2365 73.4921C20.0686 70.602 15.9692 74.6974 13.4263 79.9375H11.3611C10.8053 78.0212 10.2895 75.8954 9.82812 73.6079C13.4172 71.5152 20.4755 68.2428 23.5723 72.6322Z" fill="#A46532"/>
</g>
<g style="mix-blend-mode:multiply" opacity="0.21">
<path d="M39.7505 79.9375C40.3572 77.7124 40.4353 74.4419 37.1677 71.7722C31.646 67.2597 28.8834 69.4094 26.1226 64.4669C23.9212 60.5276 14.4344 63.1403 8.95272 68.7149C8.52225 65.9882 8.15898 63.0797 7.86292 60.0223C17.455 55.3205 25.663 56.6912 26.7528 63.177C27.968 70.3428 41.7394 63.4526 43.5649 79.9375C43.6539 80.7422 43.7156 81.5911 43.7465 82.5098H38.6553C39.1373 81.7083 39.506 80.8424 39.7505 79.9375Z" fill="#A46532"/>
</g>
<g style="mix-blend-mode:multiply" opacity="0.28">
<path d="M82.5326 79.9375H81.0795C81.2612 76.0792 74.9857 73.2773 74.9857 73.2773C74.9857 73.2773 74.9857 73.0624 80.0824 75.4251C85.179 77.7879 82.5326 79.9375 82.5326 79.9375Z" fill="#A46532"/>
</g>
<g style="mix-blend-mode:multiply" opacity="0.28">
<path d="M86.8755 75.6436L89.6163 79.9412H85.7076C85.9164 78.734 85.9528 77.198 85.1754 76.0827C83.6896 73.9348 73.7052 69.2073 73.7052 69.2073C80.0769 71.1273 86.8755 75.6436 86.8755 75.6436Z" fill="#A46532"/>
</g>
<g style="mix-blend-mode:multiply" opacity="0.49">
<path d="M99.1412 72.4943C98.6199 75.2191 98.0314 77.7142 97.3884 79.9374H96.3277C96.5238 77.7619 92.7422 70.4365 87.088 67.0447C81.352 63.6071 78.3695 66.1849 71.3676 64.4725C66.2582 63.2194 64.6471 62.1942 64.1495 61.733C64.5945 62.3779 65.5371 64.331 65.2084 68.985C64.7834 75.0004 70.3068 73.2825 73.4927 76.9352C74.6733 78.2893 75.6196 79.2575 76.3425 79.9429H72.1432C70.4812 78.2452 68.1309 75.9338 65.2084 73.2825C59.0474 67.6952 65.6334 68.3401 59.4724 59.3187C53.3114 50.2974 48.2111 52.0135 48.2111 47.286C48.2111 42.5585 42.4751 36.9712 42.4751 36.9712C42.4751 36.9712 48.8486 40.4089 50.7594 46.6411C52.6702 52.8734 58.4062 56.9559 66.6923 59.7487C74.9785 62.5414 77.0999 62.9714 85.5968 63.1863C94.0936 63.4013 92.8203 64.4725 94.9436 67.2689C96.1751 68.8766 97.9024 70.995 99.1412 72.4943Z" fill="#A46532"/>
</g>
<g style="mix-blend-mode:multiply" opacity="0.44">
<path d="M101.401 53.3603L101.33 54.4793C101.292 55.0948 101.248 55.7048 101.203 56.3166C101.192 56.4746 101.179 56.6308 101.166 56.7851C101.128 57.2959 101.086 57.7975 101.045 58.2991C100.783 61.3454 100.449 64.2576 100.055 66.9989C100.055 67.0559 100.038 67.1128 100.031 67.1698C99.9749 67.5556 99.9186 67.9397 99.8496 68.32C99.8387 68.3843 99.8296 68.4504 99.8205 68.5147C99.6861 69.3807 99.545 70.2271 99.3973 71.054C98.8106 69.6208 98.0278 67.8 97.0633 65.7606C94.7257 60.8199 87.7164 61.0349 83.468 58.8852C79.2196 56.7355 66.0493 57.8104 61.8009 53.0829C59.3844 50.419 57.1154 47.6219 55.0042 44.7046C58.1936 46.858 67.1155 59.9546 84.1055 53.9428C93.2708 50.6943 97.926 50.3232 101.401 53.3603Z" fill="#A46532"/>
</g>
<g style="mix-blend-mode:multiply" opacity="0.26">
<path d="M80.9324 24.4976C81.0958 24.3781 86.4032 20.5123 83.4752 12.8965C81.915 8.83783 82.5162 5.49385 83.4426 3.22656H89.7089C87.4603 6.96189 88.0034 13.0803 88.1487 17.1904C88.3576 23.1177 81.154 24.459 80.9324 24.4976Z" fill="#A46532"/>
</g>
<g style="mix-blend-mode:multiply" opacity="0.28">
<path d="M92.6114 14.1844C92.1628 10.4472 95.3141 8.20193 98.3964 6.91577C98.7597 8.50816 99.1006 10.1918 99.419 11.9667C97.0578 12.0898 95.1706 12.992 94.9472 15.4742C94.3206 22.4562 89.1658 24.4369 89.0042 24.4976C89.1567 24.3818 93.4451 21.1499 92.6114 14.1844Z" fill="#A46532"/>
</g>
<g style="mix-blend-mode:multiply" opacity="0.69">
<path d="M101.235 27.0569C98.4256 26.7446 93.5723 27.2609 87.7255 32.2346C78.3786 40.1829 70.5193 41.4691 67.3371 32.6645C64.4037 24.5508 74.8004 13.3411 74.8041 3.22656H80.0369C80.1568 6.57788 79.3704 10.8277 75.834 14.6181C68.6122 22.3533 71.5855 25.3629 71.5855 25.3629C72.857 18.9156 80.0824 20.2055 80.0824 20.2055C76.268 21.4916 71.5855 26.0078 74.9857 31.1634C78.3859 36.319 89.8543 27.2958 94.9527 25.3629C97.4048 24.4314 99.5608 24.944 101.139 25.7304C101.17 26.164 101.203 26.6086 101.235 27.0569Z" fill="#A46532"/>
</g>
</g>
<path d="M9.07261 16.9736C8.89098 16.9736 8.72569 16.9846 8.55132 16.9736C8.55044 16.9638 8.55044 16.954 8.55132 16.9442C8.60581 16.5314 8.66333 16.1217 8.72387 15.715C8.85283 15.715 8.98179 15.715 9.11257 15.7058C16.9228 15.4651 24.3698 10.7339 32.0584 5.83918C33.4388 4.95909 34.8265 4.07717 36.225 3.21729H38.7098C36.6991 4.40422 34.7139 5.67199 32.7359 6.92691C25.1218 11.7849 17.3442 16.7348 9.07261 16.9736Z" fill="#59271C"/>
<path d="M53.3912 3.22656C48.923 5.52139 44.4676 8.75142 41.0747 13.2841C35.1389 21.2177 25.1254 27.3268 13.6026 30.0424C11.5109 30.5358 9.39412 30.913 7.26172 31.1724C7.27988 30.8049 7.29986 30.4246 7.31984 30.0534C7.31984 30.002 7.31984 29.9524 7.32892 29.9028C21.2784 28.0967 33.5078 21.2673 40.0593 12.5069C43.049 8.51073 46.8234 5.49383 50.7158 3.22656H53.3912Z" fill="#59271C"/>
<path d="M67.5878 25.5557C70.0108 19.2022 75.774 12.5823 84.7177 5.87785C85.9891 4.92427 87.2387 4.0405 88.4266 3.22656H90.7533C83.3245 8.12122 72.3647 16.6079 68.7757 26.0206C68.3372 27.1014 68.0629 28.243 67.9619 29.4068C67.9529 29.5482 67.9492 29.686 67.9492 29.822C67.9492 29.901 67.9492 29.9782 67.9492 30.0553C67.9492 30.1325 67.9492 30.1987 67.9619 30.2703C68.0437 31.3305 68.4197 32.183 69.0881 32.7948C70.0289 33.6584 71.5329 34.0185 73.282 33.8972C75.0452 33.7353 76.7603 33.2273 78.3314 32.4016C81.9532 30.5514 85.6494 26.7996 85.1754 21.8039C84.9701 20.933 84.556 20.4148 83.9039 20.2311C83.7603 20.1915 83.613 20.1669 83.4644 20.1576C81.4519 20.0419 78.3786 22.3367 77.5213 24.5893C77.5038 24.6269 77.4887 24.6655 77.4759 24.705C77.4196 24.8663 77.3022 24.9983 77.1496 25.0721C76.997 25.1458 76.8217 25.1552 76.6622 25.0982C76.5028 25.0412 76.3722 24.9224 76.2993 24.7681C76.2264 24.6137 76.2171 24.4364 76.2735 24.2751C77.2616 21.4456 80.9233 18.719 83.5389 18.8678C83.6747 18.8759 83.8099 18.8919 83.9439 18.9156C85.2153 19.1434 86.0817 20.0657 86.4177 21.5521L86.4305 21.6312C86.9881 27.2975 82.9031 31.5032 78.8927 33.5518C77.1476 34.4713 75.2378 35.0273 73.2765 35.187C71.2114 35.3175 69.4096 34.8398 68.2199 33.7484C66.9611 32.589 65.8114 30.217 67.5878 25.5557Z" fill="#59271C"/>
<path d="M100.745 21.5045C90.6497 39.9992 74.4789 44.2379 61.1379 47.7326C51.2534 50.3214 42.7202 52.5556 39.0095 59.8204C35.0921 67.4725 29.7698 74.2998 23.3272 79.9375H21.3147C28.1667 74.2425 33.8014 67.1967 37.8761 59.2288C41.8502 51.4532 50.6395 49.151 60.8164 46.485C74.2845 42.9573 90.697 38.6579 100.487 19.228C100.566 19.8821 100.641 20.5436 100.712 21.2124C100.723 21.3079 100.734 21.4053 100.745 21.5045Z" fill="#59271C"/>
<path d="M101.33 54.4812C101.292 55.0967 101.248 55.7067 101.203 56.3185C101.192 56.4765 101.179 56.6327 101.166 56.7871C99.7537 58.4587 98.11 59.9154 96.2859 61.1122C91.6179 64.2246 85.2299 66.2787 77.8065 67.0486C71.146 67.7394 65.7515 71.5023 61.7737 78.2343C61.434 78.8093 61.1198 79.3826 60.8274 79.9448H59.3961C59.7757 79.1713 60.2044 78.3776 60.6766 77.5728C64.8161 70.5744 70.6937 66.4919 77.6757 65.768C84.8067 65.0183 95.9154 62.5471 101.33 54.4812Z" fill="#59271C"/>
<path d="M74.2918 57.4005C61.9044 60.1566 51.0009 62.5855 43.9081 79.9375H42.5404C49.9365 61.5033 61.6737 58.8888 74.0175 56.1419C75.8775 55.7267 77.801 55.3004 79.7099 54.8172C89.4419 52.3552 97.2013 44.0522 101.717 38.0532C101.726 38.5879 101.731 39.1281 101.737 39.6664C101.737 39.8263 101.737 39.9861 101.737 40.1441C101.13 40.9158 100.474 41.7114 99.7786 42.5161C95.4539 47.5119 88.5174 53.9187 80.0169 56.0666C78.0916 56.5553 76.1608 56.9853 74.2918 57.4005Z" fill="#59271C"/>
<path d="M75.8739 3.22656C70.8971 7.23932 64.8687 9.85203 58.5206 12.6062C49.012 16.7292 39.1784 20.9918 30.8541 30.5129C23.1855 39.2826 15.2154 43.1373 9.88086 44.8295C8.87824 45.1474 7.93192 45.4027 7.04918 45.6067C7.04918 45.2613 7.03647 44.914 7.03284 44.5686C7.03284 44.4749 7.03284 44.3848 7.03284 44.2875C7.82839 44.1037 8.67662 43.8649 9.57571 43.5783C14.7396 41.9247 22.4572 38.1801 29.9187 29.6586C38.4337 19.9206 48.8486 15.4063 58.0374 11.4211C63.7444 8.9462 69.1915 6.58522 73.7796 3.22656H75.8739Z" fill="#59271C"/>
<path d="M100.055 66.9932C100.055 67.0501 100.038 67.1071 100.031 67.164C99.9748 67.5499 99.9185 67.9339 99.8495 68.3142C98.5752 68.4596 97.3171 68.7247 96.0915 69.1062C92.3353 70.2711 87.077 73.1006 82.5234 79.9375H80.9995C85.88 72.2352 91.6796 69.1098 95.79 67.8512C97.18 67.4231 98.6086 67.1356 100.055 66.9932Z" fill="#59271C"/>
<path d="M22.3373 66.1685C21.2475 67.1111 19.8889 67.8221 18.4576 68.0059C16.7557 68.208 14.9466 67.6384 13.321 65.7606C11.363 63.4934 11.8389 60.2836 13.4027 58.6079C14.1565 57.7977 15.299 57.2262 16.6122 57.489C17.2821 57.6341 17.9087 57.9369 18.4412 58.3727C18.558 58.4639 18.64 58.5932 18.6731 58.7386C18.7062 58.884 18.6885 59.0365 18.6229 59.1701C18.6039 59.2078 18.5814 59.2435 18.5557 59.2767C18.452 59.4115 18.2997 59.4993 18.1321 59.5206C17.9646 59.542 17.7955 59.4952 17.662 59.3906C17.3474 59.1341 16.9883 58.9391 16.6031 58.8155C15.7767 58.5601 14.9829 58.7825 14.3309 59.4843C13.7988 60.0759 13.4557 60.8162 13.3464 61.6083C13.3464 61.6524 13.3337 61.6928 13.3319 61.7351C13.2928 62.0597 13.2928 62.3879 13.3319 62.7125V62.775C13.4308 63.5644 13.7617 64.3056 14.2818 64.9026C15.7004 66.5452 17.188 66.8759 18.4594 66.6811C19.8689 66.4698 21.015 65.6136 21.509 65.1892C24.5242 62.5931 26.0826 57.5037 23.507 54.349C22.2011 52.7542 20.056 51.8318 17.6802 51.6904C16.0339 51.5998 14.3873 51.8628 12.8487 52.462C10.7983 53.2857 8.97728 54.6025 7.54321 56.2984C7.53232 56.1551 7.52324 56.0118 7.51416 55.8648C7.48146 55.4312 7.45119 54.9945 7.42334 54.5548C8.83834 53.1236 10.5293 52.0023 12.391 51.2604C14.0638 50.6105 15.8523 50.3208 17.6421 50.4098C20.412 50.5531 22.9421 51.6389 24.4896 53.5332C27.5883 57.3126 25.8773 63.1222 22.3373 66.1685Z" fill="#59271C"/>
<g style="mix-blend-mode:screen" opacity="0.43">
<g style="mix-blend-mode:screen" opacity="0.43">
<path d="M9.07259 16.9737C8.89096 16.9737 8.72748 16.9608 8.55493 16.9535C8.60942 16.5407 8.66694 16.131 8.72749 15.7243C8.72648 15.7157 8.72648 15.7071 8.72749 15.6986L9.11255 15.7151C17.3987 15.987 25.218 11.0096 33.3334 5.84848C34.7138 4.96838 36.0997 4.08645 37.5001 3.22656H39.983C37.9742 4.4135 35.9871 5.68129 34.0109 6.9362C26.0081 12.0349 17.8237 17.242 9.07259 16.9737Z" fill="#59271C"/>
</g>
<g style="mix-blend-mode:screen" opacity="0.43">
<path d="M54.6663 3.22656C50.1981 5.5214 45.7408 8.75144 42.3497 13.2841C36.4139 21.2178 26.4005 27.3269 14.8758 30.0425C12.363 30.6345 9.81472 31.0605 7.24719 31.3176C7.24719 31.2699 7.24719 31.2202 7.25627 31.1725C7.27444 30.805 7.29442 30.4247 7.3144 30.0535C21.7961 28.5102 34.5758 21.532 41.329 12.507C44.3168 8.51075 48.0912 5.49384 51.9854 3.22656H54.6663Z" fill="#59271C"/>
</g>
<g style="mix-blend-mode:screen" opacity="0.43">
<path d="M67.9547 30.0627C67.9547 29.9855 67.9547 29.9084 67.9547 29.8294C67.9547 29.6934 67.9547 29.5556 67.9674 29.4141C68.0219 28.3485 68.2907 27.077 68.8647 25.5557C71.2895 19.2022 77.0527 12.5823 85.9946 5.87785C87.266 4.92427 88.5175 4.0405 89.7035 3.22656H92.0321C84.6014 8.12122 73.6435 16.6079 70.0544 26.0206C68.8556 29.1679 68.9646 31.5142 70.3723 32.8022C71.0752 33.4471 72.0923 33.8127 73.2911 33.9046C75.1329 34.0442 77.3997 33.5371 79.6138 32.409C83.2356 30.5588 86.9318 26.8069 86.4596 21.8112C86.2125 20.7566 85.6549 20.2182 84.7576 20.1576C84.4772 20.1449 84.1962 20.1696 83.9221 20.2311C81.9423 20.6482 79.4648 22.7134 78.7692 24.7069C78.7227 24.8429 78.6324 24.9592 78.5128 25.0372C78.3932 25.1152 78.2512 25.1504 78.1095 25.137C77.9678 25.1237 77.8346 25.0626 77.7313 24.9637C77.6279 24.8647 77.5604 24.7335 77.5395 24.5911C77.5214 24.4864 77.5308 24.3786 77.5668 24.2787C78.4495 21.7524 81.4665 19.3051 83.9621 18.9193C84.2491 18.8727 84.54 18.8567 84.8303 18.8715C86.3161 18.9597 87.3405 19.9151 87.711 21.5558L87.7237 21.6348C88.2813 27.3012 84.1964 31.5068 80.1859 33.5555C77.7865 34.7791 75.3508 35.3285 73.2947 35.1907C71.7672 35.0915 70.4504 34.6138 69.5113 33.7521C68.7666 33.0722 68.0582 31.9846 67.9674 30.2722C67.962 30.206 67.9565 30.1362 67.9547 30.0627Z" fill="#59271C"/>
</g>
<g style="mix-blend-mode:screen" opacity="0.43">
<path d="M100.939 23.4007C90.7988 40.3042 75.2909 44.3611 62.4203 47.7326C52.5358 50.3214 44.0026 52.5556 40.2919 59.8205C36.3733 67.4722 31.0505 74.2995 24.6078 79.9375H22.5898C29.4417 74.2428 35.0759 67.1969 39.1494 59.2288C43.1254 51.4532 51.9146 49.151 62.0916 46.485C75.0874 43.0804 90.8278 38.9519 100.712 21.2124C100.723 21.3079 100.734 21.4053 100.745 21.5045C100.81 22.1292 100.875 22.7613 100.939 23.4007Z" fill="#59271C"/>
</g>
<g style="mix-blend-mode:screen" opacity="0.43">
<path d="M101.203 56.311C101.192 56.469 101.179 56.6252 101.166 56.7795C101.128 57.2903 101.086 57.7919 101.045 58.2935C99.9728 59.3386 98.8065 60.2798 97.561 61.1047C92.893 64.2171 86.5031 66.2713 79.0815 67.0412C72.4192 67.732 67.0265 71.4949 63.0469 78.2269C62.7073 78.802 62.393 79.3753 62.1024 79.9375H60.6711C61.0508 79.164 61.4776 78.3702 61.9517 77.5655C66.0893 70.567 71.9669 66.4844 78.9489 65.7605C85.5096 65.0789 95.4377 62.9328 101.203 56.311Z" fill="#59271C"/>
</g>
<g style="mix-blend-mode:screen" opacity="0.43">
<path d="M101.744 41.4691V41.7024C101.521 41.9725 101.29 42.2408 101.057 42.5108C96.7309 47.5066 89.7961 53.9134 81.2957 56.0612C79.3667 56.5499 77.436 56.9799 75.5651 57.3951C63.1795 60.1511 52.2761 62.5801 45.1833 79.9319H43.8156C51.2117 61.4979 62.9489 58.8833 75.2927 56.1365C77.1526 55.7213 79.0743 55.295 80.9851 54.8118C89.8706 52.5629 97.1105 45.4414 101.737 39.6611C101.737 39.821 101.737 39.9808 101.737 40.1388C101.742 40.5859 101.744 41.0293 101.744 41.4691Z" fill="#59271C"/>
</g>
<g style="mix-blend-mode:screen" opacity="0.43">
<path d="M77.1453 3.22656C72.1704 7.23931 66.142 9.85202 59.792 12.6062C50.2853 16.7292 40.4517 20.9918 32.1274 30.5129C24.4588 39.2825 16.4887 43.1372 11.1542 44.8294C9.80836 45.2568 8.43967 45.6064 7.05468 45.8767V45.6066C7.05468 45.2612 7.04196 44.9139 7.03833 44.5685C8.32675 44.3094 9.60011 43.9788 10.8526 43.5782C16.0165 41.9246 23.7341 38.1801 31.1847 29.6585C39.7015 19.9206 50.1164 15.4063 59.3034 11.4211C65.0122 8.94619 70.4576 6.58522 75.0475 3.22656H77.1453Z" fill="#59271C"/>
</g>
<g style="mix-blend-mode:screen" opacity="0.43">
<path d="M100.031 67.1641C99.9749 67.5499 99.9185 67.9339 99.8495 68.3143C99.8386 68.3786 99.8295 68.4447 99.8205 68.509C98.991 68.6559 98.1714 68.8553 97.3666 69.1062C93.6104 70.2711 88.3503 73.1006 83.7986 79.9375H82.2728C87.1551 72.2352 92.9547 69.1098 97.0651 67.8512C98.0366 67.5522 99.0278 67.3226 100.031 67.1641Z" fill="#59271C"/>
</g>
<g style="mix-blend-mode:screen" opacity="0.43">
<path d="M23.6106 66.1685C22.1939 67.3884 20.3412 68.2299 18.4577 68.0058C17.1499 67.8478 15.8204 67.1735 14.5962 65.7605C13.8704 64.9296 13.4251 63.8864 13.3247 62.7822V62.7198C13.2966 62.3946 13.2966 62.0675 13.3247 61.7423C13.3247 61.7 13.3247 61.6559 13.3393 61.6155C13.4571 60.4953 13.924 59.442 14.6724 58.6078C15.1872 58.0413 15.8631 57.6503 16.6069 57.4888C17.515 57.3051 18.5957 57.5036 19.711 58.38C19.7786 58.4314 19.8353 58.4959 19.878 58.5698C19.9207 58.6437 19.9484 58.7254 19.9596 58.8102C19.9707 58.895 19.9651 58.9813 19.943 59.0638C19.9209 59.1464 19.8828 59.2237 19.8308 59.2913C19.7789 59.3588 19.7142 59.4152 19.6405 59.4572C19.5668 59.4992 19.4856 59.5259 19.4015 59.5358C19.3175 59.5457 19.2324 59.5387 19.1511 59.515C19.0698 59.4913 18.994 59.4515 18.9281 59.3978C18.8278 59.319 18.7235 59.2454 18.6157 59.1774C17.9219 58.7272 17.2262 58.6096 16.596 58.8228C16.2129 58.9577 15.8695 59.1877 15.597 59.4916C14.9422 60.2361 14.5768 61.1956 14.5684 62.1921C14.5601 63.1885 14.9094 64.1542 15.5516 64.9099C16.5179 66.027 17.515 66.5396 18.4577 66.6884C20.4284 67.0044 22.1449 65.744 22.7824 65.1965C25.7957 62.6003 27.3559 57.5109 24.7804 54.3562C23.2437 52.4803 20.5483 51.5359 17.6785 51.6976C16.46 51.7661 15.2595 52.0264 14.1203 52.4693C12.5037 53.0958 9.8864 54.5491 7.6632 57.8086C7.62143 57.3125 7.57966 56.8109 7.54151 56.3056C7.53062 56.1623 7.52153 56.019 7.51245 55.872C9.71022 53.1638 12.115 51.8666 13.6644 51.2676C14.937 50.7736 16.279 50.4865 17.6403 50.4169C20.8952 50.2479 23.9812 51.3595 25.7612 53.5404C28.8635 57.3125 27.1525 63.1221 23.6106 66.1685Z" fill="#59271C"/>
</g>
</g>
<g style="mix-blend-mode:screen" opacity="0.72">
<path d="M102.165 40.1442C102.165 39.9862 102.165 39.8264 102.165 39.6665C102.165 39.1282 102.154 38.588 102.145 38.0533C102.064 32.9088 101.782 27.9957 101.359 23.4006C101.301 22.7612 101.24 22.1291 101.177 21.5044C101.166 21.4052 101.156 21.3078 101.145 21.2123C101.072 20.5435 100.997 19.882 100.919 19.2279C100.178 13.0655 99.1394 7.62515 97.8825 3.22656H11.7245C10.7128 6.76528 9.84275 10.9765 9.15618 15.6984C9.15517 15.707 9.15517 15.7156 9.15618 15.7241C9.09563 16.1296 9.03509 16.5393 8.97454 16.9533C8.97366 16.9631 8.97366 16.9729 8.97454 16.9827C8.42964 20.9808 8.0137 25.3206 7.75215 29.9029C7.75215 29.9525 7.75215 30.0021 7.75215 30.0536C7.73217 30.421 7.71219 30.7995 7.69403 31.1725C7.69403 31.2203 7.69403 31.2699 7.69403 31.3176C7.53056 34.5955 7.44519 37.9927 7.44519 41.4745C7.44519 41.8419 7.44519 42.2094 7.44519 42.5916C7.46335 39.5471 7.54327 36.5669 7.68676 33.6805C7.68676 33.6327 7.68676 33.5849 7.68676 33.5371C7.70492 33.1623 7.7243 32.7894 7.74489 32.4182C7.74489 32.3649 7.74489 32.3172 7.74489 32.2676C8.00644 27.6742 8.42056 23.3454 8.96728 19.3455C8.96661 19.3357 8.96661 19.3259 8.96728 19.3162C9.02177 18.9034 9.08232 18.4936 9.14892 18.087C9.14804 18.0784 9.14804 18.0698 9.14892 18.0612C9.83549 13.3411 10.7055 9.12809 11.7172 5.58938H20.5864C19.5329 10.1019 19.0153 21.2068 19.0153 21.2068C19.2804 16.5601 22.3791 8.66692 23.6578 5.58938H85.6276C86.5267 8.03488 89.6617 16.878 90.0413 22.2743V5.58938H97.8752C99.1321 9.98797 100.171 15.4283 100.912 21.5926C100.99 22.2455 101.065 22.9063 101.137 23.5751C101.148 23.6725 101.159 23.768 101.17 23.8672C101.235 24.4919 101.296 25.1246 101.352 25.7652C101.784 30.3586 102.056 35.2808 102.138 40.418C102.138 40.9527 102.153 41.491 102.158 42.0312C102.158 42.1892 102.158 42.349 102.158 42.5089V42.5475C102.158 42.2682 102.158 41.9963 102.158 41.7078V41.4689C102.165 41.028 102.168 40.5864 102.165 40.1442Z" fill="#A46532"/>
</g>
<path d="M93.6558 72.8049C93.5431 73.4461 93.4741 73.8357 93.4632 73.9073C93.4623 73.9116 93.4623 73.9159 93.4632 73.9202H15.5006C15.5006 73.9202 9.12887 37.39 9.34138 36.9601C9.55389 36.5301 17.6257 7.95203 17.6257 5.80234C17.6257 3.65264 20.8116 0 20.8116 0L21.8741 3.22453C21.8741 3.22453 14.6505 31.1522 20.174 68.9777H88.7862C94.3096 31.1577 87.0879 3.22453 87.0879 3.22453L88.9987 0C88.9987 0 91.3363 3.65448 91.3363 5.80234C91.3363 7.9502 99.4081 36.5301 99.6206 36.9601C99.8113 37.3459 94.7219 66.6718 93.6558 72.8049Z" fill="#1E2625"/>
<path opacity="0.56" d="M95.1597 73.9219L93.4632 73.909L16.7756 73.277L20.2739 68.9797H88.5065L93.6558 72.8049L95.1597 73.9219Z" fill="#141516"/>
<path d="M106.476 50.5105C106.453 51.1095 106.427 51.706 106.399 52.3001L106.63 52.4342L106.31 54.0584L105.994 55.6569L105.669 58.7804L105.569 59.745L105.751 61.5456L105.891 62.8868L105.989 63.8257L105.564 68.1232L104.781 69.764C104.781 69.832 104.763 69.8963 104.754 69.9606C104.191 73.8105 102.279 77.3274 99.3658 79.8696C96.4529 82.4119 92.7334 83.8099 88.8862 83.8086C88.8862 83.7829 88.9007 83.7535 88.9098 83.7278L88.7808 83.8086H20.8116C16.9669 83.8064 13.2509 82.4067 10.341 79.8648C7.43104 77.3229 5.52089 73.808 4.95863 69.9606C4.94955 69.8963 4.93865 69.832 4.93139 69.764L4.14854 68.1232L3.72534 63.8257L3.8216 62.8868L3.96328 61.5456L4.14491 59.745L4.04502 58.7804L3.72171 55.6569L3.40385 54.0584L3.08417 52.4342L3.31484 52.3001C3.30213 52.0336 3.29123 51.7636 3.28033 51.4935C3.26762 51.2657 3.26036 51.0396 3.25128 50.8118C3.25128 50.6795 3.23856 50.5473 3.23492 50.4131C3.23492 50.3782 3.23492 50.3433 3.23492 50.3084C3.22039 49.9042 3.20647 49.4981 3.19315 49.0902L3.16046 48.0374C3.13261 47.0575 3.11142 46.0648 3.09689 45.0591C3.08478 44.1576 3.07812 43.2493 3.0769 42.3343C3.0769 42.1506 3.0769 41.9669 3.0769 41.7831C3.0769 41.4157 3.0769 41.0703 3.0769 40.7175C3.0769 40.4345 3.0769 40.1552 3.0769 39.876C3.0769 39.4571 3.07691 39.04 3.08962 38.6229L3.10052 37.9854C3.1096 37.515 3.11686 37.0465 3.12776 36.5798C3.13866 36.1131 3.15138 35.6483 3.16409 35.1834C3.17317 34.8876 3.18044 34.5918 3.19133 34.2978C3.19133 34.1784 3.20042 34.0571 3.20405 33.9303L3.23674 33.0319V32.8794C3.23674 32.7691 3.24583 32.6607 3.24946 32.5523L3.2876 31.6649C3.30395 31.3673 3.31666 31.0696 3.33119 30.7738C3.33119 30.7536 3.33119 30.737 3.33119 30.7168C3.35117 30.3788 3.3657 30.0389 3.38387 29.7008C3.41474 29.1753 3.44381 28.6535 3.4765 28.1335C3.49466 27.8432 3.51464 27.5529 3.53281 27.2645L3.65269 27.0587L3.85611 26.7059L4.13764 22.2669L4.08679 22.1199L4.03412 21.9619L3.97236 21.7782C3.99416 21.5632 4.01232 21.3482 4.03412 21.1351C4.06136 20.8521 4.09224 20.5692 4.1213 20.2863C4.13583 20.1448 4.15036 20.0015 4.16671 19.86C4.25631 19.016 4.35016 18.1837 4.44824 17.3631L4.52453 16.7494L4.77336 16.3433L4.91867 16.1081L5.13482 14.1404L5.42361 11.5258C5.42289 11.5197 5.42289 11.5136 5.42361 11.5075C5.45268 11.4082 5.48174 11.309 5.51443 11.2098C5.54713 11.1106 5.57982 11.0022 5.61615 10.8993C5.68517 10.6935 5.75964 10.4877 5.83956 10.2838C5.91948 10.0798 6.00121 9.8814 6.08476 9.68297L6.15197 9.53413C6.17376 9.48453 6.19556 9.43493 6.21917 9.38716C6.24278 9.33939 6.26458 9.28977 6.28456 9.242C6.30454 9.19423 6.33178 9.14646 6.35358 9.09869L6.49525 8.80839C6.58062 8.6412 6.67689 8.47584 6.75862 8.31048C6.84036 8.14512 6.94025 7.98527 7.03834 7.82542C7.23087 7.50572 7.43248 7.19154 7.64499 6.88654L7.82663 6.62563L8.00826 6.37024C8.10453 6.24346 8.20079 6.11854 8.30069 5.9936C8.40059 5.86866 8.50049 5.7474 8.60584 5.62613C8.71118 5.50487 8.8129 5.3891 8.92006 5.26968C9.02723 5.15025 9.13439 5.03633 9.24519 4.92242C9.31603 4.84708 9.3905 4.77176 9.46497 4.69643L9.69201 4.47228C9.76648 4.40062 9.84276 4.32896 9.92268 4.2573C10.0026 4.18564 10.0771 4.11398 10.1552 4.046L10.3931 3.83656C10.4876 3.75756 10.5747 3.67855 10.6765 3.60138C10.7437 3.54442 10.8145 3.4893 10.8817 3.43418C11.0761 3.28168 11.2704 3.13652 11.4702 2.99321L11.492 2.97668C11.5556 2.93075 11.621 2.88481 11.6882 2.84072C11.7554 2.79662 11.8317 2.74149 11.9061 2.69188C11.9806 2.64227 12.0187 2.61655 12.0769 2.57981C12.135 2.54306 12.1858 2.50632 12.2421 2.47325C12.3366 2.41262 12.4238 2.35199 12.5309 2.28952C12.6381 2.22705 12.7126 2.18479 12.7925 2.13519C13.2121 1.89266 13.6444 1.6685 14.0857 1.46455C14.1911 1.41494 14.2982 1.36901 14.4072 1.32123C14.5162 1.27346 14.6324 1.22385 14.7469 1.17976C14.8613 1.13566 14.9594 1.09341 15.0647 1.05299C15.1701 1.01257 15.2863 0.968464 15.3971 0.92988H15.4135C15.5188 0.891296 15.626 0.854554 15.7331 0.819644C15.8403 0.784735 15.9257 0.757175 16.0201 0.727777L16.2435 0.659797L16.4524 0.600989C16.5287 0.577104 16.6068 0.556899 16.6831 0.538526C16.8429 0.49443 17.0046 0.454002 17.1662 0.417255C17.2643 0.39337 17.3606 0.373164 17.4605 0.352953L17.7239 0.299685C17.8474 0.2758 17.9709 0.253732 18.0962 0.233521L18.2978 0.200462L18.523 0.165541L18.8336 0.125124L18.9662 0.110434L19.1933 0.0883867C19.2532 0.0883867 19.3113 0.0755091 19.3749 0.0718344L19.4766 0.0626612C19.5602 0.0626612 19.6419 0.0498061 19.7273 0.0461314C19.8126 0.0424567 19.8998 0.035093 19.987 0.0314183C20.0742 0.0277437 20.1287 0.0314183 20.1995 0.0314183H20.2467H20.4429C20.5374 0.0314183 20.6245 0.0314183 20.7263 0.0314183C20.7212 0.045234 20.7169 0.0593421 20.7135 0.0736736C20.7082 0.0899109 20.704 0.106486 20.7008 0.123285C20.6409 0.336417 20.5809 0.547711 20.5192 0.766354C20.4829 0.893131 20.4502 1.01808 20.4157 1.1467L20.3121 1.53253C20.2631 1.71627 20.2122 1.91286 20.1632 2.10578C20.1142 2.2987 20.0669 2.49163 20.0179 2.68823C19.9816 2.8297 19.9489 2.97117 19.9144 3.11632L19.8817 3.24492C19.7799 3.67119 19.6782 4.10665 19.5783 4.54577C19.5002 4.89671 19.4239 5.24946 19.3477 5.60774C19.2914 5.86129 19.2387 6.11669 19.186 6.37576L18.5285 7.12355L18.3469 7.32751L18.4504 8.33437L18.4758 8.56953L18.5757 9.53965C18.5194 9.86854 18.4613 10.1993 18.4068 10.5355C18.402 10.5555 18.3983 10.5757 18.3959 10.5961C18.3559 10.8368 18.3178 11.0775 18.2778 11.32C18.1471 12.1083 18.0235 12.9149 17.9146 13.7325C17.9146 13.7655 17.9037 13.7986 17.9 13.8317C17.8801 13.9566 17.8619 14.0852 17.8474 14.212C17.8456 14.2211 17.8456 14.2305 17.8474 14.2396C17.8038 14.5446 17.7602 14.8496 17.7202 15.1583C17.7142 15.1855 17.71 15.2131 17.7075 15.2409C17.6893 15.3677 17.6712 15.5 17.6567 15.6286C17.5858 16.1541 17.5186 16.6888 17.4532 17.2253C17.4042 17.6093 17.3588 17.9988 17.3152 18.3901C17.297 18.5408 17.2807 18.6896 17.2643 18.8403L16.9683 19.1967L16.6613 19.5642L16.8811 20.6831L17.0046 21.3041C16.9792 21.5724 16.9519 21.8425 16.9283 22.1126C16.9047 22.3827 16.8774 22.6638 16.8538 22.9265C16.7073 24.5617 16.5796 26.2343 16.4706 27.9443C16.4706 28.0343 16.4615 28.128 16.4542 28.2144L16.2254 28.3816L14.9412 29.3003L14.7505 29.4399L14.7832 29.7449L14.8159 30.0499L14.9539 31.3581L15.9693 40.8608L16.0365 41.4726L16.0456 41.5719V41.785C16.0456 41.9448 16.0456 42.1065 16.0456 42.2682C16.0456 42.4758 16.0456 42.6853 16.0456 42.8929C16.0456 43.6168 16.0516 44.3383 16.0637 45.0573C16.0855 46.5272 16.1212 47.9823 16.1709 49.4228C16.1818 49.7535 16.1909 50.0824 16.2072 50.4113C16.2072 50.4609 16.2072 50.5087 16.2072 50.5564C16.2072 50.6483 16.2072 50.7402 16.2181 50.8357C16.229 51.1058 16.2417 51.374 16.2544 51.6423C16.2535 51.6594 16.2535 51.6766 16.2544 51.6937C16.2544 51.7489 16.2544 51.8003 16.2544 51.8518C16.2672 52.1439 16.2835 52.436 16.298 52.7263C16.3126 53.0166 16.3271 53.3326 16.3434 53.6303C16.3598 53.9279 16.3761 54.2329 16.3925 54.5288L15.833 55.3096L15.5842 55.655L15.8585 57.4152L15.9021 57.6908L16.0619 58.7142L16.1109 59.0266L16.2217 59.7376L16.8756 61.0531C16.9519 61.8861 17.0324 62.708 17.1172 63.5189C17.2189 64.4908 17.3261 65.4426 17.4405 66.3833C17.455 66.4935 17.4678 66.6038 17.4805 66.7122C17.5277 67.0796 17.5767 67.46 17.6258 67.8293C17.6258 67.8972 17.6421 67.9634 17.6512 68.0295C17.762 68.8692 17.8782 69.696 18.0018 70.5044C18.0526 70.8523 18.1041 71.1947 18.1561 71.5315C18.1561 71.5315 18.1561 71.548 18.1561 71.5536H25.0201L26.9327 70.9086L27.9934 71.3386L28.3131 71.5536H31.6461L32.2818 71.3386H33.9819L34.8319 71.5536H38.372L40.1611 71.1659L40.3554 71.1236L43.6902 71.1548L47.0977 71.1842L48.3201 71.1953L48.3564 71.2063L48.5544 71.2596L49.6224 71.5536H55.253L57.9775 71.3386L59.249 71.5536H67.8639L68.6104 71.4746L69.8818 71.3386H70.9444L71.4747 71.5536H74.5625L75.834 71.1236C75.834 71.1236 76.2317 71.3257 76.7022 71.5536H80.9324L81.3574 71.1236H84.3308L85.3243 71.5536H91.5271C91.5416 71.4525 91.558 71.3514 91.5725 71.2485C91.5816 71.2008 91.5889 71.1512 91.5961 71.1034C91.6034 71.0556 91.6161 70.9785 91.6234 70.9197C91.6561 70.7139 91.6869 70.5063 91.7178 70.2987C91.7578 70.0341 91.7959 69.7695 91.8341 69.5031C92.0762 67.7784 92.2984 65.9956 92.5007 64.1546C92.517 64.0296 92.5297 63.9047 92.5424 63.7871C92.5642 63.5868 92.5842 63.3902 92.606 63.19C92.6351 62.9125 92.6623 62.6388 92.6914 62.354C92.7041 62.2125 92.7186 62.0729 92.7313 61.9296C92.7313 61.8616 92.744 61.7936 92.7513 61.7238C92.7713 61.507 92.7931 61.2902 92.8113 61.0715L93.4651 59.756L94.1027 55.6734L93.8538 55.328L93.2944 54.5471C93.3107 54.2513 93.3271 53.95 93.3434 53.6487C93.3598 53.3474 93.3761 53.0479 93.3888 52.7447C93.4125 52.3111 93.4324 51.8738 93.4506 51.4365C93.4506 51.2418 93.4688 51.047 93.476 50.8541C93.4887 50.4995 93.5033 50.1449 93.5142 49.7866C93.5287 49.4357 93.5396 49.081 93.5505 48.7228C93.5505 48.5151 93.5632 48.3075 93.5705 48.0962C93.5814 47.7288 93.5886 47.3613 93.5977 46.9828C93.6123 46.3508 93.6244 45.7157 93.6341 45.0775C93.6486 43.9935 93.6564 42.9027 93.6577 41.8052V41.5921L94.7184 31.652L94.7547 31.314L94.8891 30.0554L94.9527 29.4601L94.7711 29.3205L94.1771 28.8924L93.5814 28.4624L93.2563 28.2254C93.2145 27.5511 93.1691 26.8805 93.1218 26.2172C93.0347 25.0266 92.9402 23.8562 92.8349 22.7042C92.8022 22.3233 92.7671 21.9448 92.7295 21.5687V21.5577C92.7204 21.4769 92.715 21.3979 92.7059 21.3152L92.8294 20.6942L93.0492 19.5752L92.7422 19.2077L92.4462 18.8513L92.4334 18.7484L92.3953 18.403C92.0321 15.2795 91.607 12.3159 91.1239 9.54885L91.2492 8.34354L91.3527 7.33668L91.1711 7.13274L90.5136 6.38495C90.4609 6.12589 90.4082 5.87049 90.3519 5.61694C90.2757 5.24947 90.1975 4.90222 90.1194 4.54945C90.0613 4.29774 90.005 4.04601 89.9378 3.7998C89.896 3.61607 89.8506 3.43234 89.8088 3.2486L89.7761 3.12184C89.6466 2.57921 89.514 2.05067 89.3784 1.53621L89.2748 1.15037C89.2403 1.02176 89.2076 0.896809 89.1713 0.770033C89.1077 0.534853 89.0424 0.305182 88.977 0.0773518C88.9742 0.0648647 88.9705 0.0525958 88.9661 0.040614H89.006C89.155 0.040614 89.3003 0.040614 89.4456 0.040614H89.4928C89.5636 0.040614 89.6327 0.040614 89.7053 0.040614C89.778 0.040614 89.8779 0.0406059 89.9651 0.0553047C90.0522 0.0700034 90.1322 0.0663224 90.2157 0.0718344L90.4954 0.0975599L90.7225 0.119607L90.8551 0.13432L91.1656 0.174736L91.3909 0.209635C91.4581 0.218822 91.5289 0.229856 91.5961 0.242717C92.2986 0.352717 92.9929 0.511089 93.674 0.716743C93.7685 0.74614 93.8557 0.775537 93.961 0.808609C94.0663 0.841682 94.1753 0.880284 94.2807 0.918868C94.6203 1.03829 94.9564 1.1724 95.2887 1.31572C95.3959 1.36349 95.5031 1.40943 95.6084 1.45903C96.0498 1.66298 96.4821 1.88714 96.9017 2.12967C96.9888 2.17928 97.0833 2.23072 97.1632 2.284C97.2431 2.33728 97.3575 2.40343 97.452 2.46773C97.5083 2.5008 97.5628 2.53757 97.6173 2.57431C97.6718 2.61106 97.7335 2.6478 97.788 2.68639C97.9352 2.78193 98.0804 2.88299 98.2239 2.98771C98.4237 3.13103 98.6181 3.27616 98.8124 3.42866C98.8796 3.48378 98.9505 3.5389 99.0177 3.59586C99.1139 3.67303 99.1993 3.75204 99.301 3.83105L99.539 4.04051C99.6171 4.10849 99.6952 4.18013 99.7715 4.25178C99.9277 4.39142 100.08 4.54025 100.229 4.69091C100.304 4.76624 100.378 4.84159 100.449 4.91692C100.52 4.99225 100.631 5.10065 100.723 5.20721C100.741 5.22527 100.758 5.24427 100.774 5.26416C100.987 5.49934 101.194 5.74188 101.393 5.98808C101.493 6.11118 101.59 6.23795 101.686 6.36472L101.868 6.62012L102.049 6.88103C102.154 7.03353 102.26 7.18787 102.36 7.34404C102.4 7.40467 102.44 7.46714 102.478 7.52777C102.543 7.62883 102.605 7.73171 102.659 7.83643C102.714 7.94116 102.816 8.10102 102.89 8.23515C102.91 8.27189 102.93 8.30496 102.948 8.3417C103.032 8.49236 103.112 8.6467 103.192 8.80104C103.241 8.89842 103.286 8.99581 103.333 9.09135C103.379 9.18689 103.426 9.27508 103.468 9.3798C103.509 9.48453 103.557 9.5764 103.602 9.67561C103.686 9.87405 103.769 10.0743 103.847 10.2764C103.925 10.4785 104.002 10.6861 104.071 10.8919C104.107 10.9948 104.142 11.0996 104.172 11.2025C104.203 11.3053 104.234 11.4009 104.265 11.5001V11.5185L104.554 14.133L104.77 16.11L104.915 16.3452L105.164 16.7512L105.24 17.3649C105.339 18.1868 105.432 19.0191 105.522 19.8618C105.538 20.0033 105.553 20.1466 105.567 20.2881C105.596 20.571 105.627 20.854 105.655 21.1369C105.676 21.3501 105.695 21.565 105.716 21.78L105.655 21.9637L105.602 22.1218L105.551 22.2706L105.833 26.7096L106.036 27.0624L106.156 27.2681C106.174 27.5566 106.194 27.8469 106.214 28.1372C106.245 28.6572 106.274 29.179 106.305 29.7045L106.359 30.7775C106.374 31.0696 106.387 31.3617 106.403 31.6557V31.6686C106.441 32.5358 106.474 33.4122 106.505 34.2923C106.516 34.5863 106.523 34.8821 106.532 35.1779C106.56 36.1051 106.581 37.0391 106.595 37.9798L106.606 38.6174C106.621 39.6635 106.628 40.7169 106.628 41.7776C106.628 41.9614 106.628 42.1451 106.628 42.3288C106.628 43.2414 106.621 44.1496 106.608 45.0536C106.608 45.5534 106.59 46.0531 106.579 46.5492C106.568 47.0453 106.559 47.5377 106.545 48.0301C106.523 48.8287 106.496 49.6212 106.465 50.4076C106.479 50.4462 106.477 50.4719 106.476 50.5105Z" fill="#293231"/>
<path d="M13.3011 27.6155C13.6643 24.492 14.0894 21.5266 14.5725 18.7614L14.449 17.5562C14.0131 20.1119 13.6262 22.8256 13.2993 25.6808C13.2811 25.8315 13.2647 25.9821 13.2484 26.1328L12.6436 26.8677L12.9523 28.4294L13.2484 28.062C13.2666 27.915 13.2829 27.7662 13.3011 27.6155Z" fill="#1E2625"/>
<path d="M12.9904 30.5369L12.8669 29.9177C12.701 31.7379 12.5587 33.6033 12.44 35.5141L10.7345 36.747L10.9252 38.542L12.44 37.4396C12.5872 35.0768 12.7706 32.7692 12.9904 30.5369Z" fill="#1E2625"/>
<path d="M14.3455 14.6143L14.5271 16.3433L15.1828 15.5973C15.5352 13.8885 15.9093 12.2698 16.3089 10.754L16.4125 10.3681C16.447 10.2395 16.4797 10.1146 16.516 9.9878C16.5151 9.9848 16.5151 9.9816 16.516 9.9786C16.585 9.73056 16.6522 9.48435 16.723 9.24365C16.6268 9.24365 16.5414 9.24365 16.4397 9.24365H16.2417H16.1963C15.8403 10.6339 15.5019 12.1038 15.181 13.6533L14.3455 14.6143Z" fill="#1E2625"/>
<path d="M12.3021 61.968L11.5883 62.9621L11.8353 64.5515L12.3965 63.7706C12.3584 63.1752 12.3293 62.5707 12.3021 61.968Z" fill="#1E2625"/>
<path d="M96.9161 62.0472L97.4774 62.8281L97.7262 61.2405L97.0106 60.2446C96.9815 60.8528 96.9434 61.4555 96.9161 62.0472Z" fill="#1E2625"/>
<path d="M96.6637 25.1442L96.0606 24.4093C96.0443 24.2586 96.0261 24.1079 96.0098 23.9573V25.892C96.0261 26.0427 96.0443 26.1933 96.0606 26.344L96.3549 26.7004L96.6637 25.1442Z" fill="#1E2625"/>
<path d="M96.4421 28.198L96.3204 28.819C96.5384 31.0514 96.7237 33.359 96.8653 35.7292L98.3802 36.8315L98.5727 35.0346L96.8653 33.8018C96.7503 31.8886 96.6092 30.0206 96.4421 28.198Z" fill="#1E2625"/>
<path d="M93.1145 7.5332H93.0673C92.9074 7.5332 92.7494 7.5332 92.5878 7.5332C92.6568 7.77573 92.7258 8.0201 92.793 8.26814C92.8293 8.39492 92.8638 8.51801 92.8984 8.64847L94.128 13.8757L94.7837 14.6235L94.9653 12.8946L94.1317 11.941C93.8108 10.3952 93.4717 8.92592 93.1145 7.5332Z" fill="#1E2625"/>
<path d="M103.689 59.0156L103.566 59.644L103.25 61.2443L102.825 65.3269L102.925 66.2952L103.25 63.1717L103.566 61.5732L103.885 59.949L103.655 59.8149C103.664 59.554 103.678 59.2912 103.689 59.0156Z" fill="#1E2625"/>
<path d="M103.898 48.2322C103.898 49.0406 103.892 49.8448 103.878 50.6447C103.842 53.108 103.767 55.5223 103.655 57.8877L103.735 57.9336C103.804 56.1758 103.852 54.3911 103.878 52.5794C103.892 51.6767 103.898 50.7684 103.898 49.8546C103.898 49.6708 103.898 49.4871 103.898 49.3034C103.902 48.9469 103.9 48.5905 103.898 48.2322Z" fill="#1E2625"/>
<path d="M102.99 29.3095C102.968 29.0946 102.95 28.8814 102.928 28.6683L102.841 27.8176L102.825 27.8654L102.928 29.4951L102.99 29.3095Z" fill="#1E2625"/>
<path d="M6.48975 29.5851L6.4734 29.5374C6.44434 29.8203 6.41346 30.1032 6.38622 30.3861C6.36442 30.5993 6.34444 30.8142 6.32446 31.0292L6.38622 31.2129L6.48975 29.5851Z" fill="#1E2625"/>
<path d="M6.38624 68.0132L6.48615 67.0449L6.06112 62.9659L5.74507 61.3674L5.61975 60.739C5.63246 61.0073 5.64336 61.2774 5.65608 61.5438L5.42358 61.6761L5.74507 63.3021L6.06112 64.9007L6.38624 68.0132Z" fill="#1E2625"/>
<path d="M5.58158 59.6587L5.66331 59.6109C5.5507 57.25 5.48168 54.8339 5.4399 52.37C5.42719 51.5359 5.41992 50.6944 5.41992 49.8511C5.41992 49.8897 5.41992 49.9264 5.41992 49.965C5.41992 50.3196 5.41992 50.6742 5.41992 51.0306C5.41992 51.2144 5.41992 51.3981 5.41992 51.5818C5.41992 52.5005 5.42901 53.4026 5.44172 54.3066C5.4611 56.112 5.50771 57.8961 5.58158 59.6587Z" fill="#1E2625"/>
<path opacity="0.56" d="M96.7436 84.9369L96.453 85.0379L96.6183 85.0544L96.9561 84.9369L97.0669 84.8983L96.8853 84.8855L96.7436 84.9369Z" fill="#141516"/>
<path d="M17.2861 18.8257C17.3025 18.675 17.3188 18.5262 17.337 18.3755C17.7002 15.252 18.1253 12.2883 18.6084 9.52122L18.4849 8.31592C18.049 10.8717 17.6621 13.5873 17.3352 16.4408C17.317 16.5914 17.3006 16.7421 17.2843 16.8927L16.6813 17.6277L16.9882 19.1895L17.2861 18.8257Z" fill="#1E2625"/>
<path d="M16.4796 28.2072C16.6267 25.837 16.812 23.5293 17.0245 21.2969L16.901 20.6777C16.7411 22.4992 16.6007 24.3647 16.4796 26.2743L14.774 27.5072L14.9666 29.3022L16.4796 28.2072Z" fill="#1E2625"/>
<path d="M93.8556 55.3118L94.1026 53.7223L93.3888 52.7283C93.3579 53.3328 93.3288 53.9355 93.2943 54.5308L93.8556 55.3118Z" fill="#1E2625"/>
<path d="M91.1075 9.52122C91.5925 12.2883 92.0157 15.2483 92.379 18.3755C92.3971 18.5262 92.4135 18.675 92.4298 18.8256L92.7259 19.1931L93.0329 17.6314L92.4298 16.8964C92.4135 16.7457 92.3971 16.5951 92.379 16.4444C92.052 13.591 91.6652 10.8754 91.2292 8.31958L91.1075 9.52122Z" fill="#1E2625"/>
<path d="M19.2169 6.35742C19.5692 4.64866 19.9434 3.02993 20.343 1.51409L20.4465 1.12822C20.481 0.999603 20.5137 0.874671 20.55 0.747892C20.6191 0.498008 20.6863 0.253636 20.7571 0.0129395C20.6608 0.0129395 20.5755 0.0129395 20.4738 0.0129395H20.2776H20.2304C19.8744 1.40567 19.5359 2.87558 19.215 4.42265L18.3795 5.37443L18.5612 7.10522L19.2169 6.35742Z" fill="#1E2625"/>
<path d="M92.6914 21.2966C92.9112 23.529 93.0946 25.8367 93.2363 28.2069L94.7511 29.3093L94.9327 27.5143L93.2272 26.2814C93.1061 24.373 92.9638 22.5075 92.8004 20.6848L92.6914 21.2966Z" fill="#1E2625"/>
<path d="M15.8675 55.3118L16.4287 54.5308C16.3942 53.9355 16.3652 53.3328 16.3343 52.7283L15.6205 53.7223L15.8675 55.3118Z" fill="#1E2625"/>
<path d="M89.1676 0.747892C89.204 0.874671 89.2367 0.999603 89.2712 1.12822L89.3747 1.51409C89.7725 3.02993 90.1485 4.64866 90.5008 6.35742L91.1565 7.10522L91.3382 5.37443L90.5026 4.42265C90.183 2.87435 89.8445 1.40445 89.4873 0.0129395H89.4401C89.2821 0.0129395 89.1222 0.0129395 88.9606 0.0129395C89.0314 0.257311 89.0986 0.501683 89.1676 0.747892C89.1676 0.744217 89.1676 0.74238 89.1676 0.747892Z" fill="#1E2625"/>
<path d="M106.434 51.4954L106.31 52.1237L105.994 53.7222L105.569 57.8049L105.669 58.7732L105.994 55.6497L106.31 54.0511L106.63 52.4269L106.399 52.2928C106.412 52.0337 106.423 51.7581 106.434 51.4954Z" fill="#1E2625"/>
<path d="M106.646 41.7867C106.646 41.9705 106.646 42.1542 106.646 42.3379C106.646 43.2505 106.64 44.1588 106.626 45.0627C106.626 45.5625 106.608 46.0622 106.597 46.5583C106.586 47.0544 106.577 47.5468 106.563 48.0392C106.541 48.8379 106.514 49.6304 106.483 50.4167L106.403 50.369C106.515 48.008 106.584 45.5919 106.626 43.128C106.626 42.5639 106.641 41.9962 106.641 41.4248V41.3458C106.641 41.1363 106.641 40.925 106.641 40.7156C106.643 41.0683 106.646 41.4266 106.646 41.7867Z" fill="#1E2625"/>
<path d="M105.569 66.1849L104.786 67.8275C104.786 67.8936 104.768 67.9579 104.759 68.0222C104.261 71.4337 102.701 74.5957 100.305 77.0489C97.909 79.5022 94.8025 81.119 91.4363 81.6645L91.1239 81.4422H88.9988L88.1506 81.8722H78.524L77.1072 81.0123L73.9214 81.4422L73.1949 81.8722H64.4492L63.7226 81.4422L63.2976 81.0123L62.8726 80.7973L61.8119 81.4422L60.4769 81.8722H49.2464L48.6398 81.4422H44.1789L42.6005 81.8722H35.6203L34.407 81.4422L32.0693 81.0123L29.5265 81.4422L27.3777 81.8722H22.0341L21.2367 81.2272H19.9653L19.8599 80.0458L17.4169 80.5823L16.0329 81.1335C13.1561 80.223 10.5914 78.5103 8.6332 76.1921C6.67501 73.874 5.4027 71.0442 4.9623 68.0278C4.95322 67.9634 4.94232 67.8991 4.93506 67.833L4.15221 66.1904L3.82709 62.8832L3.729 63.8239L4.15221 68.1215L4.93506 69.7622C4.93506 69.8302 4.95322 69.8945 4.9623 69.9588C5.52455 73.8062 7.43471 77.3212 10.3446 79.8631C13.2546 82.405 16.9705 83.8046 20.8153 83.8069H88.7863L88.9134 83.726L88.8916 83.8069C92.7382 83.8068 96.4566 82.4079 99.3685 79.8654C102.28 77.3229 104.192 73.8063 104.754 69.957C104.763 69.8927 104.774 69.8283 104.781 69.7604L105.564 68.1196L105.989 63.8221L105.889 62.8813L105.569 66.1849Z" fill="#1E2625"/>
<path d="M105.734 21.7893C105.713 21.5743 105.694 21.3593 105.673 21.1462L105.585 20.2974L105.569 20.3451L105.673 21.9749L105.734 21.7893Z" fill="#1E2625"/>
<path d="M4.14844 20.3398L4.13209 20.292L4.04491 21.1408C4.02311 21.3539 4.00495 21.5689 3.98315 21.7838L4.04491 21.9675L4.14844 20.3398Z" fill="#1E2625"/>
<path d="M4.04857 58.7732L4.14846 57.8049L3.72526 53.7223L3.40195 52.1257L3.27844 51.4973C3.28934 51.7656 3.30024 52.0357 3.31295 52.3021L3.08228 52.4362L3.40195 54.0604L3.71981 55.6589L4.04857 58.7732Z" fill="#1E2625"/>
<path d="M3.31839 50.3653L3.23847 50.4131C3.23847 50.3782 3.23847 50.3433 3.23847 50.3083C3.22394 49.9041 3.21001 49.4981 3.19669 49.0902L3.164 48.0374C3.13614 47.0575 3.11495 46.0648 3.10042 45.0591C3.08831 44.1576 3.08166 43.2493 3.08044 42.3344C3.08044 42.1506 3.08044 41.9669 3.08044 41.7832C3.08044 41.4157 3.08044 41.0703 3.08044 40.7175C3.08044 41.0023 3.08044 41.2853 3.08044 41.57C3.08044 42.0906 3.08589 42.6075 3.09679 43.1207C3.1313 45.5864 3.20577 48.0044 3.31839 50.3653Z" fill="#1E2625"/>
<g style="mix-blend-mode:screen" opacity="0.38">
<g style="mix-blend-mode:screen" opacity="0.38">
<path d="M104.283 11.5203L104.572 14.1348C103.791 10.6184 101.872 7.4665 99.1188 5.1789C96.3658 2.89129 92.9364 1.59898 89.3747 1.50695C89.3093 1.24789 89.2403 0.992494 89.1713 0.740783C89.1023 0.490909 89.0351 0.246547 88.9642 0.00585938C89.1259 0.00585938 89.2857 0.00585938 89.4437 0.00585938C89.5309 0.00585938 89.6254 0.00586835 89.7035 0.0150549C89.7816 0.0242414 89.876 0.0150468 89.9632 0.0297453C90.0504 0.0444437 90.1303 0.0407853 90.2139 0.0462972L90.4936 0.0719998L90.7206 0.094069L90.8532 0.108759L91.1638 0.149175L91.389 0.184095C91.4562 0.193282 91.5271 0.204293 91.5943 0.217154C92.298 0.335505 92.9929 0.502473 93.674 0.716897C93.7685 0.746294 93.8556 0.775691 93.961 0.808762C94.0663 0.841834 94.1753 0.880435 94.2807 0.919019C94.6203 1.03844 94.9563 1.17255 95.2887 1.31586C95.3959 1.36363 95.5031 1.40957 95.6084 1.45918C96.0498 1.66312 96.4821 1.88727 96.9016 2.1298C96.9888 2.17941 97.0833 2.23084 97.1632 2.28413C97.2431 2.33741 97.3575 2.40355 97.452 2.46786C97.5083 2.50093 97.5628 2.53769 97.6173 2.57444C97.6718 2.61118 97.7335 2.64792 97.788 2.68651C97.9351 2.78205 98.0804 2.8831 98.2239 2.98783C98.4237 3.13114 98.6181 3.27627 98.8124 3.42877C98.8796 3.48389 98.9505 3.53901 99.0177 3.59597C99.1139 3.67313 99.1993 3.75214 99.301 3.83115C99.4027 3.91015 99.4627 3.96895 99.539 4.0406C99.6152 4.11226 99.6952 4.18022 99.7715 4.25188C99.9277 4.39151 100.08 4.54034 100.229 4.691C100.304 4.76633 100.378 4.84167 100.449 4.917C100.892 5.37226 101.305 5.85584 101.686 6.36478L101.868 6.62017L102.049 6.88108C102.538 7.57914 102.97 8.31652 103.341 9.08585C103.386 9.18139 103.433 9.26957 103.475 9.37429C103.517 9.47902 103.564 9.5709 103.609 9.67012C103.791 10.067 103.938 10.473 104.078 10.8864C104.114 10.9893 104.149 11.094 104.18 11.1969C104.211 11.2998 104.241 11.3953 104.272 11.4946V11.5129L104.283 11.5203Z" fill="#1E2625"/>
</g>
<g style="mix-blend-mode:screen" opacity="0.38">
<path d="M105.673 21.1463C105.695 21.3594 105.713 21.5744 105.734 21.7894L105.62 22.1311C105.419 20.1431 105.19 18.2176 104.933 16.3545L105.182 16.7605L105.259 17.3742C105.359 18.1955 105.453 19.0278 105.54 19.8712C105.586 20.2937 105.631 20.72 105.673 21.1463Z" fill="#D8CBB8"/>
</g>
<g style="mix-blend-mode:screen" opacity="0.38">
<path d="M106.646 41.7869C106.646 41.9707 106.646 42.1544 106.646 42.3381C106.646 42.0331 106.646 41.7281 106.646 41.4195V41.3405C106.619 38.0222 106.519 34.7793 106.356 31.6375C106.272 30.0892 106.175 28.5666 106.063 27.0698L106.183 27.2756C106.201 27.5641 106.221 27.8544 106.241 28.1447C106.272 28.6646 106.301 29.1864 106.332 29.7119L106.387 30.7849C106.401 31.0771 106.414 31.3692 106.43 31.6632V31.676C106.47 32.5433 106.505 33.4197 106.532 34.2998C106.543 34.5937 106.55 34.8896 106.559 35.1854C106.587 36.1126 106.608 37.0466 106.623 37.9873L106.634 38.6249C106.642 39.6722 106.646 40.7262 106.646 41.7869Z" fill="#D8CBB8"/>
</g>
<g style="mix-blend-mode:screen" opacity="0.38">
<path d="M3.6636 27.0715C3.57278 28.2756 3.49226 29.495 3.42202 30.7297C3.22404 34.2207 3.10598 37.8532 3.07874 41.5702C3.07874 41.8237 3.07874 42.0773 3.07874 42.3308C3.07874 42.1471 3.07874 41.9633 3.07874 41.7796C3.07874 41.4121 3.07874 41.0667 3.07874 40.7139C3.07874 40.431 3.07874 40.1517 3.07874 39.8724C3.07874 39.4535 3.07874 39.0364 3.09145 38.6193L3.10235 37.9818C3.11143 37.5114 3.11869 37.0429 3.12959 36.5762C3.14049 36.1095 3.15321 35.6447 3.16592 35.1798C3.175 34.884 3.18227 34.5882 3.19317 34.2942C3.19317 34.1748 3.20225 34.0535 3.20588 33.9267L3.23858 33.0283V32.8758C3.23858 32.7655 3.24766 32.6571 3.25129 32.5487L3.28943 31.6613C3.30578 31.3636 3.31849 31.066 3.33302 30.7701C3.33302 30.7499 3.33302 30.7334 3.33302 30.7132C3.353 30.3751 3.36754 30.0352 3.3857 29.6971C3.41658 29.1716 3.44564 28.6498 3.47834 28.1299C3.4965 27.8396 3.51648 27.5493 3.53464 27.2608L3.6636 27.0715Z" fill="#D8CBB8"/>
</g>
<g style="mix-blend-mode:screen" opacity="0.38">
<path d="M4.78428 16.3545C4.52999 18.2163 4.30113 20.1419 4.0977 22.1311L3.98328 21.7894C4.00507 21.5744 4.02324 21.3594 4.04503 21.1463C4.08862 20.72 4.13221 20.2937 4.17762 19.8712C4.2648 19.026 4.35926 18.1955 4.45916 17.3742L4.53544 16.7605L4.78428 16.3545Z" fill="#D8CBB8"/>
</g>
<g style="mix-blend-mode:screen" opacity="0.38">
<path d="M20.7608 0.00219727C20.6216 0.492154 20.4835 0.996193 20.3467 1.51432C16.785 1.60635 13.3557 2.89866 10.6026 5.1863C7.84953 7.47395 5.93033 10.6259 5.14941 14.1423L5.43821 11.5278C5.43749 11.5217 5.43749 11.5155 5.43821 11.5094C5.46727 11.4102 5.49633 11.311 5.52903 11.2118C5.56172 11.1126 5.59442 11.0042 5.63074 10.9013C5.7706 10.4879 5.92499 10.0818 6.09936 9.68495L6.16656 9.53612C6.18836 9.48651 6.21016 9.43692 6.23377 9.38914C6.25738 9.34137 6.27918 9.29176 6.29916 9.24399C6.31914 9.19622 6.34638 9.14844 6.36818 9.10067L6.50985 8.81038C6.59522 8.64318 6.69149 8.47783 6.77322 8.31247C6.85496 8.14711 6.95486 7.98726 7.05294 7.82741C7.24365 7.50771 7.44527 7.19353 7.65959 6.88853L7.84123 6.62762L8.02286 6.37223C8.2045 6.11868 8.41156 5.86881 8.62044 5.62812C8.82932 5.38743 9.03819 5.15224 9.25979 4.92441C9.33063 4.84908 9.40509 4.77375 9.47956 4.69842L9.70661 4.47427C9.78108 4.40261 9.85737 4.33095 9.93728 4.25929C10.0172 4.18764 10.0917 4.11598 10.1698 4.04799L10.4077 3.83853C10.5022 3.75953 10.5893 3.68054 10.6911 3.60337C10.7583 3.54642 10.8291 3.49129 10.8963 3.43617C11.0907 3.28367 11.285 3.13852 11.4848 2.9952L11.5066 2.97867C11.5702 2.93274 11.6356 2.88681 11.7028 2.84271C11.77 2.79862 11.8463 2.74349 11.9207 2.69388C11.9952 2.64427 12.0333 2.61855 12.0915 2.5818C12.1496 2.54506 12.2004 2.50832 12.2567 2.47525C12.3512 2.41461 12.4384 2.35398 12.5455 2.29151C12.6527 2.22904 12.7272 2.18679 12.8071 2.13718C13.2267 1.89465 13.659 1.67049 14.1003 1.46655C14.2057 1.41694 14.3128 1.371 14.4218 1.32323C14.5308 1.27546 14.647 1.22585 14.7615 1.18175C14.8759 1.13766 14.974 1.09541 15.0793 1.05499C15.1847 1.01457 15.3009 0.970462 15.4117 0.931878H15.4281C15.5334 0.893294 15.6406 0.856552 15.7477 0.821642C15.8549 0.786733 15.9403 0.759173 16.0347 0.729775L16.2581 0.661795L16.467 0.602988C16.5433 0.579102 16.6214 0.558898 16.6977 0.540524C16.8575 0.496428 17.0192 0.456001 17.1808 0.419254C17.2789 0.395368 17.3752 0.375162 17.4751 0.354952L17.7385 0.301662C17.862 0.277776 17.9855 0.255731 18.1108 0.23552L18.3124 0.202461L18.5376 0.16754L18.8482 0.127124L18.9808 0.112433L19.2079 0.0903858C19.2678 0.0903858 19.3259 0.0775083 19.3895 0.0738337L19.4912 0.0646604C19.5748 0.0646604 19.6565 0.0518054 19.7419 0.0481307C19.8272 0.044456 19.9144 0.0370923 20.0016 0.0334176C20.0888 0.029743 20.1742 0.0334311 20.2613 0.0242444H20.4575C20.552 0.0242444 20.6391 0.0242444 20.7409 0.0242444L20.7608 0.00219727Z" fill="#1E2625"/>
</g>
</g>
<path opacity="0.56" d="M106.646 41.7868C106.646 41.9706 106.646 42.1543 106.646 42.338C106.646 43.2506 106.64 44.1588 106.626 45.0628C106.626 45.5626 106.608 46.0623 106.597 46.5584C106.586 47.0545 106.577 47.5469 106.563 48.0393C106.541 48.8379 106.514 49.6304 106.483 50.4168C106.483 50.4498 106.483 50.4811 106.483 50.5142C106.261 50.5979 106.033 50.6661 105.802 50.7181C105.437 50.8002 105.065 50.8415 104.692 50.8412H104.172L103.446 51.5761H99.4082L98.6181 50.8412H89.0042C89.0042 50.8412 87.8744 51.4714 87.3404 51.5908C87.2187 51.6166 87.1297 51.6166 87.0916 51.578C86.8791 51.363 80.0805 51.578 80.0805 51.578L79.7699 50.8431H74.9984L70.7318 51.578H38.8678C38.8678 51.578 38.1413 51.2564 37.2331 50.8431H27.2233L26.7292 51.0103C25.7484 51.341 25.06 51.5798 25.06 51.5798L23.656 51.7636L23.3617 51.8003C23.0168 51.7992 22.6722 51.7765 22.3301 51.7323C22.1688 51.7234 22.0124 51.6728 21.876 51.5853C21.6635 51.3704 19.7509 51.3704 19.1133 51.3704C18.8687 51.3462 18.6279 51.2925 18.3959 51.2105C18.1016 51.1223 17.7511 51.0047 17.3878 50.8743L17.3151 50.8486H11.3648C11.0397 50.9882 10.8199 51.1039 10.8199 51.1554C10.8199 51.2877 8.79108 51.4218 7.24174 51.5026C6.28271 51.5523 5.51076 51.5853 5.51076 51.5853L5.4145 51.5523H5.4036L3.24761 50.8173C3.24761 50.685 3.2349 50.5527 3.23126 50.4186C3.23126 50.3837 3.23126 50.3488 3.23126 50.3139C3.21673 49.9097 3.2028 49.5036 3.18948 49.0957L3.15679 48.043C3.12894 47.063 3.10775 46.0703 3.09322 45.0646C3.08111 44.1631 3.07445 43.2549 3.07324 42.3399C3.07324 42.1561 3.07324 41.9724 3.07324 41.7887C3.07324 41.4212 3.07324 41.0758 3.07324 40.723C3.07324 40.4401 3.07324 40.1608 3.07324 39.8815C3.07324 39.4626 3.07324 39.0455 3.08596 38.6285L3.09686 37.9909C3.10594 37.5205 3.1132 37.052 3.1241 36.5854C3.135 36.1187 3.14771 35.6538 3.16043 35.189C3.16951 34.8931 3.17677 34.5973 3.18767 34.3034C3.18767 34.1839 3.19676 34.0627 3.20039 33.9359L3.23308 33.0374V32.885C3.23308 32.7747 3.24216 32.6663 3.2458 32.5579L3.28394 31.6705C3.30029 31.3728 3.313 31.0752 3.32753 30.7794C3.32753 30.7591 3.32753 30.7426 3.32753 30.7224H6.34447L6.40622 30.7775L7.01288 31.3471H16.9428C17.3842 31.1011 17.8453 30.8933 18.3214 30.7261C18.4867 30.682 18.612 30.6691 18.6611 30.7261C18.8736 30.9411 25.6703 30.7261 25.6703 30.7261L25.9355 31.3563H31.3736L35.019 30.7261H66.8848L68.1054 31.2773C68.123 31.2837 68.14 31.2917 68.1563 31.3012C68.1999 31.3177 68.2416 31.3398 68.287 31.3581H78.8454C79.917 30.9907 80.689 30.7279 80.689 30.7279L80.976 30.693L82.3891 30.5093H82.4636C82.578 30.5093 82.805 30.5093 83.0502 30.535C83.3953 30.5626 83.7768 30.6158 83.8767 30.7187C83.9295 30.7605 83.992 30.7877 84.0583 30.7978C84.1782 30.8244 84.2995 30.8447 84.4216 30.8584C85.0954 30.9337 86.1852 30.9337 86.6357 30.9337C86.8736 30.9337 87.4639 31.1174 88.136 31.349H94.6185L94.7456 31.2846C94.8564 31.224 94.9273 31.1781 94.9273 31.1487C94.9273 31.1193 95.0471 31.0844 95.2487 31.0531C95.5376 31.009 95.9935 30.9649 96.5202 30.9264C96.571 30.9264 96.6237 30.9227 96.6782 30.9153C97.056 30.8878 97.4574 30.8621 97.8552 30.8363C99.0867 30.7665 100.238 30.7187 100.238 30.7187L101.492 31.1432L101.788 31.2424L101.922 31.2865L102.104 31.349H104.686C105.252 31.3487 105.813 31.4431 106.348 31.6282L106.423 31.6539V31.6668C106.463 32.534 106.497 33.4104 106.525 34.2905C106.535 34.5845 106.543 34.8803 106.552 35.1761C106.58 36.1033 106.601 37.0373 106.615 37.978L106.626 38.6156C106.64 39.669 106.646 40.7261 106.646 41.7868Z" fill="#141516"/>
<path d="M109.792 34.1011C109.665 32.8201 109.072 31.6325 108.128 30.7688C107.185 29.9051 105.957 29.4268 104.685 29.4269H102.102L100.235 28.7912C100.235 28.7912 94.9236 29.0061 94.9236 29.2211C94.9236 29.2578 94.8092 29.3295 94.6221 29.4214H88.1378C87.4676 29.1844 86.8773 29.0061 86.6393 29.0061C86.0018 29.0061 84.0964 29.0061 83.8767 28.7912C83.6569 28.5762 82.3909 28.5762 82.3909 28.5762L80.6908 28.7912C80.6908 28.7912 79.9189 29.0576 78.8472 29.4214H68.287C67.4842 29.0539 66.883 28.7912 66.883 28.7912H35.0208L31.3736 29.4269H25.9409L25.6739 28.7967C25.6739 28.7967 18.8754 29.0116 18.6629 28.7967C18.4958 28.6258 17.3914 29.1843 16.9464 29.4269H7.01651L6.34266 28.7967H2.3122L0.826439 30.3015L1.83087 30.4191C1.32313 30.8146 0.900843 31.3111 0.590023 31.878C0.279204 32.4449 0.0864401 33.0702 0.0236152 33.7153C0.00908453 33.877 1.95799e-06 34.0405 1.95799e-06 34.2022V44.1405C-0.000839478 45.0738 0.269538 45.9868 0.777516 46.7659C1.28549 47.5451 2.00867 48.1559 2.8571 48.5226C2.92249 48.6825 2.96427 48.7799 2.96427 48.7799L5.50714 49.6398C5.50714 49.6398 10.8163 49.4248 10.8163 49.2098C10.8163 49.1584 11.0288 49.0444 11.3612 48.903H17.3097C18.098 49.1896 18.8372 49.4248 19.1079 49.4248C19.7454 49.4248 21.6507 49.4248 21.8705 49.6398C22.0903 49.8547 23.3563 49.8547 23.3563 49.8547L25.0564 49.6398C25.0564 49.6398 25.9845 49.3182 27.2196 48.9048H37.2222C38.1431 49.3201 38.8569 49.6398 38.8569 49.6398H70.7318L74.9984 48.9048H79.7663L80.0769 49.6398C80.0769 49.6398 86.8754 49.4248 87.0879 49.6398C87.3004 49.8547 89.0042 48.9048 89.0042 48.9048H98.618L99.4082 49.6398H103.444L104.171 48.9048H104.683C105.056 48.9059 105.428 48.8647 105.793 48.7817C106.934 48.5265 107.954 47.8849 108.686 46.9631C109.417 46.0413 109.816 44.8945 109.816 43.7124V34.634C109.818 34.4539 109.809 34.2757 109.792 34.1011Z" fill="#1E2625"/>
<g style="mix-blend-mode:screen">
<path d="M109.792 34.1013C109.665 32.8203 109.072 31.6326 108.128 30.7689C107.185 29.9051 105.957 29.4269 104.685 29.4269H102.102L100.235 28.7912C100.235 28.7912 94.9236 29.0061 94.9236 29.2211C94.9236 29.2579 94.8092 29.3295 94.6221 29.4214H88.1378C87.4676 29.1844 86.8773 29.0061 86.6393 29.0061C86.0018 29.0061 84.0964 29.0061 83.8767 28.7912C83.6569 28.5762 82.3909 28.5762 82.3909 28.5762L80.6908 28.7912C80.6908 28.7912 79.9189 29.0576 78.8472 29.4214H68.287C67.4842 29.0539 66.883 28.7912 66.883 28.7912H35.0208L31.3736 29.4269H25.9409L25.6739 28.7967C25.6739 28.7967 18.8754 29.0117 18.6629 28.7967C18.4958 28.6258 17.3914 29.1844 16.9464 29.4269H7.01651L6.34265 28.7967H2.3122L0.826437 30.3015L1.83087 30.4191C1.32313 30.8146 0.900841 31.3112 0.590021 31.8781C0.279202 32.445 0.0864381 33.0703 0.0236133 33.7155C0.00908258 33.8772 0 34.0407 0 34.2024V35.7073C0 35.5437 0.00908258 35.3802 0.0236133 35.2203C0.0862277 34.5751 0.278898 33.9497 0.589733 33.3828C0.900569 32.8158 1.32297 32.3194 1.83087 31.924L0.826437 31.8046L2.3122 30.3015H6.3481L7.02196 30.9299H16.9519C17.4042 30.6892 18.5012 30.1306 18.6683 30.3015C18.8808 30.5165 25.6794 30.3015 25.6794 30.3015L25.9464 30.9299H31.3736L35.019 30.3015H66.883C66.883 30.3015 67.4842 30.568 68.287 30.9299H78.8472C79.9189 30.5624 80.6908 30.3015 80.6908 30.3015L82.3909 30.0866C82.3909 30.0866 83.6623 30.0865 83.8767 30.3015C84.091 30.5165 86.0018 30.5165 86.6393 30.5165C86.8773 30.5165 87.4676 30.7003 88.1378 30.9299H94.6221C94.8037 30.8399 94.9236 30.7682 94.9236 30.7297C94.9236 30.5165 100.235 30.3015 100.235 30.3015L102.102 30.9299H104.685C105.957 30.9303 107.185 31.409 108.129 32.2731C109.072 33.1371 109.665 34.325 109.792 35.6062C109.808 35.7899 109.818 35.959 109.818 36.1372V34.6324C109.818 34.4541 109.808 34.2759 109.792 34.1013Z" fill="#141516"/>
</g>
<g style="mix-blend-mode:multiply">
<path d="M108.33 38.467C107.915 38.5475 107.495 38.6009 107.073 38.6268H105.286C104.576 38.5736 100.046 38.2594 97.4956 38.467C94.9454 38.6746 88.363 38.467 87.7255 38.467C87.0879 38.467 79.6537 38.2521 77.9536 38.467C77.3033 38.5497 76.5005 38.5993 75.616 38.6268H71.1968H70.7482C69.2951 38.6066 65.4899 38.5809 61.1416 38.557L50.7884 38.5037L43.109 38.4743C42.6839 38.4743 41.952 38.4743 41.1673 38.4854H40.7168C39.8715 38.4846 39.0267 38.5324 38.1867 38.6287H34.0981C33.7021 38.6223 33.3083 38.5687 32.9248 38.4688C32.4997 38.2539 25.9155 38.6838 24.853 38.4688C23.7904 38.2539 18.4812 38.4688 18.1089 38.4045C17.7365 38.3402 14.6578 38.6838 14.4453 38.4688C14.2637 38.2851 12.1549 38.5478 11.5392 38.6287H9.56483C8.98542 38.603 8.49138 38.557 8.49138 38.4688C8.49138 38.2539 7.0038 38.6838 6.36627 38.4688C6.02661 38.3549 5.32732 38.4835 4.74609 38.6287H3.29302L2.97335 38.4688H1.48758L1.16791 38.6287H0V39.3819L0.637536 40.1865C0.637536 40.1865 2.33581 39.9716 3.39837 39.7566C4.40277 39.5772 5.42518 39.5235 6.44255 39.5968C7.15274 39.6501 11.6827 39.9642 14.2328 39.7566C16.783 39.5491 23.3654 39.7566 24.0029 39.7566C24.6404 39.7566 32.0747 39.9716 33.7748 39.7566C35.4749 39.5417 38.2357 39.5417 40.5316 39.5968H40.8313C40.9584 39.5968 41.1092 39.5968 41.2835 39.5968C42.9509 39.617 46.6835 39.6409 50.8738 39.663L61.0635 39.7162L68.6122 39.7456C69.0572 39.7456 69.8309 39.7456 70.6501 39.7364H71.1024C71.9151 39.7368 72.7271 39.6895 73.5344 39.595C74.4172 39.4333 78.3841 39.5399 78.8018 39.7548C79.2196 39.9698 85.8111 39.5399 86.8736 39.7548C87.9362 39.9698 93.2453 39.7548 93.6177 39.8191C93.99 39.8834 97.0687 39.5399 97.283 39.7548C97.4974 39.9698 100.371 39.5711 100.371 39.5711C100.371 39.5711 103.239 39.5399 103.239 39.7548C103.239 39.9698 104.726 39.5399 105.364 39.7548C106.001 39.9698 107.907 39.3249 107.907 39.3249L108.757 39.7548H109.819V39.3249V38.2227C109.324 38.2888 108.771 38.377 108.33 38.467Z" fill="#1E2625"/>
</g>
<path d="M70.3305 43.1814L71.2386 33.2892L71.5837 31.8046L71.3712 29.0118L70.3977 28.0784C69.874 27.2192 69.1641 26.4917 68.3216 25.9508C67.737 25.5758 67.0968 25.2979 66.4253 25.1276L65.6389 24.4993H63.5137L62.453 24.9292H60.1626C59.5251 24.7142 58.8349 24.4993 58.6223 24.4993C58.1973 24.4993 55.0914 24.9292 55.0914 24.9292L52.2506 24.4993H49.2773L48.3201 24.9329H47.114C46.5934 24.9319 46.0745 24.9935 45.5683 25.1166L44.1788 24.9329L41.8412 26.6508L41.9356 27.507C41.5205 28.0486 41.1914 28.6524 40.9603 29.2966C40.7242 29.4489 40.5189 29.6453 40.3554 29.8754C40.1429 30.3053 40.3554 34.1729 40.3554 34.1729L40.844 34.8656L42.0791 48.361C42.1693 49.3511 42.4798 50.3077 42.9873 51.1592L43.1163 52.4454L45.4521 53.9483H46.2785C47.0188 54.233 47.8042 54.3787 48.5962 54.3783H50.1509L50.5505 54.4922L53.3132 55.0232L56.499 54.5933L62.6582 55.0232L63.748 54.3636C64.6063 54.3081 65.4453 54.0818 66.2171 53.6978C66.9888 53.3138 67.678 52.7796 68.2453 52.1257L68.8138 51.8629L69.4514 50.5052L69.564 49.7702C69.7102 49.3099 69.8064 48.8349 69.851 48.3536L69.949 47.2843L70.4322 44.1608L70.3305 43.1814Z" fill="#1E2625"/>
<g opacity="0.56">
<path opacity="0.56" d="M70.434 44.1846L69.9544 47.2879L69.8564 48.3573C69.8118 48.8386 69.7156 49.3136 69.5694 49.7739L69.4568 50.5088L68.8192 51.8666L68.2453 52.1257C67.6764 52.7796 66.9855 53.3134 66.2122 53.6965C65.4389 54.0796 64.5984 54.3044 63.7389 54.3581L62.6491 55.0177L56.4899 54.5877L53.3041 55.0177L50.5414 54.4867L50.1418 54.3728H48.5871C47.7951 54.3732 47.0097 54.2275 46.2694 53.9428H45.443L43.1072 52.4399L42.9782 51.1537C42.4707 50.3022 42.1602 49.3456 42.07 48.3554L40.8349 34.8601L40.3463 34.1674C40.3463 34.1674 40.3009 33.3681 40.2737 32.4568C40.1956 33.5831 40.3463 36.3152 40.3463 36.3152L40.8349 37.0079L42.07 50.5033C42.1607 51.4939 42.4712 52.451 42.9782 53.3034L43.1072 54.5804L45.443 56.0852H46.2694C47.0097 56.3698 47.7951 56.5155 48.5871 56.5151H50.1418L50.5414 56.629L53.3041 57.1582L56.4899 56.7301L62.6491 57.1582L63.7389 56.5004C64.5982 56.447 65.4387 56.2225 66.212 55.8397C66.9853 55.457 67.6763 54.9235 68.2453 54.2699L68.8138 54.0071L69.4513 52.6475L69.5639 51.9236C69.71 51.4626 69.8062 50.9871 69.8509 50.5051L69.949 49.4358L70.4321 46.3123L70.325 45.3311L70.434 44.1846Z" fill="#141516"/>
<path opacity="0.56" d="M71.235 33.2894L70.3304 43.1832L70.4376 44.157L71.235 35.439L71.5801 33.9545L71.4584 32.334L71.235 33.2894Z" fill="#141516"/>
</g>
<g style="mix-blend-mode:screen">
<g style="mix-blend-mode:screen">
<path d="M40.3554 31.8045C40.5185 31.5748 40.7239 31.3789 40.9602 31.2276C41.1914 30.5834 41.5204 29.9797 41.9356 29.4381L41.8411 28.5819L44.1787 26.8622L45.5682 27.0459C46.0744 26.9228 46.5933 26.8612 47.1139 26.8622H48.32L49.2772 26.4323H52.2505L55.0913 26.8622C55.0913 26.8622 58.1972 26.4323 58.6223 26.4323C58.8348 26.4323 59.5304 26.6472 60.1625 26.8622H62.4475L63.5082 26.4323H65.6333L66.4198 27.0624C67.0912 27.2321 67.7313 27.5094 68.3161 27.8837C68.6471 28.0953 68.9584 28.337 69.246 28.6058C69.6899 29.0183 70.0756 29.4906 70.3921 30.0095L71.3657 30.9428L71.4674 32.2804L71.5782 31.8027L71.3657 29.01L70.3921 28.0766C69.8685 27.2174 69.1586 26.4899 68.3161 25.949C67.7314 25.5741 67.0912 25.2962 66.4198 25.1259L65.6333 24.4976H63.5082L62.4475 24.9275H60.1625C59.525 24.7125 58.8348 24.4976 58.6223 24.4976C58.1972 24.4976 55.0913 24.9275 55.0913 24.9275L52.2505 24.4976H49.2772L48.32 24.933H47.1139C46.5933 24.932 46.0744 24.9937 45.5682 25.1167L44.1787 24.933L41.8411 26.6509L41.9356 27.5071C41.5204 28.0487 41.1914 28.6524 40.9602 29.2966C40.7241 29.4489 40.5188 29.6453 40.3554 29.8754C40.2446 30.0995 40.2482 31.2588 40.2791 32.3171C40.2783 32.1433 40.304 31.9704 40.3554 31.8045Z" fill="#141516"/>
</g>
<g style="mix-blend-mode:screen">
<path d="M70.3867 44.4951L70.4372 44.1643L70.4264 44.0596L70.3867 44.4951Z" fill="#141516"/>
</g>
</g>
<g style="mix-blend-mode:multiply">
<path d="M61.81 38.6817L61.1724 36.962L60.8092 36.8866C60.5213 36.127 60.0623 35.4457 59.4687 34.8968L58.417 33.7411L57.3563 33.0962L55.8687 33.5261H55.0986L54.9914 33.6217C53.9039 33.8333 52.9124 34.3931 52.1634 35.2183C51.8174 35.5982 51.5291 36.0279 51.3079 36.4934L50.5577 37.6087L50.7702 40.8314L51.4659 41.3349C51.8705 42.0585 52.4387 42.675 53.1242 43.1336L53.3204 43.411L53.1079 44.6972V46.8469L53.5057 47.7527V48.3498H53.769L53.9507 48.7798L55.0931 48.4123L56.5008 48.7798L58.0592 48.3498H58.437V47.0913L58.8348 45.772L58.437 43.7657L59.4723 43.1942L59.5268 42.5714C60.038 42.0821 60.4453 41.4925 60.7238 40.8388H61.1706L61.81 38.6817Z" fill="#1E2625"/>
</g>
</svg>
