<svg width="115" height="97" viewBox="0 0 115 97" fill="none" xmlns="http://www.w3.org/2000/svg">
<g style="mix-blend-mode:multiply" opacity="0.54">
<g style="mix-blend-mode:multiply" opacity="0.54">
<path d="M65.5167 96.4809C92.5701 96.2421 114.494 95.2561 114.486 94.2785C114.478 93.301 92.5396 92.7021 65.4862 92.941C38.4328 93.1798 16.5085 94.1658 16.517 95.1434C16.5254 96.1209 38.4634 96.7197 65.5167 96.4809Z" fill="#4A5557"/>
</g>
</g>
<path d="M105.146 16.1158C105.133 16.1569 105.111 16.1947 105.082 16.2264C105.054 16.2581 105.018 16.2829 104.979 16.2993L104.95 16.3121C104.71 16.49 104.452 16.6407 104.179 16.7615C103.372 17.1174 102.525 17.176 101.726 17.1797H101.182C100.955 17.1797 100.736 17.1797 100.522 17.1797C99.7547 17.1907 99.0802 17.2751 98.5271 17.6933H98.5162C98.3567 17.8152 98.2118 17.9555 98.0846 18.1115C97.9064 18.3293 97.7503 18.5647 97.6186 18.814C97.4563 19.1184 97.3157 19.4341 97.1979 19.7587C97.12 19.9678 97.0456 20.1916 96.9767 20.4264C96.8715 20.7798 96.7736 21.1643 96.6829 21.5801C96.614 21.9017 96.5493 22.2411 96.4889 22.5981L93.8977 22.1561C93.9177 22.0369 93.9376 21.9195 93.9593 21.8039C94.2676 20.0944 94.6847 18.726 95.2468 17.6566C95.3785 17.4035 95.525 17.1584 95.6856 16.9229C95.9439 16.5351 96.2484 16.1808 96.5923 15.8682C96.7039 15.7644 96.8207 15.6664 96.9422 15.5747C97.0075 15.5252 97.0746 15.4757 97.1417 15.4317C97.5139 15.176 97.9198 14.9747 98.3475 14.8337C98.552 14.7661 98.7603 14.7109 98.9714 14.6686C99.7135 14.5382 100.467 14.489 101.22 14.5218H101.278C101.39 14.5218 101.497 14.5218 101.602 14.5218C101.76 14.5218 101.911 14.5218 102.052 14.5218C102.611 14.5035 103.026 14.432 103.349 14.2137C103.476 14.067 103.588 14.0303 103.642 14.0303C103.697 14.0303 103.583 14.2687 103.572 14.2852C103.592 14.2742 103.789 14.1697 103.847 14.2742C103.862 14.2953 103.868 14.3208 103.866 14.3462C103.863 14.3717 103.852 14.3955 103.835 14.4136C103.87 14.3861 103.914 14.3728 103.959 14.3762C104.003 14.3796 104.045 14.3994 104.076 14.432C104.095 14.4491 104.111 14.47 104.122 14.4935C104.134 14.517 104.14 14.5425 104.141 14.5686C104.142 14.5947 104.138 14.6207 104.129 14.6452C104.12 14.6696 104.106 14.6919 104.089 14.7108C104.089 14.7108 104.197 14.6503 104.342 14.7842C104.487 14.9181 104.263 15.1088 104.248 15.1235C104.336 15.0863 104.434 15.0824 104.524 15.1125C104.692 15.1602 104.535 15.3913 104.535 15.3913C104.535 15.3913 104.643 15.3308 104.788 15.4647C104.808 15.4819 104.824 15.503 104.835 15.5267C104.846 15.5503 104.853 15.576 104.854 15.6023C104.855 15.6285 104.851 15.6547 104.842 15.6793C104.833 15.7038 104.819 15.7263 104.801 15.7453C105.271 15.6958 104.921 15.9636 104.921 15.9636C104.921 15.9636 105.193 15.9453 105.146 16.1158Z" fill="#E9AB44"/>
<g style="mix-blend-mode:multiply">
<g style="mix-blend-mode:multiply">
<path d="M95.838 17.4934C95.7753 17.3049 95.7244 17.1125 95.6856 16.9175C95.5251 17.153 95.3785 17.398 95.2468 17.6512C95.6045 18.6971 96.1966 19.645 96.9767 20.4209C97.0456 20.1861 97.12 19.9623 97.1979 19.7532C96.5942 19.1038 96.131 18.3342 95.838 17.4934Z" fill="#A46532"/>
</g>
<g style="mix-blend-mode:multiply">
<path d="M97.1363 15.4263C97.0692 15.4703 97.0022 15.5198 96.9369 15.5693C96.8154 15.661 96.6985 15.759 96.5869 15.8628C96.7951 16.7739 97.3284 17.5753 98.0846 18.1133C98.2118 17.9573 98.3566 17.8169 98.5161 17.6951H98.527C98.1425 17.4459 97.818 17.1128 97.5773 16.7202C97.3367 16.3276 97.186 15.8855 97.1363 15.4263Z" fill="#A46532"/>
</g>
<g style="mix-blend-mode:multiply">
<path d="M98.9661 14.6633C98.755 14.7057 98.5468 14.7608 98.3423 14.8284C98.8722 15.7742 99.6183 16.578 100.518 17.1724C100.732 17.1724 100.952 17.1724 101.178 17.1724H101.722C100.453 16.4736 99.6878 15.7051 99.2399 15.0888C99.1383 14.9403 99.0495 14.8027 98.9661 14.6633Z" fill="#A46532"/>
</g>
<g style="mix-blend-mode:multiply">
<path d="M102.701 15.2023C102.466 14.989 102.247 14.7578 102.047 14.5107C101.905 14.5107 101.755 14.5107 101.597 14.5107C101.492 14.5107 101.385 14.5107 101.272 14.5107C101.568 14.9236 101.905 15.3042 102.279 15.6462C102.824 16.1504 103.473 16.5262 104.179 16.7468C104.452 16.626 104.71 16.4753 104.95 16.2974L104.979 16.2846C104.126 16.1745 103.329 15.7959 102.701 15.2023Z" fill="#A46532"/>
</g>
</g>
<g style="mix-blend-mode:multiply" opacity="0.5">
<path d="M97.6185 18.8159C97.39 19.2491 97.2018 19.7029 97.0564 20.1714C96.9185 20.5951 96.7952 21.0665 96.6828 21.582C96.1962 21.9206 95.6052 22.0703 95.0182 22.0039C94.659 21.9779 94.3038 21.9115 93.9592 21.8058C94.0764 21.1393 94.2271 20.4793 94.4107 19.8284C94.8768 18.1904 95.4987 16.9762 96.322 16.1196C96.5118 15.9197 96.7174 15.7356 96.9367 15.5693C98.3619 14.4852 99.9431 14.5017 101.214 14.5164H101.597C99.8543 15.417 97.9213 15.7949 97.6185 18.8159Z" fill="#E9AB44"/>
</g>
<g style="mix-blend-mode:multiply" opacity="0.5">
<path d="M96.692 21.582C96.2054 21.9206 95.6144 22.0703 95.0274 22.0039C94.7172 21.314 94.5124 20.5805 94.4199 19.8285C94.8859 18.1905 95.5079 16.9762 96.3312 16.1196C95.9685 17.3706 95.8398 18.6362 97.0656 20.1715C96.9187 20.5952 96.7954 21.0666 96.692 21.582Z" fill="#E9AB44"/>
</g>
<path d="M98.2186 25.8578C98.0342 26.5162 97.7234 27.1314 97.3039 27.6683C96.8844 28.2051 96.3644 28.6531 95.7737 28.9866C95.183 29.3202 94.533 29.5327 93.8611 29.6121C93.1891 29.6914 92.5084 29.6361 91.8576 29.4492C91.3787 29.3129 90.9222 29.1058 90.503 28.8348C89.3968 28.1213 88.6014 27.0077 88.2791 25.7213C87.9567 24.4349 88.1316 23.0726 88.7682 21.9122C89.4048 20.7518 90.4551 19.8809 91.7048 19.477C92.9545 19.0731 94.3094 19.1667 95.4932 19.7387C96.4565 20.2076 97.2517 20.968 97.7686 21.9146C98.2855 22.8611 98.4986 23.9469 98.3782 25.0213C98.348 25.3041 98.2946 25.5839 98.2186 25.8578Z" fill="#1E2625"/>
<g style="mix-blend-mode:color-burn" opacity="0.29">
<path d="M98.2186 25.8577C97.9508 26.8148 97.4176 27.6743 96.682 28.3345C95.9464 28.9947 95.0393 29.4279 94.068 29.583C93.2139 29.3996 92.0734 29.1538 90.503 28.8346C89.3969 28.1212 88.6014 27.0077 88.2791 25.7213C87.9567 24.4349 88.1316 23.0726 88.7682 21.9122C89.4048 20.7518 90.4551 19.8808 91.7048 19.477C92.9545 19.0731 94.3094 19.1667 95.4932 19.7387C92.6463 18.6235 90.416 23.2237 98.3818 25.0231C98.3503 25.3054 98.2957 25.5845 98.2186 25.8577Z" fill="#1E2625"/>
</g>
<path d="M114.751 56.2516C114.401 57.4972 113.707 58.6156 112.749 59.475C111.792 60.3343 110.611 60.8986 109.347 61.1014C107.734 61.3595 106.084 61.0139 104.705 60.1292C103.271 59.197 102.242 57.7478 101.826 56.0759C101.411 54.404 101.64 52.6348 102.466 51.1273C103.293 49.6199 104.656 48.4873 106.279 47.9595C107.901 47.4316 109.661 47.5482 111.202 48.2853C112.456 48.8962 113.491 49.8865 114.164 51.1189C114.837 52.3513 115.114 53.7649 114.957 55.1639C114.917 55.5315 114.848 55.8952 114.751 56.2516Z" fill="#1E2625"/>
<g style="mix-blend-mode:color-burn" opacity="0.29">
<path d="M114.751 56.2515C114.401 57.4971 113.707 58.6156 112.749 59.4749C111.792 60.3342 110.611 60.8986 109.347 61.1013C108.234 60.8647 106.741 60.5419 104.705 60.1292C103.271 59.1969 102.242 57.7477 101.826 56.0759C101.411 54.404 101.64 52.6347 102.466 51.1273C103.293 49.6199 104.656 48.4873 106.279 47.9595C107.901 47.4317 109.661 47.5482 111.202 48.2853C107.496 46.8344 104.589 52.8251 114.963 55.1657C114.921 55.5328 114.85 55.8959 114.751 56.2515Z" fill="#1E2625"/>
</g>
<path d="M108.678 53.4064C107.688 56.9354 105.964 60.2097 103.621 63.01C101.279 65.8104 98.372 68.072 95.0952 69.6437C91.8185 71.2153 88.2476 72.0605 84.6217 72.1228C80.9958 72.185 77.3986 71.4629 74.071 70.0047L15.5957 44.38L20.8089 34.6584L25.1718 26.5216L33.8012 10.4314L40.9402 11.7906L89.2012 20.9931C90.6045 21.2799 91.9809 21.6873 93.3156 22.211L93.3519 22.2257L93.4588 22.2679C99.3291 24.6008 104.133 29.0564 106.939 34.7703C107.244 35.3927 107.524 36.028 107.78 36.6761C108.003 37.241 108.207 37.8158 108.393 38.4003L108.422 38.4975L108.44 38.5507C108.502 38.747 108.56 38.9432 108.622 39.1395C108.671 39.3027 108.716 39.4641 108.76 39.6274C108.803 39.7906 108.848 39.9704 108.892 40.1428C108.892 40.1722 108.906 40.1997 108.912 40.229C108.952 40.385 108.988 40.5427 109.022 40.6986C109.021 40.7022 109.021 40.706 109.022 40.7096C109.023 40.7169 109.023 40.7243 109.022 40.7316C109.048 40.838 109.07 40.9426 109.091 41.049C109.113 41.1553 109.137 41.2728 109.16 41.3846C109.184 41.4965 109.211 41.6469 109.233 41.779C109.255 41.9111 109.28 42.0505 109.303 42.1862C109.372 42.5989 109.429 43.0098 109.485 43.4207C109.516 43.6903 109.541 43.9563 109.563 44.2241C109.575 44.3617 109.586 44.4974 109.594 44.6331C109.641 45.335 109.66 46.0376 109.652 46.7407C109.652 46.9926 109.644 47.242 109.63 47.4891C109.63 47.6395 109.615 47.7899 109.604 47.9421C109.604 48.0614 109.592 48.1806 109.581 48.309C109.536 48.94 109.465 49.5691 109.372 50.1946C109.36 50.279 109.347 50.3634 109.332 50.4477C109.318 50.5321 109.303 50.6312 109.287 50.7284C109.271 50.8256 109.247 50.954 109.229 51.0659C109.2 51.22 109.171 51.3722 109.14 51.5263C109.006 52.1518 108.852 52.7828 108.678 53.4064Z" fill="#1E2625"/>
<path d="M55.9869 14.6833L52.9043 13.7974C59.0513 15.5619 61.3995 26.3877 58.1501 37.9784C54.9007 49.5691 47.2794 57.5353 41.1323 55.7708L44.2149 56.6549C50.362 58.4195 57.9815 50.4533 61.2309 38.8626C64.4803 27.2719 62.1339 16.446 55.9869 14.6833Z" fill="#141516"/>
<path d="M81.0141 19.7937L77.5689 18.8032C84.4431 20.7769 87.0705 32.8849 83.4349 45.8476C79.7992 58.8104 71.2858 67.7194 64.3953 65.7476L67.8405 66.7362C74.7165 68.7099 83.2372 59.8009 86.8801 46.8363C90.523 33.8717 87.8883 21.7655 81.0141 19.7937Z" fill="#141516"/>
<g style="mix-blend-mode:color-burn" opacity="0.29">
<path d="M105.138 61.0023C101.792 65.9106 96.8652 69.4915 91.199 71.1334C85.5328 72.7754 79.4788 72.3765 74.0711 70.0049L15.5957 44.3802L15.6755 44.2316L20.8089 34.6604L29.627 32.0503L105.138 61.0023Z" fill="#1E2625"/>
</g>
<g style="mix-blend-mode:color-burn" opacity="0.29">
<path d="M86.1096 72.0558C81.9916 72.371 77.8598 71.6671 74.0711 70.0051L15.5957 44.3802L15.6755 44.2316L20.0564 43.1531L86.1096 72.0558Z" fill="#1E2625"/>
</g>
<g style="mix-blend-mode:screen" opacity="0.52">
<path d="M109.023 40.7097L67.1189 28.6841L108.424 38.4976L108.442 38.5507C108.666 39.2661 108.859 39.9858 109.023 40.7097Z" fill="#1E2625"/>
</g>
<g style="mix-blend-mode:screen" opacity="0.52">
<path d="M109.222 51.0587C109.24 50.9468 109.262 50.8349 109.28 50.7211C109.298 50.6074 109.313 50.5377 109.325 50.4405C109.338 50.3433 109.353 50.2718 109.365 50.1874C109.458 49.5619 109.528 48.9328 109.574 48.3018C109.585 48.1807 109.592 48.0615 109.597 47.9349C109.608 47.7827 109.617 47.6323 109.623 47.4819C109.634 47.2373 109.641 46.9878 109.644 46.7335C109.654 46.0316 109.635 45.329 109.587 44.6259C109.587 44.4902 109.568 44.3544 109.556 44.2169C109.534 43.9491 109.509 43.6831 109.478 43.4135C109.431 43.0026 109.374 42.5917 109.296 42.179C109.273 42.0433 109.251 41.9057 109.226 41.7718C109.2 41.6379 109.178 41.5077 109.153 41.3774C109.128 41.2472 109.108 41.1518 109.084 41.0418C109.061 40.9317 109.041 40.8308 109.015 40.7244C109.016 40.7171 109.016 40.7097 109.015 40.7024C109.014 40.6988 109.014 40.695 109.015 40.6914C108.981 40.5355 108.945 40.3778 108.905 40.2218C108.905 40.1925 108.892 40.165 108.885 40.1356C108.841 39.9632 108.8 39.7926 108.752 39.6202C108.705 39.4478 108.664 39.2955 108.615 39.1323C108.558 38.936 108.5 38.7398 108.433 38.5435L108.415 38.4903L108.386 38.3931C108.199 37.8073 107.994 37.2326 107.773 36.6689C107.517 36.0196 107.236 35.3843 106.932 34.7631C104.126 29.0493 99.3219 24.5936 93.4517 22.2608C94.721 22.7872 102.665 26.3402 105.365 34.4054L33.901 18.1245L31.8357 24.1391L109.126 51.5117C109.164 51.365 109.193 51.2127 109.222 51.0587Z" fill="#1E2625"/>
</g>
<g style="mix-blend-mode:screen" opacity="0.52">
<path d="M93.3157 22.2112C91.981 21.6875 90.6045 21.28 89.2013 20.9932L40.9403 11.7927L40.5776 13.0969L93.2903 22.2002L93.3157 22.2112Z" fill="#1E2625"/>
</g>
<g style="mix-blend-mode:screen" opacity="0.52">
<path d="M93.459 22.2766L93.3521 22.2349L93.459 22.2766Z" fill="#1E2625"/>
</g>
<path d="M42.8369 33.1599C41.1451 39.1874 38.3508 44.3032 35.1612 47.7773C31.716 51.5339 27.8029 53.3737 24.3141 52.363L12.165 48.8779L24.8853 3.48315L37.0344 6.96828C39.9012 7.79004 42.0155 10.3984 43.2231 14.0926C43.9184 16.3143 44.3035 18.6233 44.3673 20.9528C44.4108 22.0534 44.3981 23.187 44.3292 24.3517V24.4343C44.2585 25.6082 44.1298 26.8188 43.9394 28.0368C43.9394 28.0588 43.9394 28.0808 43.9285 28.1047C43.666 29.8105 43.3014 31.4987 42.8369 33.1599Z" fill="#293231"/>
<g style="mix-blend-mode:screen" opacity="0.52">
<path d="M23.4636 15.749L22.5261 11.8879L22.3049 10.5103L23.5597 9.64453L43.2268 14.0963C43.9221 16.318 44.3072 18.6271 44.371 20.9565L23.4636 15.749Z" fill="#1E2625"/>
</g>
<g style="mix-blend-mode:screen" opacity="0.52">
<path d="M43.925 28.1084L22.8906 21.7013L22.4282 18.4216L44.3221 24.438C44.2514 25.612 44.1227 26.8226 43.9323 28.0405C43.9341 28.0625 43.925 28.0846 43.925 28.1084Z" fill="#1E2625"/>
</g>
<g style="mix-blend-mode:color-burn" opacity="0.29">
<path d="M35.1521 47.7736C31.7068 51.5302 27.7937 53.37 24.3049 52.3593L12.1558 48.8742L17.9184 28.3303L23.634 33.1636C21.7626 39.4625 28.2126 44.4041 35.1521 47.7736Z" fill="#1E2625"/>
</g>
<path d="M30.6776 29.6775C34.194 17.1405 31.6024 5.41541 24.8893 3.48867C18.1761 1.56193 9.88335 10.1632 6.36697 22.7002C2.85059 35.2371 5.44213 46.9623 12.1553 48.889C18.8685 50.8158 27.1612 42.2145 30.6776 29.6775Z" fill="#3B4443"/>
<g style="mix-blend-mode:screen">
<path d="M24.0567 4.26808C30.7659 6.19407 33.3625 17.9188 29.8447 30.456C28.0423 36.887 24.9814 42.2816 21.5235 45.7502C25.3169 42.3403 28.7259 36.6101 30.6715 29.671C34.1875 17.141 31.5945 5.40168 24.8853 3.48302C21.6214 2.54387 17.9694 4.10484 14.6855 7.40103C17.7446 4.64779 21.0593 3.4078 24.0567 4.26808Z" fill="#3B4443"/>
</g>
<path d="M24.1315 27.8001C25.9222 21.4156 24.6029 15.4447 21.1846 14.4636C17.7663 13.4826 13.5436 17.8629 11.7529 24.2473C9.96217 30.6318 11.2815 36.6027 14.6998 37.5837C18.1181 38.5648 22.3408 34.1845 24.1315 27.8001Z" fill="#0C0F0F"/>
<path d="M16.9666 25.7383C18.254 21.1526 20.7963 17.5978 23.3948 16.3248C22.7873 15.3619 21.9913 14.6905 21.0375 14.4135C17.6176 13.4322 13.3944 17.8124 11.6083 24.1975C9.82216 30.5826 11.1368 36.5532 14.5567 37.5346C15.5178 37.8097 16.5513 37.6611 17.5614 37.1677C16.0001 34.7006 15.6809 30.3259 16.9666 25.7383Z" fill="#1E2625"/>
<g style="mix-blend-mode:screen">
<path d="M12.0524 24.7369C13.8421 18.3517 18.0652 13.9715 21.4815 14.9528C22.1259 15.1446 22.7085 15.5061 23.1697 16.0002C22.653 15.2423 21.8984 14.6832 21.0282 14.4135C17.6083 13.4322 13.3851 17.8124 11.599 24.1976C10.1484 29.4014 10.7468 34.3283 12.8683 36.5056C11.1203 34.121 10.7033 29.5464 12.0524 24.7369Z" fill="#3B4443"/>
</g>
<path d="M86.019 39.2727L81.3535 39.3139L81.7963 90.6331L86.4617 90.5919L86.019 39.2727Z" fill="#915529"/>
<g style="mix-blend-mode:multiply" opacity="0.5">
<path d="M82.3254 39.3054L81.3535 39.314L81.7963 90.6331L82.7682 90.6245L82.3254 39.3054Z" fill="#A46532"/>
</g>
<g style="mix-blend-mode:screen" opacity="0.72">
<path d="M86.0187 39.2727L85.0469 39.2813L85.4896 90.6006L86.4615 90.592L86.0187 39.2727Z" fill="#A46532"/>
</g>
<path d="M109.252 62.3691L58.519 62.817L58.5598 67.5364L109.292 67.0885L109.252 62.3691Z" fill="#915529"/>
<g style="mix-blend-mode:multiply" opacity="0.5">
<path d="M109.253 62.3691L58.521 62.8171L58.5295 63.8005L109.262 63.3526L109.253 62.3691Z" fill="#A46532"/>
</g>
<g style="mix-blend-mode:screen" opacity="0.72">
<path d="M109.284 66.1055L58.5515 66.5533L58.56 67.5364L109.292 67.0885L109.284 66.1055Z" fill="#A46532"/>
</g>
<path d="M98.7174 46.2446L63.2034 82.6826L66.516 85.9863L102.03 49.5483L98.7174 46.2446Z" fill="#915529"/>
<g style="mix-blend-mode:multiply" opacity="0.5">
<path d="M100.03 44.9971L64.4702 81.6021L65.1634 82.2913L100.724 45.6862L100.03 44.9971Z" fill="#A46532"/>
</g>
<g style="mix-blend-mode:screen" opacity="0.72">
<path d="M102.664 47.6162L67.1035 84.221L67.7968 84.9102L103.357 48.3053L102.664 47.6162Z" fill="#A46532"/>
</g>
<path d="M67.4562 45.2844L64.186 48.6507L100.372 84.6221L103.643 81.2558L67.4562 45.2844Z" fill="#915529"/>
<g style="mix-blend-mode:multiply" opacity="0.5">
<path d="M67.4569 45.2854L66.7756 45.9867L102.962 81.9583L103.643 81.257L67.4569 45.2854Z" fill="#A46532"/>
</g>
<g style="mix-blend-mode:screen" opacity="0.72">
<path d="M64.8653 47.9495L64.1841 48.6507L100.37 84.6221L101.052 83.9208L64.8653 47.9495Z" fill="#A46532"/>
</g>
<path d="M82.9872 36.6378C77.4321 36.687 72.0163 38.4014 67.4244 41.5642C62.8325 44.727 59.271 49.1962 57.19 54.4065C55.1091 59.6169 54.6023 65.3345 55.7337 70.8362C56.8651 76.338 59.5839 81.3768 63.5463 85.3154C67.5087 89.2541 72.5367 91.9158 77.9945 92.9639C83.4523 94.0119 89.0948 93.3993 94.2084 91.2035C99.322 89.0077 103.677 85.3273 106.723 80.6277C109.769 75.9282 111.369 70.4205 111.32 64.8012C111.288 61.07 110.53 57.3817 109.089 53.947C107.647 50.5123 105.551 47.3984 102.92 44.7831C100.289 42.1679 97.1748 40.1025 93.7547 38.7049C90.3345 37.3073 86.6757 36.6049 82.9872 36.6378ZM83.4024 84.615C79.577 84.6489 75.8275 83.5346 72.6281 81.413C69.4287 79.2913 66.9231 76.2576 65.4282 72.6955C63.9333 69.1333 63.5161 65.2027 64.2296 61.4008C64.943 57.5988 66.7549 54.0963 69.4362 51.336C72.1175 48.5757 75.5477 46.6818 79.2931 45.8936C83.0385 45.1054 86.9309 45.4584 90.4779 46.9079C94.025 48.3574 97.0675 50.8384 99.2207 54.0371C101.374 57.2358 102.541 61.0085 102.574 64.8782C102.619 70.0671 100.624 75.0613 97.0288 78.7626C93.4334 82.4638 88.532 84.5689 83.4024 84.615Z" fill="#A46532"/>
<g style="mix-blend-mode:screen" opacity="0.72">
<path d="M82.6064 37.6229C87.1553 37.5849 91.6454 38.6645 95.691 40.7688C99.7366 42.8732 103.217 45.9394 105.833 49.7042C108.448 53.469 110.122 57.8198 110.709 62.383C111.296 66.9462 110.78 71.5854 109.204 75.9021C110.632 72.4111 111.358 68.6669 111.339 64.8887C111.32 61.1105 110.557 57.374 109.093 53.8978C107.63 50.4217 105.496 47.2756 102.816 44.6435C100.137 42.0115 96.965 39.9464 93.4869 38.569C90.0089 37.1915 86.2943 36.5295 82.5603 36.6215C78.8263 36.7135 75.1479 37.5577 71.7403 39.1048C68.3327 40.6519 65.2642 42.8707 62.7144 45.6316C60.1646 48.3925 58.1845 51.64 56.8901 55.1841C58.9994 50.0267 62.5626 45.6114 67.1356 42.4886C71.7086 39.3658 77.0891 37.6735 82.6064 37.6229Z" fill="#A46532"/>
</g>
<g style="mix-blend-mode:screen" opacity="0.72">
<path d="M83.0215 85.5999C86.98 85.5653 90.8326 84.3032 94.0596 81.9839C97.2866 79.6646 99.7326 76.3997 101.067 72.6299C99.1129 77.327 95.4241 81.0676 90.7854 83.0562C86.1467 85.0448 80.924 85.1245 76.2282 83.2783C71.5323 81.432 67.7336 77.8056 65.64 73.1702C63.5464 68.5348 63.323 63.256 65.0173 58.4565C63.7777 61.4445 63.2908 64.6971 63.6003 67.9223C63.9099 71.1476 65.0061 74.2446 66.7908 76.9356C68.5755 79.6265 70.9927 81.8272 73.8255 83.34C76.6584 84.8529 79.8182 85.6307 83.0215 85.6036V85.5999Z" fill="#A46532"/>
</g>
<g style="mix-blend-mode:multiply" opacity="0.5">
<path d="M83.0631 45.4844C86.1776 45.4586 89.2522 46.1936 92.0257 47.6268C94.7993 49.0601 97.19 51.1494 98.9947 53.7171C100.799 56.2849 101.965 59.2553 102.392 62.3761C102.819 65.4969 102.495 68.6759 101.448 71.6431C102.451 69.2323 102.967 66.6426 102.963 64.027C102.96 61.4114 102.439 58.823 101.43 56.4147C100.421 54.0065 98.9449 51.8272 97.0892 50.0058C95.2335 48.1844 93.0357 46.7578 90.6256 45.8102C88.2156 44.8627 85.6422 44.4135 83.0576 44.4891C80.473 44.5648 77.9296 45.1638 75.5778 46.2508C73.2259 47.3377 71.1133 48.8905 69.3649 50.8175C67.6164 52.7444 66.2675 55.0063 65.3979 57.4696C66.8629 53.9445 69.3167 50.9308 72.4561 48.8008C75.5956 46.6708 79.2831 45.5178 83.0631 45.4844Z" fill="#A46532"/>
</g>
<g style="mix-blend-mode:multiply" opacity="0.5">
<path d="M83.8591 92.4767C79.31 92.5142 74.8199 91.4342 70.7744 89.3294C66.7289 87.2246 63.2489 84.1579 60.6334 80.3927C58.0178 76.6275 56.3449 72.2764 55.7582 67.713C55.1716 63.1495 55.6887 58.5103 57.2652 54.1936C55.8508 57.6819 55.1366 61.42 55.1644 65.1901C55.1921 68.9603 55.9611 72.6872 57.4267 76.1538C58.8922 79.6204 61.0251 82.7574 63.7009 85.382C66.3767 88.0066 69.542 90.0664 73.0124 91.4414C76.4829 92.8165 80.1891 93.4793 83.9153 93.3912C87.6415 93.3031 91.3131 92.4659 94.7163 90.9283C98.1195 89.3908 101.186 87.1836 103.738 84.4354C106.29 81.6872 108.275 78.4529 109.579 74.9209C107.47 80.0788 103.906 84.4943 99.3323 87.6163C94.7583 90.7384 89.3768 92.4288 83.8591 92.4767Z" fill="#A46532"/>
</g>
<path d="M88.0033 69.7769C90.5844 67.1659 90.5844 62.9325 88.0033 60.3215C85.4221 57.7104 81.2372 57.7104 78.656 60.3215C76.0749 62.9325 76.0749 67.1659 78.656 69.7769C81.2372 72.388 85.4221 72.388 88.0033 69.7769Z" fill="#A46532"/>
<g style="mix-blend-mode:multiply" opacity="0.5">
<path d="M84.3488 70.546C83.1575 70.5569 81.9854 70.2419 80.9567 69.6343C79.9279 69.0266 79.0807 68.1489 78.5046 67.094C77.9286 66.0392 77.6452 64.8464 77.6844 63.6419C77.7237 62.4375 78.0841 61.2662 78.7275 60.252C78.0535 60.9067 77.5245 61.6986 77.1752 62.5754C76.826 63.4521 76.6647 64.3939 76.7017 65.3384C76.7388 66.2829 76.9735 67.2087 77.3904 68.0548C77.8072 68.9008 78.3966 69.6477 79.1199 70.2463C79.8431 70.8449 80.6836 71.2815 81.5859 71.5274C82.4882 71.7732 83.4318 71.8226 84.3544 71.6724C85.277 71.5221 86.1575 71.1756 86.938 70.6558C87.7185 70.136 88.381 69.4546 88.882 68.6566C87.6676 69.8531 86.0439 70.5298 84.3488 70.546Z" fill="#A46532"/>
</g>
<path d="M85.9444 67.6466C87.3819 66.1925 87.3819 63.8349 85.9444 62.3807C84.5068 60.9266 82.1761 60.9266 80.7386 62.3807C79.3011 63.8349 79.3011 66.1925 80.7386 67.6466C82.1762 69.1007 84.5068 69.1008 85.9444 67.6466Z" fill="#28292B"/>
<g style="mix-blend-mode:color-burn" opacity="0.29">
<path d="M85.2827 67.2646C84.6142 67.2701 83.9568 67.0915 83.381 66.7479C82.8052 66.4043 82.3328 65.9087 82.0143 65.3141C81.6958 64.7195 81.5433 64.0485 81.5731 63.3729C81.603 62.6973 81.8141 62.0427 82.1837 61.4792C81.6273 61.6662 81.1231 61.9849 80.7131 62.4088C80.303 62.8327 79.999 63.3496 79.8263 63.9163C79.6537 64.4831 79.6173 65.0834 79.7204 65.6672C79.8234 66.2511 80.0627 66.8016 80.4186 67.273C80.7744 67.7443 81.2364 68.1229 81.7661 68.3771C82.2958 68.6313 82.8779 68.7539 83.4639 68.7346C84.0499 68.7153 84.6228 68.5547 85.1351 68.2661C85.6473 67.9776 86.084 67.5694 86.4088 67.0756C86.0454 67.1976 85.6655 67.2613 85.2827 67.2646Z" fill="#1E2625"/>
</g>
<g style="mix-blend-mode:color-burn" opacity="0.29">
<path d="M83.8483 68.0864C83.1992 68.0923 82.5602 67.9244 81.9959 67.5998C81.4317 67.2751 80.9625 66.8053 80.6358 66.2379C80.3091 65.6705 80.1366 65.0257 80.1359 64.3691C80.1351 63.7125 80.3061 63.0674 80.6315 62.4993C80.2965 62.8787 80.0419 63.3235 79.8836 63.8063C79.7252 64.2891 79.6663 64.7996 79.7106 65.3064C79.7549 65.8131 79.9014 66.3052 80.1411 66.7524C80.3808 67.1996 80.7086 67.5924 81.1043 67.9064C81.4999 68.2204 81.9549 68.4491 82.4413 68.5782C82.9278 68.7074 83.4352 68.7343 83.9323 68.6573C84.4294 68.5803 84.9056 68.4011 85.3316 68.1306C85.7575 67.8602 86.1241 67.5043 86.4087 67.0849L86.3053 67.1142C85.6337 67.735 84.7581 68.0814 83.8483 68.0864Z" fill="#1E2625"/>
</g>
<g style="mix-blend-mode:screen" opacity="0.52">
<path d="M83.7976 62.0971C84.4304 61.2808 86.3072 62.5062 85.7922 63.5904C85.2773 64.6746 83.1648 62.9117 83.7976 62.0971Z" fill="#1E2625"/>
</g>
</svg>
