<svg width="116" height="85" viewBox="0 0 116 85" fill="none" xmlns="http://www.w3.org/2000/svg">
<g style="mix-blend-mode:multiply" opacity="0.54">
<g style="mix-blend-mode:multiply" opacity="0.54">
<path d="M52.6255 84.9717C76.8786 84.9717 96.5396 84.2612 96.5396 83.3848C96.5396 82.5083 76.8786 81.7979 52.6255 81.7979C28.3724 81.7979 8.71143 82.5083 8.71143 83.3848C8.71143 84.2612 28.3724 84.9717 52.6255 84.9717Z" fill="#4A5557"/>
</g>
</g>
<path d="M113.158 6.97695C113.158 6.97695 107.362 6.89309 102.164 10.2476C101.041 9.75858 99.863 9.41281 98.656 9.21819C98.163 9.1321 97.6652 9.07718 97.1654 9.05376C97.245 9.05376 97.6921 9.08994 98.4398 9.43032C99.1672 9.77518 99.8492 10.2105 100.47 10.7261C100.62 10.8461 100.772 10.9744 100.93 11.1125C98.1423 13.2764 95.691 16.5651 94.6442 21.5738C93.896 21.7572 93.1629 21.9985 92.4513 22.2957C90.7282 23.0241 89.1774 24.1373 88.3387 25.8343C89.8235 24.8876 91.4922 24.2747 93.2316 24.037C93.5664 23.9861 93.9127 23.9515 94.2719 23.9302C94.2112 24.4958 94.1663 25.0812 94.137 25.6863C93.076 25.7378 92.0651 26.1577 91.2744 26.8752C91.2744 26.8752 92.2189 26.4 94.1045 27.0528C94.1045 27.944 94.137 28.8731 94.2118 29.8482C94.4867 33.6597 94.2179 37.4913 93.4136 41.2254C93.3454 41.5542 93.269 41.8963 93.1926 42.2284L90.8339 43.215H92.9471C92.8675 43.5225 92.7845 43.83 92.7 44.1342C91.4435 48.6414 89.5741 52.7868 87.5324 56.4224C82.2673 65.7952 75.8545 71.7822 75.8545 71.7822C77.9547 66.7768 78.9772 61.6185 79.3982 56.4701C79.9232 50.0062 79.5006 43.5521 79.0731 37.4204C79.0438 37.0076 79.0146 36.5982 78.9869 36.1871C82.672 36.9682 85.164 38.4152 85.2501 38.4612C84.1691 36.3663 81.2643 34.8831 79.182 34.0527L78.8309 33.9163C78.6553 31.2623 78.5057 28.684 78.4879 26.2076L80.8465 27.1728L78.4944 24.6602C78.5724 17.6932 79.7412 11.6041 83.9204 7.02793C84.0277 7.42093 84.1285 7.81721 84.2195 8.21021C84.2202 8.21457 84.2202 8.21901 84.2195 8.22338C84.2195 8.22338 84.2195 8.23653 84.2195 8.2464C84.7216 10.4721 85.0666 12.7311 85.2518 15.0063C86.0051 12.0204 86.1451 8.90984 85.663 5.86702C85.6386 5.71574 85.6143 5.56776 85.5866 5.4247C87.2674 3.99741 89.3254 2.75428 91.8238 1.72163C92.2573 1.53856 92.7103 1.36317 93.1828 1.19545C95.7837 0.258171 98.1505 -0.0575541 100.273 0.0328849C99.2551 1.73315 98.3603 3.50604 97.5962 5.33754C97.7051 5.13036 98.8966 2.93186 102.31 0.254867L102.552 0.299268C109.425 1.58515 113.158 6.97695 113.158 6.97695Z" fill="#D9D145"/>
<path d="M91.0939 2.60148C91.5274 2.4195 91.9809 2.2441 92.4545 2.07528C95.0554 1.13796 97.4205 0.822225 99.5451 0.912668C98.5259 2.61274 97.6305 4.38573 96.8662 6.21753C97.142 5.72309 97.4596 5.25379 97.8155 4.81486C98.5332 3.16489 99.3558 1.56371 100.278 0.0214115C98.1553 -0.069031 95.7868 0.246687 93.1876 1.184C92.7216 1.35173 92.2686 1.52714 91.8286 1.71022C89.3253 2.74291 87.2771 3.98607 85.5914 5.41341C85.6077 5.49892 85.6223 5.58938 85.6369 5.67653C87.3162 4.41613 89.1506 3.38241 91.0939 2.60148Z" fill="#EEE75F"/>
<path d="M83.1872 7.91126C83.2945 8.30426 83.3937 8.70054 83.4847 9.09354V9.10671C83.4857 9.11435 83.4857 9.12209 83.4847 9.12973C83.9878 11.3553 84.3333 13.6143 84.5185 15.8896C84.7539 14.9348 84.9304 13.966 85.0468 12.989C84.8527 11.3921 84.5765 9.8064 84.2194 8.23849C84.2194 8.22862 84.2194 8.22204 84.2194 8.21546C84.2201 8.2111 84.2201 8.20668 84.2194 8.20232C84.1284 7.80932 84.0276 7.41302 83.9203 7.02002C83.5855 7.38835 83.2696 7.76601 82.9727 8.15298C83.0442 8.07241 83.1141 7.99184 83.1872 7.91126Z" fill="#EEE75F"/>
<path d="M80.1199 28.0688L78.4944 26.3328C78.4944 26.6912 78.5009 27.0512 78.5139 27.4129L80.1199 28.0688Z" fill="#EEE75F"/>
<path d="M94.1418 25.6913C94.1711 25.0863 94.216 24.5009 94.2767 23.9353C93.9175 23.9567 93.5712 23.9912 93.2364 24.0422C91.497 24.2798 89.8284 24.8927 88.3435 25.8393C88.4687 25.5876 88.6116 25.3453 88.771 25.1142C88.3004 25.5864 87.9079 26.1321 87.6088 26.7305C89.0936 25.7838 90.7623 25.171 92.5017 24.9334C92.8365 24.8824 93.1827 24.8478 93.5436 24.8265C93.5095 25.1372 93.4819 25.4529 93.4575 25.7752C93.6831 25.7291 93.9119 25.701 94.1418 25.6913Z" fill="#EEE75F"/>
<path d="M79.0681 37.271C82.3062 38.0751 84.4503 39.3149 84.5234 39.3577C84.0732 38.5526 83.4607 37.8523 82.7256 37.3023C81.51 36.8339 80.2599 36.4628 78.9868 36.1924C79.0177 36.5508 79.0437 36.9109 79.0681 37.271Z" fill="#EEE75F"/>
<path d="M94.1093 27.0579C93.5854 26.8714 93.0382 26.7607 92.4837 26.729C91.7621 26.9223 91.0944 27.2819 90.5331 27.7797C90.5331 27.7797 91.4775 27.3045 93.3648 27.9573C93.3648 28.8486 93.3973 29.7776 93.4705 30.7527C93.7454 34.5642 93.4766 38.3958 92.6723 42.1298C92.6479 42.2498 92.6219 42.3699 92.5959 42.4883L93.186 42.2416C93.2624 41.9128 93.3388 41.5839 93.4071 41.2386C94.2113 37.5046 94.4801 33.6729 94.2052 29.8615C94.1418 28.8782 94.1093 27.9491 94.1093 27.0579Z" fill="#EEE75F"/>
<path d="M90.104 44.1113H92.2172C92.1376 44.4188 92.0546 44.7262 91.9701 45.0304C90.7136 49.5376 88.8442 53.6829 86.8025 57.3185C84.8183 60.8292 82.5448 64.1642 80.0061 67.2881C82.8401 63.9117 85.3611 60.2789 87.5373 56.4355C89.5789 52.7999 91.4483 48.6546 92.7049 44.1474C92.7894 43.8432 92.8674 43.5358 92.9519 43.2283H92.2286L90.104 44.1113Z" fill="#EEE75F"/>
<path d="M97.9229 10.1095C97.4298 10.0236 96.932 9.96865 96.4323 9.94507C96.5103 9.94507 96.9573 9.98125 97.7051 10.3217C98.4325 10.6666 99.1145 11.1019 99.7354 11.6175C99.8313 11.6948 99.9304 11.782 100.031 11.8625C100.325 11.5994 100.626 11.3495 100.93 11.1127C100.794 10.9942 100.662 10.8824 100.532 10.7838C99.6834 10.4821 98.8104 10.2565 97.9229 10.1095Z" fill="#EEE75F"/>
<path d="M102.565 0.28781L102.323 0.243408C100.875 1.34713 99.5704 2.63111 98.4398 4.06498C99.3988 2.99302 100.453 2.01217 101.588 1.13468C101.67 1.14783 101.751 1.16262 101.831 1.17906C107.032 2.1657 110.427 5.49067 111.771 7.04956C112.639 6.96899 113.158 6.9772 113.158 6.9772C113.158 6.9772 109.425 1.58524 102.565 0.28781Z" fill="#EEE75F"/>
<path d="M94.0784 21.7302C94.2669 21.676 94.4555 21.625 94.6441 21.5789C95.2943 18.4727 96.4826 16.0276 97.9586 14.1021C96.2777 16.0046 94.8781 18.4892 94.0784 21.7302Z" fill="#EEE75F"/>
<path d="M98.4447 9.43529C99.1721 9.78015 99.8542 10.2154 100.475 10.731C98.2806 10.1621 95.7122 10.0733 93.1877 11.2852C86.7278 14.4094 87.1732 24.8017 87.1732 24.8017C88.7028 22.9798 90.951 22.4421 92.4611 22.3007C90.738 23.0291 89.1873 24.1423 88.3485 25.8393C89.8333 24.8926 91.502 24.2797 93.2414 24.042C88.2981 25.2128 88.2022 31.0404 88.9353 35.4966C89.6684 39.9527 89.6684 42.3288 89.6684 42.3288C91.1103 40.9558 92.505 40.9706 93.4234 41.2287C93.3552 41.5576 93.2788 41.8996 93.2024 42.2318L90.8437 43.2184H92.9569C92.8772 43.5259 92.7943 43.8334 92.7098 44.1376C91.5719 44.3316 90.0862 44.7378 88.932 45.5945C87.2642 46.831 86.1865 51.2132 87.5422 56.4258C82.2771 65.7986 75.8643 71.7856 75.8643 71.7856C77.9645 66.7803 78.9869 61.6219 79.408 56.4735C81.0335 53.8754 82.2023 50.7183 81.8837 47.229C81.4139 42.092 80.1557 39.101 79.0812 37.4237C79.052 37.011 79.0227 36.6016 78.9951 36.1905C82.6802 36.9715 85.1721 38.4185 85.2583 38.4646C84.1773 36.3697 81.2725 34.8865 79.1901 34.0561C81.2266 34.2908 83.1415 35.1563 84.6731 36.5341C83.4978 31.7803 80.5621 28.0674 80.5621 28.0674L83.6506 29.5473C83.6506 29.5473 83.3564 27.3192 84.2375 20.0413C85.073 13.1351 84.3122 8.6723 84.2375 8.23162C84.7396 10.4573 85.0845 12.7163 85.2697 14.9915C86.0231 12.0056 86.163 8.89508 85.6809 5.85225C86.54 8.35634 86.7526 11.0409 86.2987 13.6514C88.88 10.9349 90.8794 4.99391 91.8401 1.70357C92.2736 1.5205 92.7266 1.34509 93.1991 1.17736C95.8 0.240086 98.1668 -0.07562 100.29 0.0148191C99.2714 1.71508 98.3766 3.48798 97.6125 5.31949C97.7214 5.1123 98.9129 2.9138 102.327 0.236802L102.569 0.281203C100.095 1.96666 98.9178 4.74232 98.9178 4.74232C102.296 3.55345 107.728 5.33593 107.728 5.33593C102.939 5.46418 99.529 8.38785 98.6593 9.21166C98.1663 9.12557 97.6685 9.07065 97.1687 9.04723C97.2483 9.04723 97.6954 9.08339 98.4431 9.42377L98.4447 9.43529Z" fill="#BCB536"/>
<path d="M107.733 5.34266C106.81 5.38213 105.888 5.42816 104.97 5.51695C104.051 5.60575 103.136 5.70934 102.227 5.84582C100.412 6.1168 98.6261 6.56449 96.8955 7.18267C95.1755 7.78417 93.5575 8.65051 92.0986 9.75112C90.658 10.8503 89.4432 12.2232 88.5224 13.7929C87.6237 15.3769 86.9867 17.0987 86.6367 18.8903C86.2838 20.6914 86.1203 22.5252 86.1491 24.3611C86.1718 28.0493 86.7294 31.7326 87.4495 35.3781C87.5438 35.827 87.6121 36.3072 87.695 36.7758L87.7535 37.1293L87.7941 37.4845L87.8721 38.1949C87.903 38.4316 87.9161 38.6701 87.9291 38.9068L87.9713 39.6188C87.9908 39.8573 87.986 40.0941 87.9908 40.3325L88.0006 41.0445C87.9879 42.9391 87.8287 44.8299 87.5243 46.6994C87.2199 48.5612 86.8074 50.4033 86.2889 52.2161C84.7406 57.6489 82.3554 62.8008 79.221 67.4821C78.1717 69.0329 77.0066 70.5001 75.7358 71.8708C75.0968 72.5508 74.4223 73.1957 73.7153 73.8029C73.5365 73.9526 73.3593 74.1055 73.1789 74.2518L72.6213 74.6695L72.3433 74.88L72.0524 75.0707L71.472 75.4539L72.0296 75.0395L72.3076 74.8323L72.5742 74.6087L73.1041 74.1598C73.2764 74.0052 73.4422 73.844 73.6112 73.6862C74.2838 73.0512 74.9224 72.3804 75.5245 71.6768C76.7242 70.2678 77.8196 68.7713 78.8016 67.1993C79.7914 65.6348 80.6955 64.0166 81.5098 62.3518C82.3258 60.6888 83.0616 58.9897 83.7173 57.2543C85.0096 53.7848 86.0223 50.2018 86.562 46.5481C87.1017 42.8944 87.2122 39.1749 86.4417 35.5771C86.0889 33.7371 85.7752 31.8822 85.5476 30.0126C85.3079 28.1385 85.1868 26.2508 85.1851 24.3611C85.1815 22.4584 85.3771 20.5606 85.7687 18.6996C86.1586 16.82 86.8616 15.0213 87.8478 13.3802C88.8489 11.7452 90.1612 10.3277 91.7085 9.21014C93.2502 8.1174 94.9501 7.27312 96.7476 6.70745C98.5244 6.14416 100.353 5.76243 102.205 5.56794C104.041 5.37038 105.887 5.29513 107.733 5.34266Z" fill="#7A141E"/>
<path d="M114.147 58.7082C113.98 59.0584 113.792 59.3982 113.585 59.7261C113.154 57.4618 112.314 55.6004 111.164 54.1074C110.87 53.7222 110.55 53.357 110.209 53.0139C110.6 52.0622 110.867 51.0627 111.002 50.0409C111.02 49.9044 111.026 49.8288 111.026 49.8288C111.018 49.8842 111.007 49.9391 110.992 49.9932C110.895 50.3797 110.548 51.3531 109.394 52.2641C109.232 52.1292 109.069 52.001 108.907 51.8776C109.044 51.6951 109.158 51.4956 109.246 51.284C109.059 51.442 108.853 51.5756 108.634 51.682C106.647 50.2958 104.233 49.5065 101.619 49.2154L101.558 49.13C100.728 47.9904 99.654 46.3083 99.5288 45.0915C99.4568 46.2061 99.5874 47.3246 99.9141 48.3916C99.9824 48.6235 100.062 48.8652 100.156 49.1102C97.9193 49.041 95.6827 49.262 93.5013 49.7679C93.1762 49.8414 92.8511 49.9209 92.526 50.0064C91.8774 49.4446 91.3182 48.7851 90.8679 48.0513C91.0289 48.821 91.3151 49.5584 91.7148 50.2333L91.5116 50.2941C88.5521 51.1725 85.7427 52.5033 83.1807 54.2406C80.2548 56.2516 77.8912 58.746 76.5583 61.5332L75.4058 61.303C75.4058 61.303 77.8213 54.0251 83.2945 47.7191C83.3851 48.1135 83.5108 48.4987 83.67 48.8701C83.6023 48.3577 83.5914 47.8393 83.6375 47.3245C83.9919 46.9315 84.3576 46.5385 84.7364 46.1553C87.8834 42.9587 91.8888 40.2209 96.8483 39.1406C96.6647 39.6884 96.5367 40.2537 96.4663 40.8277C96.7573 40.114 97.3912 39.4316 97.9439 38.9334C100.785 38.4697 103.923 38.5453 107.372 39.3724C107.471 39.4086 107.566 39.4481 107.661 39.4859C107.142 39.8259 106.652 40.2111 106.198 40.6369C105.222 41.5429 104.413 42.6168 103.807 43.8089C104.869 42.4137 106.23 41.2808 107.788 40.4955L107.821 40.4791C108.183 40.2949 108.529 40.1387 108.846 40.0071C114.655 42.8025 116.078 47.6616 115.836 51.9533L114.271 52.2641L115.765 52.833C115.556 54.8694 115.009 56.8557 114.147 58.7082Z" fill="#D9D145"/>
<path d="M104.418 43.1051C104.16 43.4786 103.93 43.871 103.729 44.2792C104.791 42.8836 106.153 41.7506 107.712 40.9658L107.743 40.9494C108.105 40.7652 108.451 40.6073 108.768 40.4774C114.388 43.1791 115.903 47.8145 115.786 52.001L115.853 51.9862C116.087 47.6945 114.663 42.8321 108.863 40.04C108.538 40.1716 108.199 40.3278 107.837 40.512L107.804 40.5284C106.531 41.1736 105.384 42.0466 104.418 43.1051Z" fill="#EEE75F"/>
<path d="M108.926 51.9037L109.033 51.9844C109.079 51.9016 109.12 51.8165 109.157 51.7292C109.084 51.7925 109.007 51.8508 108.926 51.9037Z" fill="#EEE75F"/>
<path d="M110.839 50.9697C110.695 51.6685 110.484 52.3514 110.209 53.0089L110.272 53.0747C110.525 52.3922 110.715 51.6876 110.839 50.9697Z" fill="#EEE75F"/>
<path d="M96.5168 40.5285C96.4583 40.7828 96.4138 41.0402 96.3835 41.2996C96.6761 40.5876 97.3101 39.9053 97.8628 39.4072C100.685 38.9468 103.801 39.0191 107.226 39.8297C107.369 39.7261 107.517 39.6225 107.67 39.5222C107.574 39.4844 107.48 39.445 107.38 39.4088C103.926 38.5867 100.789 38.5062 97.9522 38.9698C97.3995 39.4631 96.7655 40.1503 96.4746 40.8639C96.4632 40.8639 96.4746 40.7389 96.5168 40.5285Z" fill="#EEE75F"/>
<path d="M114.203 52.7346L115.695 53.3034C115.648 53.7539 115.583 54.1945 115.503 54.6187C115.62 54.0531 115.716 53.4678 115.781 52.8595L115.014 52.5669L114.203 52.7346Z" fill="#EEE75F"/>
<path d="M99.5077 45.9285C99.4771 45.8024 99.4542 45.6744 99.4395 45.5454C99.3686 46.66 99.4997 47.7784 99.8263 48.8453C99.8524 48.9358 99.8816 49.0295 99.9125 49.1216C99.9922 49.1216 100.075 49.1216 100.153 49.1216C100.059 48.8766 99.9791 48.6283 99.9109 48.4031C99.6733 47.5988 99.5379 46.7673 99.5077 45.9285Z" fill="#EEE75F"/>
<path d="M90.7803 48.5134C90.9083 49.1509 91.1274 49.7661 91.4305 50.3398L91.502 50.3185L91.7052 50.2576C91.4931 49.8824 91.3089 49.4917 91.1542 49.0888C91.0194 48.904 90.8946 48.7119 90.7803 48.5134Z" fill="#EEE75F"/>
<path d="M83.2052 48.1877C83.2957 48.5823 83.422 48.9676 83.5823 49.3388C83.542 49.0733 83.5225 48.805 83.5238 48.5363C83.4327 48.2775 83.3551 48.0141 83.2913 47.7471C77.8181 54.0531 75.4026 61.3308 75.4026 61.3308L75.4692 61.344C76.0723 59.7079 78.5155 53.591 83.2052 48.1877Z" fill="#EEE75F"/>
<path d="M84.6503 46.6289C87.7876 43.4423 91.7783 40.7095 96.7134 39.6259C96.7524 39.4828 96.7963 39.3332 96.8484 39.177C91.8904 40.2573 87.8835 42.995 84.7364 46.1915C84.3577 46.5746 83.9919 46.9676 83.6375 47.3606C83.6375 47.4823 83.6229 47.604 83.618 47.7273C83.948 47.3524 84.291 46.989 84.6503 46.6289Z" fill="#EEE75F"/>
<path d="M114.147 58.7084C113.98 59.0585 113.792 59.3984 113.585 59.7262C113.154 57.4619 112.314 55.6005 111.165 54.1074C111.335 52.9136 111.392 51.4205 111.002 50.0409L110.992 50.0015C110.739 49.0655 110.233 48.2197 109.529 47.5596C106.355 44.654 101.977 44.8398 101.606 45.9777C101.33 47.0135 101.314 48.1027 101.559 49.1464C100.73 48.0069 99.6558 46.3247 99.5306 45.1078C99.4586 46.2225 99.5892 47.3411 99.9158 48.4081C99.0673 46.5878 99.012 45.4597 99.012 45.4597C99.012 45.4597 96.4762 44.6507 94.35 46.3444C92.9276 47.4774 93.1796 48.9458 93.503 49.7976C93.1779 49.871 92.8528 49.9505 92.5277 50.036C91.8792 49.4742 91.32 48.8147 90.8697 48.0809C91.0307 48.8506 91.3169 49.588 91.7166 50.2629L91.5134 50.3238C90.9266 49.3865 90.1268 48.4574 89.2864 48.515C88.0542 48.6054 84.8974 51.0292 83.1825 54.2702C82.5712 54.6912 81.9855 55.1324 81.4252 55.5939C79.312 57.3386 77.6133 59.3579 76.56 61.563L75.4075 61.3328C75.4075 61.3328 77.823 54.0548 83.2963 47.7487C83.3869 48.143 83.5125 48.5283 83.6717 48.8998C83.604 48.3873 83.5931 47.8689 83.6392 47.354C83.7173 47.2685 83.8018 47.1896 83.8749 47.0959C84.1545 46.7878 84.4423 46.4842 84.7381 46.1849C85.4666 46.0391 86.2052 45.9506 86.9472 45.9202C91.3248 45.7344 95.2635 43.1905 95.9235 42.1102C96.3979 41.3651 96.9352 40.6631 97.5295 40.012C97.0002 40.8189 96.6222 41.7174 96.4144 42.6627C98.8316 41.7829 101.972 42.5607 102.978 42.0049C104.645 40.3704 106.212 40.6631 106.212 40.6631C106.088 40.7799 105.969 40.895 105.857 41.0101C105.039 41.8377 104.353 42.7898 103.825 43.8318C103.91 43.7167 103.988 43.6049 104.087 43.5029C105.111 42.2621 106.377 41.2483 107.806 40.525C105.581 41.6958 104.945 43.4602 104.945 43.4602C105.921 42.2927 107.709 41.5889 107.709 41.5889C106.954 42.1814 106.342 42.94 105.921 43.8071C107.759 42.0559 110.206 41.7862 110.206 41.7862C108.743 42.4029 107.562 43.8335 107.562 43.8335C111.626 46.0073 112.99 49.7614 112.99 49.7614C114.386 50.0409 115.513 50.9766 115.581 51.0341C114.768 50.5737 113.143 50.5408 113.143 50.5408C114.215 53.1178 114.563 55.9442 114.147 58.7084Z" fill="#BCB536"/>
<path d="M74.9474 63.6675C76.349 59.7795 78.4077 56.1674 81.0318 52.9924C82.3521 51.4005 83.8335 49.9527 85.4517 48.6727C87.0755 47.3896 88.8413 46.302 90.7135 45.4316C92.5933 44.5661 94.5805 43.9626 96.6208 43.6377C97.6428 43.4806 98.6755 43.4047 99.7093 43.4107C100.742 43.4147 101.773 43.5087 102.79 43.6919C104.825 44.0535 106.773 44.8095 108.525 45.9184C110.258 47.0246 111.748 48.4799 112.902 50.1937C111.645 48.5887 110.096 47.2409 108.339 46.2226C106.594 45.2188 104.681 44.5499 102.695 44.2493C100.716 43.9576 98.7037 43.9804 96.7313 44.3168C94.7573 44.65 92.8359 45.2472 91.0175 46.0927C89.1923 46.9339 87.4674 47.982 85.8759 49.2169C85.0755 49.8301 84.3067 50.4843 83.5725 51.177C82.8394 51.8709 82.1355 52.601 81.4593 53.3591C78.7772 56.411 76.6412 59.9348 74.9474 63.6675Z" fill="#7A141E"/>
<path d="M85.5818 45.5633C85.3282 46.0161 85.0573 46.4699 84.769 46.9249C83.8067 46.8262 82.7078 46.8311 81.8804 47.1764H81.9048C82.7745 47.1104 83.6491 47.1613 84.5057 47.3277C82.7956 49.9357 80.5182 52.5897 77.5857 55.2437C77.0547 55.7249 76.5009 56.2056 75.9244 56.6858C75.2287 57.2679 74.4993 57.8494 73.7364 58.4304L72.3758 58.1591C73.8842 56.3251 75.1362 54.29 76.0967 52.1111C76.3158 52.3068 76.5116 52.5275 76.6803 52.7689C76.5968 52.4041 76.451 52.0569 76.2495 51.7428C76.4413 51.2758 76.6125 50.811 76.7632 50.3484C77.37 48.5287 77.6834 46.6221 77.6914 44.7017C78.7187 44.6918 79.3169 45.0914 79.3169 45.0914C78.9495 44.5981 78.3416 44.2692 77.6816 44.0439C77.667 43.697 77.6426 43.3517 77.6068 43.0129C77.3788 40.8115 76.6971 38.6829 75.6058 36.7644C77.3207 36.1806 78.3692 36.8992 78.5805 37.0604C77.4622 36.0392 76.1715 35.9356 75.188 36.0737C74.0075 34.2156 72.4465 32.6354 70.6105 31.4399C71.2688 29.6311 72.4539 29.1773 72.527 29.151C71.9876 29.2412 71.48 29.4699 71.0531 29.8155C70.6261 30.161 70.2941 30.6116 70.0887 31.1242C68.4666 30.1537 66.6433 29.5789 64.7634 29.4453C64.5748 26.6187 65.9874 24.2689 65.9874 24.2689C64.435 25.8458 63.9376 28.0295 63.7816 29.4355C62.6646 29.476 61.5636 29.7176 60.5305 30.1491C60.1645 30.3025 59.8088 30.4799 59.4657 30.6802C58.84 31.0436 58.2556 31.4753 57.7232 31.9678C57.5259 32.1486 57.3336 32.3399 57.1461 32.5417C57.0452 32.0554 57.0064 31.558 57.0307 31.0617C56.8708 31.6746 56.79 32.3058 56.7901 32.9396C56.0891 33.7727 55.4889 34.6874 55.002 35.6643C55.002 35.6643 53.669 29.7627 56.7901 24.1784C56.8551 24.0617 56.9201 23.9466 56.99 23.8315C58.5408 24.8493 60.524 24.749 60.524 24.749C60.524 24.749 58.7359 24.3248 57.624 22.8547C57.9151 22.4403 58.2271 22.0413 58.5587 21.6593C59.2 20.9182 59.9074 20.2384 60.6719 19.6285C62.334 18.2648 64.2483 17.2502 66.3028 16.644C66.7257 17.4439 67.1918 18.2195 67.6991 18.9675C68.7687 20.5263 70.0302 21.8846 71.4249 22.4881C71.4249 22.4881 71.316 22.3598 71.1323 22.1214C70.4821 21.2712 68.9134 19.0234 68.125 16.2247C70.7541 15.8062 73.444 16.0277 75.9715 16.8709C76.1731 17.772 76.4495 18.7093 76.8315 19.4164C76.8065 18.6833 76.8495 17.9494 76.9599 17.2245C82.5144 19.4082 87.1147 24.3774 88.3923 30.7921L88.4346 31.0108C87.4399 31.9173 86.57 32.9548 85.8484 34.0956L85.9036 34.0331C86.1653 33.747 87.2837 32.5532 88.5695 31.8477C89.1417 35.9849 88.3436 40.6697 85.5818 45.5633Z" fill="#BCB536"/>
<path d="M72.6343 21.3718C72.9378 21.7562 73.3 22.0891 73.7072 22.3582C73.7072 22.3582 73.2504 21.9751 72.6343 21.3718Z" fill="#D9D145"/>
<path d="M67.6958 18.9643C67.1885 18.2164 66.7223 17.4407 66.2995 16.6409C64.245 17.2471 62.3307 18.2617 60.6686 19.6254C59.9041 20.2353 59.1967 20.9151 58.5554 21.6562C61.852 23.4814 70.1195 21.9423 70.1195 21.9423C68.663 20.9557 67.7446 19.0811 67.6958 18.9643Z" fill="#D9D145"/>
<path d="M80.0321 38.1538C79.824 31.2476 75.0287 28.9998 72.6082 29.0885C70.1878 29.1773 69.1296 30.968 66.8944 29.3779C64.6593 27.7879 66.0654 24.2048 66.0654 24.2048C62.182 25.1405 60.2053 28.8567 59.4559 30.6721C59.799 30.4718 60.1547 30.2943 60.5207 30.1409C61.5538 29.7094 62.6547 29.4678 63.7718 29.4273C63.9343 28.0214 64.422 25.8377 65.9776 24.2607C65.9776 24.2607 64.565 26.6105 64.7536 29.4371C66.6335 29.5707 68.4568 30.1455 70.0789 31.116C70.2842 30.6034 70.6163 30.1528 71.0433 29.8073C71.4702 29.4618 71.9777 29.233 72.5172 29.1428C72.444 29.1691 71.259 29.6361 70.6007 31.4317C72.4367 32.6272 73.9977 34.2074 75.1782 36.0655C76.1714 35.9274 77.4767 36.0326 78.6016 37.0784C78.5252 37.011 77.4442 36.1263 75.596 36.7495C76.6873 38.668 77.369 40.7966 77.597 42.998C78.1562 39.8064 76.5924 36.8811 76.5924 36.8811C78.4504 36.8367 80.0321 38.1538 80.0321 38.1538Z" fill="#D9D145"/>
<path d="M81.8869 47.1764C82.8882 47.0991 83.8619 47.8604 83.8619 47.8604C83.8619 47.8604 81.9015 47.7552 80.6271 49.2171C79.6778 50.3057 78.2213 52.792 77.5857 55.2422C80.5117 52.5898 82.7874 49.934 84.5056 47.326C83.6491 47.1596 82.7745 47.1087 81.9047 47.1747L81.8869 47.1764Z" fill="#D9D145"/>
<path d="M71.129 22.1183C71.7289 22.4685 71.9938 22.4472 71.9938 22.4472C70.2756 21.2583 69.6872 17.8019 69.6693 17.695C70.2903 18.9562 71.6622 20.418 72.6343 21.3668C72.0156 20.5623 71.5222 19.6667 71.1713 18.7112C71.2461 18.828 73.2114 21.8618 78.3936 24.4417C83.6799 27.0727 83.9205 34.5576 83.9205 34.5576C85.8711 31.7919 87.5747 31.0026 88.3956 30.7757C87.1179 24.3628 82.5176 19.392 76.9631 17.2083C76.8527 17.9333 76.8098 18.6671 76.8347 19.4002C76.4527 18.6931 76.1764 17.7559 75.9748 16.8548C73.4473 16.0116 70.7574 15.7901 68.1283 16.2086C68.9102 19.0204 70.4805 21.2682 71.129 22.1183Z" fill="#D9D145"/>
<path d="M88.5662 31.8447C87.2804 32.5567 86.162 33.7439 85.9003 34.03C85.0107 35.2435 84.2654 36.5587 83.6798 37.9485C84.5868 36.1595 86.809 34.6352 86.8789 34.5875C86.835 34.6319 86.1214 35.3948 84.4665 38.2527C82.7597 41.2026 81.6836 45.9941 81.6836 45.9941C83.3904 45.223 84.7998 45.366 85.5849 45.5633C88.3435 40.6698 89.1416 35.9851 88.5662 31.8447Z" fill="#D9D145"/>
<path d="M67.4862 19.6747C67.9081 20.5219 68.4564 21.2983 69.1117 21.9768C69.7099 21.8864 70.0708 21.8124 70.0708 21.8124C68.6192 20.8258 67.7073 18.9545 67.652 18.8394C67.1447 18.092 66.6785 17.3169 66.2556 16.5176C63.2635 17.4304 60.5812 19.1668 58.5083 21.5328C58.6424 21.6069 58.7802 21.6738 58.9212 21.7334C59.4042 21.2309 59.9195 20.7612 60.4638 20.3275C62.1253 18.9633 64.0399 17.9491 66.0947 17.3447C66.5179 18.1438 66.9841 18.9189 67.491 19.6665L67.4862 19.6747Z" fill="#EEE75F"/>
<path d="M63.8043 28.7712C63.7604 28.9538 63.723 29.1347 63.6921 29.3074H63.7312C63.7507 29.1446 63.7734 28.9653 63.8043 28.7712Z" fill="#EEE75F"/>
<path d="M75.7585 17.5898C75.9601 18.4909 76.2462 19.4282 76.6201 20.1353C76.6044 19.7625 76.6099 19.3892 76.6363 19.0171C76.3193 18.2933 76.079 17.5376 75.9195 16.7626C73.3916 15.9161 70.7004 15.6922 68.0697 16.1098C68.1423 16.3696 68.222 16.6245 68.3087 16.8744C70.8135 16.543 73.3601 16.7875 75.7585 17.5898Z" fill="#EEE75F"/>
<path d="M88.02 30.7791C88.1387 30.7363 88.246 30.7018 88.3451 30.6771C87.0674 24.264 82.4672 19.2915 76.9127 17.1094C76.8672 17.4152 76.8363 17.703 76.8168 17.9612C82.1274 20.0725 86.557 24.7393 88.02 30.7791Z" fill="#EEE75F"/>
<path d="M85.8531 33.9164C84.9654 35.1291 84.2207 36.4425 83.6343 37.83C83.8793 37.3662 84.1778 36.9335 84.5234 36.5408C84.878 35.9191 85.2683 35.319 85.6922 34.7435C85.9539 34.4574 87.0723 33.2636 88.3581 32.5581C88.6266 34.5366 88.5849 36.5455 88.2346 38.5107C88.7272 36.2865 88.8235 33.9912 88.519 31.7327C87.2332 32.4447 86.1132 33.6319 85.8531 33.9164Z" fill="#EEE75F"/>
<path d="M60.4736 30.026C60.2119 30.1378 59.955 30.2595 59.6982 30.396C59.5161 30.761 59.3731 31.0965 59.2479 31.3826C59.5909 31.1819 59.9466 31.0045 60.3127 30.8515C61.3458 30.42 62.4467 30.1783 63.5638 30.1378C63.5914 29.8846 63.6304 29.6067 63.6857 29.3157C62.5803 29.3614 61.4915 29.603 60.4687 30.0293L60.4736 30.026Z" fill="#EEE75F"/>
<path d="M71.311 29.9586C71.0201 30.0309 70.7518 30.123 70.4983 30.2135C70.0902 30.3598 69.7131 30.5127 69.3376 30.618C68.5395 30.8399 67.7462 30.8432 66.6896 30.0918C66.4545 29.9255 66.2461 29.7237 66.0719 29.4932C65.1616 28.2896 65.4054 26.5712 65.646 25.6208C65.6769 25.4037 65.7143 25.1999 65.7549 25.0173C65.3265 25.8045 65.0044 26.6462 64.7974 27.52C64.5844 28.3794 64.5027 29.2666 64.5552 30.151C66.4357 30.2843 68.2596 30.8591 69.8822 31.8298C70.1123 31.2606 70.4987 30.7699 70.9957 30.4157C71.0905 30.2563 71.1958 30.1036 71.311 29.9586Z" fill="#EEE75F"/>
<path d="M75.5553 36.646C77.332 36.0409 78.4 36.835 78.5479 36.9551C77.4263 35.9225 76.1259 35.8173 75.1343 35.9537C73.9895 34.1514 72.4852 32.6107 70.7177 31.4304C70.5919 31.6609 70.4833 31.9005 70.3926 32.1473C72.2294 33.3422 73.791 34.9224 74.9717 36.7808C75.1796 36.751 75.3892 36.735 75.5992 36.7331L75.5553 36.646Z" fill="#EEE75F"/>
<path d="M75.9211 37.3218C75.7427 37.3588 75.5668 37.4071 75.3944 37.4665C76.4858 39.385 77.1675 41.5137 77.3955 43.7151C77.4638 43.319 77.5024 42.9183 77.5109 42.5163C77.2826 40.7047 76.7447 38.947 75.9211 37.3218Z" fill="#EEE75F"/>
<path d="M82.7305 47.8656C82.3847 47.8488 82.0382 47.8565 81.6935 47.8886H81.6804C81.9183 47.8724 82.1572 47.8957 82.3876 47.9577C82.8088 48.0713 83.2075 48.2577 83.5661 48.5085C83.6246 48.548 83.6555 48.5727 83.6555 48.5727H83.5206C81.7914 50.9172 79.8306 53.0774 77.6686 55.02C77.5613 55.3307 77.467 55.6415 77.3857 55.9556C80.3117 53.3033 82.5973 50.6478 84.3073 48.0399C84.1838 48.0185 84.0651 47.9988 83.9497 47.9823C83.5455 47.9225 83.1386 47.8835 82.7305 47.8656Z" fill="#EEE75F"/>
<path d="M76.8135 17.9612L76.7469 17.9365C76.6884 18.3312 76.6542 18.6963 76.6364 19.0087C76.6819 19.1107 76.7306 19.2077 76.781 19.2998C76.7644 18.8534 76.7753 18.4063 76.8135 17.9612Z" fill="#EEE75F"/>
<path d="M85.5346 45.4498C84.7592 45.2558 83.3694 45.121 81.6821 45.8609C81.5472 46.3871 81.474 46.7078 81.474 46.7078C83.1824 45.9382 84.5918 46.0796 85.3753 46.2769C86.874 43.6196 87.7941 41.0248 88.2297 38.5483C87.6813 40.9734 86.7726 43.3003 85.5346 45.4498Z" fill="#EEE75F"/>
<path d="M68.4159 62.5149L69.2287 61.8572L70.0203 61.1649L70.8022 60.4693C71.0574 60.2309 71.3159 59.9974 71.5679 59.7557C72.5761 58.7931 73.5343 57.7783 74.4386 56.7153C76.2573 54.6051 77.8263 52.2873 79.1136 49.8091C80.399 47.3434 81.3212 44.701 81.8511 41.9655C82.3599 39.2425 82.4184 36.4192 81.8234 33.7257C81.5332 32.3814 81.06 31.0842 80.4173 29.8714C79.7749 28.6638 78.9326 27.5765 77.927 26.6567C76.9195 25.7397 75.7557 25.0154 74.4922 24.5191L73.5299 24.1589L72.5546 23.8597C72.2295 23.7758 71.8897 23.6953 71.5581 23.6213C71.2265 23.5473 70.8851 23.5062 70.5486 23.4568C67.8173 23.083 65.039 23.5924 62.6111 24.9121C60.1688 26.2546 58.0908 28.1849 56.5608 30.5324C57.9978 28.0885 60.0227 26.0521 62.4469 24.6128L62.9086 24.3546C63.0711 24.2708 63.2337 24.1902 63.3832 24.1195C63.697 23.9551 64.0335 23.835 64.3586 23.6953C66.3531 22.931 68.5002 22.6631 70.6185 22.9142C72.0256 23.0804 73.4053 23.4308 74.7231 23.9567C76.0637 24.4647 77.3015 25.2159 78.3757 26.1733C79.4451 27.1367 80.3411 28.2806 81.0237 29.554C81.702 30.8217 82.2026 32.1787 82.511 33.586C83.1174 36.3945 83.0507 39.3116 82.511 42.1053C81.9451 44.8959 80.9658 47.584 79.6062 50.0787C78.9347 51.3228 78.1854 52.5224 77.3629 53.67C76.5421 54.8148 75.6551 55.9096 74.7068 56.9488C73.7583 57.984 72.7572 58.9687 71.7077 59.8988C71.4459 60.1323 71.1777 60.3575 70.9128 60.5861L70.1 61.2537L69.271 61.895L68.4159 62.5149Z" fill="#7A141E"/>
<path d="M67.6129 78.2741C66.6603 78.603 65.6964 78.9137 64.7211 79.2064C62.8078 79.7803 60.8588 80.2801 58.8984 80.7142C57.923 80.9335 56.9439 81.1335 55.961 81.3144C41.2189 84.0818 26.4915 83.2876 21.9562 81.6219C18.7425 80.4396 18.4142 80.0286 18.172 79.065C17.9802 78.3119 17.8469 77.2201 16.4164 75.1532L16.3806 75.1006L66.2654 78.1902L67.6129 78.2741Z" fill="#D9D145"/>
<g style="mix-blend-mode:multiply" opacity="0.57">
<path d="M56.8079 79.1555C56.1105 79.3314 41.2986 80.3887 35.0256 80.5646C29.4874 80.7291 23.9492 81.15 18.172 79.065C17.9802 78.312 17.8469 77.2202 16.4164 75.1533C21.3662 75.6154 57.4581 78.9911 56.8079 79.1555Z" fill="#D9D145"/>
</g>
<g style="mix-blend-mode:multiply" opacity="0.57">
<path d="M64.7211 79.2065C62.8078 79.7804 60.8588 80.2802 58.8984 80.7143C57.923 80.9335 56.9439 81.1336 55.961 81.3145C49.4686 80.8212 44.4359 80.0369 44.4359 80.0369L64.7211 79.2065Z" fill="#D9D145"/>
</g>
<path d="M85.4142 72.4433C85.2516 75.2815 84.5153 76.8634 84.5153 76.8634C84.5153 76.8634 44.4358 85.1479 15.3337 76.8634C14.6709 76.0352 14.1924 75.0722 13.9309 74.04C13.5516 72.5736 13.6778 71.0203 14.2885 69.6363C16.0311 65.5812 84.6892 68.7549 84.6892 68.7549L85.3866 69.6363C85.4584 70.5702 85.4676 71.508 85.4142 72.4433Z" fill="#D9D145"/>
<g style="mix-blend-mode:multiply" opacity="0.57">
<path d="M85.4142 72.4432C61.0993 77.1967 30.4952 75.1003 30.4952 75.1003C30.4952 75.1003 37.6476 74.5709 42.3454 74.0431C42.3454 74.0431 21.2588 74.219 15.1598 72.9858L16.3806 74.0431C16.3806 74.0431 15.8067 74.2371 13.9309 74.0431C13.5516 72.5769 13.6778 71.0237 14.2885 69.6398C16.0311 65.585 84.6892 68.7584 84.6892 68.7584L85.3866 69.6398C85.4582 70.5725 85.4674 71.5091 85.4142 72.4432Z" fill="#D9D145"/>
</g>
<path d="M99.3274 53.7651C99.3274 56.2316 96.1917 68.7483 96.1917 68.7483C93.0267 70.0161 87.2853 70.9978 80.1329 71.6917C55.7026 74.0629 14.8201 73.0812 4.00702 68.7483C4.00702 68.7483 0.871338 56.2316 0.871338 53.7651C0.871338 51.2986 10.2816 51.6488 14.9859 47.242C19.1994 43.2955 18.8011 24.3626 44.9594 21.4652C46.5687 21.286 53.63 21.286 55.2393 21.4652C69.1767 23.0076 75.5765 29.1049 79.1478 35.0623C82.2835 40.2848 83.2442 45.3987 85.2127 47.242C89.9171 51.6554 99.3274 51.2986 99.3274 53.7651Z" fill="#1E2625"/>
<path d="M57.4273 55.6316C57.3233 55.7907 57.1891 55.9273 57.0326 56.0337C56.8761 56.1401 56.7003 56.2141 56.5154 56.2515C54.29 56.6708 51.6387 55.3175 51.7054 52.759C51.7 52.1455 51.804 51.5361 52.0126 50.9601C49.0141 47.8567 46.6334 44.1991 45 40.1865C37.1551 42.7632 36.2578 50.3467 40.1364 53.5597C40.1364 53.5597 39.1107 59.5154 41.9082 60.2702C41.9229 60.7207 41.9424 61.2189 41.9716 61.7714C42.1797 65.777 43.5972 66.2966 45.1788 66.0204C46.7605 65.7441 46.6873 62.8616 46.6873 62.8616L47.7943 62.8912C47.7943 62.8912 47.5456 66.2456 50.0701 66.3147C52.5946 66.3837 52.5312 63.026 52.5312 63.026L53.6382 63.0573C53.6382 63.0573 53.4025 65.9299 54.9744 66.2933C56.5463 66.6567 57.9816 66.216 58.4059 62.2286C58.4644 61.6794 58.5115 61.1828 58.5506 60.7322C59.8234 60.4642 60.3826 59.1027 60.6118 57.6853C59.6267 57.1082 58.5473 56.4291 57.4273 55.6316ZM44.2604 55.9144C42.061 55.3734 42.6852 49.7893 46.3297 49.5706C48.3877 49.4457 49.3207 50.133 49.2557 52.6948C49.1907 55.2567 46.45 56.4537 44.2571 55.9144H44.2604ZM50.3156 57.5209C48.3925 58.4285 49.4361 54.936 50.3806 55.1218C52.2711 55.4967 51.8631 58.6834 50.3123 57.5209H50.3156Z" fill="#FEEDD9"/>
<path d="M54.7907 49.8041C57.4761 50.1149 58.349 53.2687 57.7166 55.056C58.7619 55.8042 59.7697 56.4471 60.7028 56.9963C60.7858 56.0414 60.7792 55.0807 60.6833 54.127C65.4494 50.6016 63.9344 40.6551 51.7428 39.3907V39.32C51.4177 39.3101 51.1039 39.3084 50.7934 39.3101C50.4829 39.3117 50.1676 39.2756 49.8457 39.2673V39.338C48.411 39.3951 46.9872 39.6157 45.6014 39.9958C47.1814 43.8583 49.4686 47.3842 52.3426 50.3878C52.853 49.809 53.656 49.6726 54.7907 49.8041Z" fill="#FEEDD9"/>
<path d="M63.8693 46.2161L69.0922 43.0491C69.3157 43.3501 69.6061 43.5937 69.94 43.7601C70.2738 43.9264 70.6417 44.0109 71.0139 44.0067C71.386 44.0025 71.752 43.9096 72.0821 43.7358C72.4122 43.5619 72.6971 43.3118 72.9139 43.0057C73.1306 42.6997 73.2731 42.3463 73.3298 41.9743C73.3864 41.6022 73.3556 41.2218 73.2399 40.864C73.1242 40.5062 72.9268 40.1809 72.6637 39.9147C72.4006 39.6484 72.0792 39.4485 71.7256 39.3312C71.8557 38.9631 71.8949 38.5683 71.8399 38.1813C71.7849 37.7943 71.6373 37.4268 71.4099 37.1106C71.1825 36.7945 70.8822 36.5393 70.5351 36.3672C70.188 36.1952 69.8047 36.1115 69.4183 36.1234C69.032 36.1354 68.6544 36.2426 68.3183 36.4357C67.9823 36.6289 67.6979 36.9021 67.49 37.2318C67.2821 37.5614 67.157 37.9374 67.1254 38.327C67.0939 38.7167 67.1569 39.1083 67.3089 39.4677L61.8748 42.7564C62.7737 43.7542 63.4535 44.9333 63.8693 46.2161Z" fill="#FEEDD9"/>
<path d="M38.8652 56.7251L32.2476 60.739C32.0147 60.4499 31.7184 60.2198 31.3822 60.0668C31.0461 59.9138 30.6793 59.8422 30.311 59.8577C29.9427 59.8731 29.583 59.9752 29.2605 60.1558C28.938 60.3364 28.6616 60.5906 28.4531 60.8982C28.2447 61.2057 28.11 61.5582 28.0598 61.9276C28.0095 62.297 28.045 62.6731 28.1636 63.0262C28.2821 63.3793 28.4804 63.6995 28.7426 63.9616C29.0049 64.2236 29.3239 64.4202 29.6744 64.5358C29.591 64.7719 29.5455 65.0201 29.5394 65.2708C29.5289 65.6337 29.6 65.9942 29.7473 66.3253C29.8945 66.6564 30.1141 66.9493 30.3896 67.1821C30.665 67.4148 30.9891 67.5813 31.3373 67.669C31.6856 67.7567 32.049 67.7632 32.4001 67.6882C32.7513 67.6132 33.081 67.4586 33.3645 67.2359C33.648 67.0133 33.8778 66.7285 34.0367 66.403C34.1956 66.0775 34.2793 65.7197 34.2817 65.3567C34.2841 64.9936 34.205 64.6348 34.0503 64.3072L40.2274 60.5564C39.2976 59.6175 38.9546 58.1162 38.8652 56.7251Z" fill="#FEEDD9"/>
<path d="M30.9342 42.9127C31.2914 42.9225 31.6462 42.8504 31.9719 42.7017C32.2976 42.5531 32.5858 42.3317 32.8149 42.0543L37.4851 45.251C38.0133 44.0155 38.7881 42.9037 39.7609 41.9852L34.7818 38.5781C34.9387 38.2563 35.0223 37.9031 35.0264 37.5443C35.0304 37.1856 34.9549 36.8305 34.8054 36.5052C34.6558 36.1799 34.436 35.8926 34.1622 35.6646C33.8884 35.4366 33.5675 35.2736 33.2232 35.1876C32.8789 35.1016 32.5199 35.0948 32.1726 35.1678C31.8254 35.2407 31.4987 35.3915 31.2167 35.6091C30.9347 35.8267 30.7045 36.1054 30.5431 36.4249C30.3816 36.7443 30.2931 37.0964 30.284 37.455C30.2767 37.7058 30.3091 37.9561 30.3799 38.1966C29.8292 38.3455 29.35 38.69 29.0299 39.167C28.7098 39.6441 28.5702 40.2218 28.6367 40.7944C28.7032 41.367 28.9714 41.8963 29.3921 42.2853C29.8128 42.6743 30.3579 42.897 30.9277 42.9127H30.9342Z" fill="#FEEDD9"/>
<path d="M70.4657 60.9577C70.1251 60.9481 69.7864 61.0133 69.473 61.1487C69.1596 61.2841 68.8788 61.4865 68.65 61.742L61.8081 57.054C61.8089 57.0611 61.8089 57.0682 61.8081 57.0753L61.8341 57.0901L61.7707 57.4864L61.6423 58.8364L61.5155 58.7608C61.2457 59.7474 60.8425 60.443 60.3955 60.9133L66.6587 65.1984C66.488 65.5168 66.3908 65.8701 66.3745 66.2318C66.3581 66.5936 66.4229 66.9544 66.5641 67.2872C66.7054 67.62 66.9193 67.9161 67.1898 68.1533C67.4604 68.3905 67.7805 68.5626 68.1262 68.6567C68.4719 68.7508 68.8342 68.7644 69.1859 68.6966C69.5375 68.6288 69.8695 68.4813 70.1567 68.2651C70.4439 68.0489 70.679 67.7698 70.8443 67.4485C71.0096 67.1273 71.1008 66.7723 71.1111 66.4103C71.1184 66.159 71.086 65.9081 71.0152 65.6671C71.5658 65.5182 72.0451 65.1738 72.3652 64.6967C72.6853 64.2197 72.8249 63.6419 72.7584 63.0693C72.6918 62.4967 72.4237 61.9674 72.003 61.5785C71.5823 61.1895 71.0371 60.9667 70.4674 60.9511L70.4657 60.9577Z" fill="#FEEDD9"/>
<path opacity="0.56" d="M85.2128 47.2488C83.2442 45.4054 82.2868 40.2915 79.1479 35.0691L78.1611 35.1118C79.513 37.9639 80.4996 40.9787 81.0969 44.0834L80.6824 45.1341L81.2042 47.0728V49.1875L80.6824 50.7743L81.2042 53.2408L82.0885 54.2093V55.4195C82.0798 56.3141 82.0549 57.191 82.0137 58.0505L81.3797 59.9431C81.3797 59.9431 81.2172 63.1151 81.3797 63.6445C81.5423 64.174 79.9801 70.3436 79.9801 70.3436L80.2776 71.0425C80.2256 71.2809 80.1752 71.5029 80.1281 71.7002C87.2805 71.0063 93.0219 70.0246 96.1868 68.7568C96.1868 68.7568 99.3225 56.2401 99.3225 53.7735C99.3225 51.307 89.9171 51.6556 85.2128 47.2488Z" fill="#141516"/>
<path opacity="0.56" d="M19.9537 68.2257L18.7638 65.062C18.4679 62.9424 18.2143 60.5022 18.0973 57.8712L18.6467 56.0625V53.7653L18.1054 51.6408L19.1702 50.0639L19.3441 48.8306L18.6028 48.4788L18.6337 46.2951C18.7421 45.5672 18.8689 44.8387 19.0141 44.1097L19.8675 43.013L19.7049 41.1697C20.2689 39.0831 21.022 37.0536 21.9547 35.107L20.9664 35.0642C17.8323 40.2866 16.8716 45.4005 14.9031 47.2439C10.189 51.6507 0.786865 51.2988 0.786865 53.767C0.786865 56.2351 3.92417 68.7502 3.92417 68.7502C7.08911 70.018 12.8305 70.9997 19.9829 71.6936C19.8561 71.1543 19.7001 70.457 19.5343 69.6267L19.9537 68.2257Z" fill="#141516"/>
<path d="M100.199 53.7655C100.199 56.2698 97.3587 67.6733 97.0369 68.9657C96.9874 69.1543 96.8777 69.3211 96.7248 69.44C96.572 69.559 96.3845 69.6235 96.1916 69.6235C96.1193 69.6228 96.0474 69.614 95.9771 69.5972C95.866 69.5688 95.7615 69.5185 95.6697 69.4492C95.5779 69.3799 95.5005 69.293 95.4419 69.1934C95.3833 69.0938 95.3447 68.9835 95.3283 68.8689C95.3119 68.7542 95.318 68.6373 95.3463 68.5251C96.2128 65.0719 98.456 55.6992 98.456 53.7589C98.456 53.7589 98.3942 53.5369 97.6205 53.2031C96.8467 52.8693 95.6893 52.5651 94.3694 52.2165C91.2126 51.3943 87.2853 50.3715 84.6161 47.8771C83.4441 46.7803 82.6655 44.8647 81.6901 42.4393C80.7408 40.0961 79.6306 37.3599 77.8929 34.6648C74.3167 29.1283 68.0973 23.7629 55.1482 22.3323C53.5893 22.158 46.6125 22.158 45.0569 22.3323C34.8679 23.4603 28.8404 27.022 24.996 31.1854C21.5726 34.8901 19.8772 39.0782 18.5117 42.4426C17.5266 44.868 16.7512 46.7836 15.5857 47.8804C12.9198 50.3748 8.99252 51.396 5.83246 52.2198C4.51251 52.5618 3.37138 52.8594 2.58137 53.2064C1.79135 53.5533 1.74746 53.7655 1.74746 53.7655C1.74746 55.6992 3.99071 65.0802 4.85713 68.5316C4.88531 68.6439 4.89134 68.7607 4.87489 68.8754C4.85844 68.99 4.81983 69.1003 4.76127 69.1998C4.7027 69.2994 4.62534 69.3863 4.53357 69.4556C4.4418 69.5249 4.33742 69.5752 4.22642 69.6037C4.11541 69.6322 3.99994 69.6384 3.88661 69.6217C3.77327 69.6051 3.66428 69.566 3.56586 69.5068C3.46744 69.4475 3.38153 69.3693 3.31302 69.2764C3.24451 69.1836 3.19474 69.078 3.16656 68.9657C2.84145 67.6733 0.00488281 56.2698 0.00488281 53.7655C0.00488281 51.9271 2.26763 51.3384 5.40006 50.5212C8.36505 49.75 12.0648 48.7881 14.3991 46.5962C15.2866 45.7641 16.036 43.9175 16.9024 41.7832C17.9623 39.1687 19.2838 35.908 21.5482 32.7196C25.4252 27.2587 32.0623 22.0067 44.8699 20.5893C46.5312 20.4051 53.6771 20.4051 55.34 20.5893C67.4097 21.9261 73.9997 26.6734 77.9628 31.7823C80.6612 35.2617 82.142 38.9138 83.3059 41.7832C84.1723 43.9208 84.9217 45.7641 85.8093 46.5962C88.15 48.7881 91.8433 49.75 94.8083 50.5212C97.9358 51.345 100.199 51.9337 100.199 53.7655Z" fill="#E9AB44"/>
<g style="mix-blend-mode:screen">
<path d="M5.39518 51.2333C8.36017 50.4605 12.0599 49.5002 14.3942 47.3082C15.2818 46.4762 16.0311 44.6296 16.8975 42.4952C17.9574 39.8807 19.279 36.62 21.5434 33.4316C25.4203 27.9708 32.0574 22.7187 44.8651 21.3013C46.5264 21.1171 53.6723 21.1171 55.3352 21.3013C67.4049 22.6381 73.9948 27.3854 77.9579 32.4927C80.6563 35.9738 82.1372 39.6259 83.3011 42.4952C84.1675 44.6329 84.9169 46.4762 85.8044 47.3082C88.1452 49.5002 91.8384 50.4605 94.8034 51.2333C97.7684 52.0061 99.9581 52.5767 100.179 54.1931C100.192 54.0287 100.199 53.8873 100.199 53.7656C100.199 51.9272 97.9359 51.3385 94.8034 50.5213C91.8384 49.7501 88.1387 48.7882 85.8044 46.5963C84.9169 45.7642 84.1675 43.9176 83.3011 41.7833C82.1372 38.9139 80.6563 35.2618 77.9579 31.7824C73.9948 26.6684 67.4049 21.9261 55.3352 20.5893C53.6723 20.4051 46.5264 20.4051 44.8651 20.5893C32.0574 22.0067 25.4203 27.2588 21.5434 32.7196C19.279 35.908 17.9574 39.1687 16.8975 41.7833C16.0311 43.9209 15.2818 45.7642 14.3942 46.5963C12.0534 48.7882 8.36017 49.7501 5.39518 50.5213C2.26275 51.3435 0 51.9272 0 53.7656C0 53.8873 -7.93287e-07 54.0303 0.0195058 54.1931C0.24058 52.5767 2.42693 52.0061 5.39518 51.2333Z" fill="#E9AB44"/>
</g>
<g style="mix-blend-mode:multiply">
<path d="M98.4105 54.4048C98.0854 57.233 96.1348 65.3742 95.3464 68.5379C95.3001 68.7198 95.3138 68.9121 95.3854 69.0854C96.2778 65.5139 98.4561 56.3813 98.4561 54.4755C98.4456 54.4491 98.4302 54.4251 98.4105 54.4048Z" fill="#E9AB44"/>
</g>
<g style="mix-blend-mode:multiply">
<path d="M1.7882 54.4048C1.76856 54.4251 1.75309 54.4491 1.74268 54.4755C1.74268 56.3813 3.92093 65.5139 4.81336 69.0854C4.88504 68.9121 4.89873 68.7198 4.85237 68.5379C4.0591 65.3742 2.10843 57.233 1.7882 54.4048Z" fill="#E9AB44"/>
</g>
<path opacity="0.56" d="M77.8912 34.6909C63.9311 20.0267 39.2553 20.9475 24.9944 31.2082C28.8388 27.0447 34.8663 23.4798 45.0552 22.3551C46.6109 22.1808 53.5877 22.1808 55.1466 22.3551C68.0957 23.7824 74.3199 29.1479 77.8912 34.6909Z" fill="#141516"/>
</svg>
